<svg width="69" height="60" viewBox="0 0 69 60" fill="none" xmlns="http://www.w3.org/2000/svg">
<path d="M34.7321 56.6265C28.1756 53.7976 23.4294 49.221 20.2816 44.6362C18.5773 44.0672 16.9381 43.4575 15.3724 42.8316C16.0329 44.0672 16.775 45.3028 17.5987 46.4896C20.51 50.7086 25.7291 56.4558 34.0553 59.8618C34.2755 59.9512 34.5038 60 34.7321 60C34.9605 60 35.1888 59.9594 35.409 59.8699C41.4681 57.3825 45.8799 53.6675 48.9543 50.1964C47.5924 50.1314 46.1898 50.0257 44.7627 49.8876C42.0634 52.5213 38.7362 54.9031 34.7321 56.6265ZM65.0847 33.532C64.4812 32.9955 63.7881 32.4509 63.0052 31.9144C61.415 30.8007 59.4823 29.687 57.2723 28.614V11.7708C57.2723 10.779 56.4731 9.97426 55.4945 9.97426C50.2346 9.94987 45.5211 8.54356 41.4762 5.79596C38.3366 3.66617 36.6485 1.41444 36.2 0.772253C35.8657 0.292643 35.3193 0 34.7321 0C34.1531 0 33.5986 0.284515 33.2643 0.764125C32.8157 1.40631 31.1195 3.65804 27.9799 5.78783C23.9269 8.53543 19.2052 9.94174 13.9534 9.96613C12.9748 9.97426 12.1757 10.779 12.1757 11.7626V19.2901C11.1644 19.3551 10.2103 19.4445 9.31328 19.5665C7.29902 19.8347 5.58649 20.2412 4.192 20.7777C1.82708 21.6962 0.448899 22.9806 0.0900835 24.5983C-0.252423 26.1428 0.38366 27.8011 1.96571 29.5407L1.97387 29.5488C2.00649 29.5814 2.03095 29.6139 2.06357 29.6464C3.53961 31.2234 5.77405 32.8329 8.70982 34.4344C8.90554 34.54 9.10941 34.6538 9.31328 34.7595C10.406 35.3367 11.5803 35.9057 12.8117 36.4503C13.1706 37.7998 13.6762 39.2061 14.3041 40.6286C15.7557 41.2546 17.2888 41.8561 18.8953 42.4333C18.0309 40.9375 17.3296 39.4662 16.7913 38.0843C21.301 39.7995 26.406 41.3115 31.7801 42.4983C37.8147 43.8315 43.7188 44.6444 48.9951 44.8964C48.1714 46.0751 47.2499 47.2456 46.2142 48.3837C47.6087 48.4975 48.9706 48.5788 50.2835 48.6194C50.8707 47.8797 51.3926 47.1643 51.8574 46.4896C52.1999 45.9938 52.5261 45.4898 52.8442 44.9776C53.9777 44.9695 55.0623 44.937 56.1143 44.8638C58.8462 44.685 61.1622 44.3029 63.0134 43.7258C63.4211 43.5957 63.8044 43.4657 64.1632 43.3193C64.8727 43.0348 65.4924 42.7097 66.0144 42.3601C65.7453 41.9049 65.4027 41.4659 65.0276 41.0513C64.4894 41.409 63.8125 41.7261 63.0134 42.0024C61.2437 42.6202 58.8625 43.0511 56.0083 43.238C55.2988 43.2868 54.5649 43.3193 53.8065 43.3356C55.992 39.3686 57.2805 35.2798 57.2805 32.1095V30.4268C59.5638 31.5811 61.5047 32.7679 63.0134 33.9304C63.3722 34.2067 63.6984 34.475 64.0083 34.7514C65.3375 35.9301 66.8462 37.6616 66.5037 39.2223C66.4466 39.4662 66.3487 39.6938 66.2101 39.9214C66.626 40.3685 66.9766 40.8156 67.2539 41.2546C67.678 40.7424 67.9552 40.1815 68.0939 39.5719C68.5016 37.7022 67.4904 35.67 65.0847 33.532ZM9.49269 32.9955C9.43561 32.963 9.37037 32.9305 9.31328 32.898C6.54877 31.3779 4.45296 29.8334 3.15633 28.4027C3.14817 28.4027 3.14817 28.4108 3.14002 28.4108C2.62626 27.8905 2.29191 27.3215 2.16958 27.102C1.71291 26.3135 1.5335 25.59 1.68029 24.9397C2.07173 23.1595 4.8607 21.8263 9.31328 21.2004C10.2022 21.0784 11.1563 20.9809 12.1757 20.9159V32.1176C12.1757 32.8492 12.2491 33.6377 12.3795 34.4587C11.3683 33.9791 10.3979 33.4914 9.49269 32.9955ZM54.0185 32.1176C54.0185 34.6945 52.7545 38.9378 50.0389 43.3112C44.624 43.1242 38.4589 42.3032 32.1389 40.905C26.3244 39.6206 20.8362 37.9623 16.1063 36.0683C15.6578 34.54 15.4376 33.1825 15.4376 32.1176V13.1852C20.7791 12.9169 25.6068 11.3399 29.8229 8.47853C32.0818 6.95028 33.7046 5.33261 34.7403 4.15391C35.7678 5.33261 37.3906 6.94215 39.6414 8.47853C43.8493 11.3399 48.677 12.9169 54.0185 13.1852V32.1176Z" fill="url(#paint0_linear_99_1239)"/>
<path d="M34.7321 56.6265C28.1756 53.7976 23.4294 49.221 20.2816 44.6362C18.5773 44.0672 16.9381 43.4575 15.3724 42.8316C16.0329 44.0672 16.775 45.3028 17.5987 46.4896C20.51 50.7086 25.7291 56.4558 34.0553 59.8618C34.2755 59.9512 34.5038 60 34.7321 60C34.9605 60 35.1888 59.9594 35.409 59.8699C41.4681 57.3825 45.8799 53.6675 48.9543 50.1964C47.5924 50.1314 46.1898 50.0257 44.7627 49.8876C42.0634 52.5213 38.7362 54.9031 34.7321 56.6265ZM65.0847 33.532C64.4812 32.9955 63.7881 32.4509 63.0052 31.9144C61.415 30.8007 59.4823 29.687 57.2723 28.614V11.7708C57.2723 10.779 56.4731 9.97426 55.4945 9.97426C50.2346 9.94987 45.5211 8.54356 41.4762 5.79596C38.3366 3.66617 36.6485 1.41444 36.2 0.772253C35.8657 0.292643 35.3193 0 34.7321 0C34.1531 0 33.5986 0.284515 33.2643 0.764125C32.8157 1.40631 31.1195 3.65804 27.9799 5.78783C23.9269 8.53543 19.2052 9.94174 13.9534 9.96613C12.9748 9.97426 12.1757 10.779 12.1757 11.7626V19.2901C11.1644 19.3551 10.2103 19.4445 9.31328 19.5665C7.29902 19.8347 5.58649 20.2412 4.192 20.7777C1.82708 21.6962 0.448899 22.9806 0.0900835 24.5983C-0.252423 26.1428 0.38366 27.8011 1.96571 29.5407L1.97387 29.5488C2.00649 29.5814 2.03095 29.6139 2.06357 29.6464C3.53961 31.2234 5.77405 32.8329 8.70982 34.4344C8.90554 34.54 9.10941 34.6538 9.31328 34.7595C10.406 35.3367 11.5803 35.9057 12.8117 36.4503C13.1706 37.7998 13.6762 39.2061 14.3041 40.6286C15.7557 41.2546 17.2888 41.8561 18.8953 42.4333C18.0309 40.9375 17.3296 39.4662 16.7913 38.0843C21.301 39.7995 26.406 41.3115 31.7801 42.4983C37.8147 43.8315 43.7188 44.6444 48.9951 44.8964C48.1714 46.0751 47.2499 47.2456 46.2142 48.3837C47.6087 48.4975 48.9706 48.5788 50.2835 48.6194C50.8707 47.8797 51.3926 47.1643 51.8574 46.4896C52.1999 45.9938 52.5261 45.4898 52.8442 44.9776C53.9777 44.9695 55.0623 44.937 56.1143 44.8638C58.8462 44.685 61.1622 44.3029 63.0134 43.7258C63.4211 43.5957 63.8044 43.4657 64.1632 43.3193C64.8727 43.0348 65.4924 42.7097 66.0144 42.3601C65.7453 41.9049 65.4027 41.4659 65.0276 41.0513C64.4894 41.409 63.8125 41.7261 63.0134 42.0024C61.2437 42.6202 58.8625 43.0511 56.0083 43.238C55.2988 43.2868 54.5649 43.3193 53.8065 43.3356C55.992 39.3686 57.2805 35.2798 57.2805 32.1095V30.4268C59.5638 31.5811 61.5047 32.7679 63.0134 33.9304C63.3722 34.2067 63.6984 34.475 64.0083 34.7514C65.3375 35.9301 66.8462 37.6616 66.5037 39.2223C66.4466 39.4662 66.3487 39.6938 66.2101 39.9214C66.626 40.3685 66.9766 40.8156 67.2539 41.2546C67.678 40.7424 67.9552 40.1815 68.0939 39.5719C68.5016 37.7022 67.4904 35.67 65.0847 33.532ZM9.49269 32.9955C9.43561 32.963 9.37037 32.9305 9.31328 32.898C6.54877 31.3779 4.45296 29.8334 3.15633 28.4027C3.14817 28.4027 3.14817 28.4108 3.14002 28.4108C2.62626 27.8905 2.29191 27.3215 2.16958 27.102C1.71291 26.3135 1.5335 25.59 1.68029 24.9397C2.07173 23.1595 4.8607 21.8263 9.31328 21.2004C10.2022 21.0784 11.1563 20.9809 12.1757 20.9159V32.1176C12.1757 32.8492 12.2491 33.6377 12.3795 34.4587C11.3683 33.9791 10.3979 33.4914 9.49269 32.9955ZM54.0185 32.1176C54.0185 34.6945 52.7545 38.9378 50.0389 43.3112C44.624 43.1242 38.4589 42.3032 32.1389 40.905C26.3244 39.6206 20.8362 37.9623 16.1063 36.0683C15.6578 34.54 15.4376 33.1825 15.4376 32.1176V13.1852C20.7791 12.9169 25.6068 11.3399 29.8229 8.47853C32.0818 6.95028 33.7046 5.33261 34.7403 4.15391C35.7678 5.33261 37.3906 6.94215 39.6414 8.47853C43.8493 11.3399 48.677 12.9169 54.0185 13.1852V32.1176Z" fill="white"/>
<defs>
<linearGradient id="paint0_linear_99_1239" x1="3.11265" y1="41.5789" x2="64.3281" y2="41.5789" gradientUnits="userSpaceOnUse">
<stop stop-color="#FF9B56"/>
<stop offset="0.958333" stop-color="#E95F00"/>
</linearGradient>
</defs>
</svg>
