<svg width="60" height="60" viewBox="0 0 60 60" fill="none" xmlns="http://www.w3.org/2000/svg">
<path d="M59.2969 60H0.703125C0.314453 60 0 59.6818 0 59.2885V55.336C0 54.9427 0.314453 54.6245 0.703125 54.6245H1.95312V52.0949H0.703125C0.314453 52.0949 0 51.7767 0 51.3834V47.4308C0 47.0375 0.314453 46.7194 0.703125 46.7194H12.1309L27.0508 31.6225C24.9102 30.5277 23.4375 28.2806 23.4375 25.6917C23.4375 22.2708 26.0078 19.4447 29.2969 19.0889V0H30.7031V19.7628C30.7031 20.1561 30.3887 20.4743 30 20.4743C27.1562 20.4743 24.8437 22.8162 24.8437 25.6917C24.8437 27.8953 26.2012 29.7846 28.1133 30.5474L29.5039 29.1423C29.7793 28.8636 30.2227 28.8636 30.498 29.1423L31.8887 30.5474C33.8008 29.7846 35.1562 27.8953 35.1562 25.6917H36.5645C36.5645 28.2806 35.0918 30.5277 32.9492 31.6225L47.8711 46.7194H59.2969C59.6855 46.7194 60 47.0375 60 47.4308V51.3834C60 51.7767 59.6855 52.0949 59.2969 52.0949H58.0469V54.6225H59.2969C59.6855 54.6225 60 54.9407 60 55.334V59.2866C60 59.6818 59.6855 60 59.2969 60ZM1.40625 58.5771H58.5937V56.0474H1.40625V58.5771ZM3.35937 54.6245H56.6406V52.0949H3.35937V54.6245ZM57.3437 50.6719H58.5937V48.1423H1.40625V50.67L57.3437 50.6719ZM14.1191 46.7194H45.8809L31.4902 32.1601C30.5332 32.3874 29.4668 32.3874 28.5098 32.1601L14.1191 46.7194ZM29.75 30.9032C29.916 30.913 30.084 30.913 30.25 30.9032L30 30.6502L29.75 30.9032Z" fill="white"/>
</svg>
