<svg width="68" height="60" viewBox="0 0 68 60" fill="none" xmlns="http://www.w3.org/2000/svg">
<path d="M24.3212 1.22909C25.1084 0.442106 26.176 0 27.2891 0C28.4023 0 29.4698 0.442106 30.2571 1.22909L32.9731 3.94095C33.3673 4.33508 33.5887 4.86963 33.5887 5.42702C33.5887 5.9844 33.3673 6.51895 32.9731 6.91308C32.579 7.30721 32.0444 7.52863 31.4871 7.52863C30.9297 7.52863 30.3951 7.30721 30.001 6.91308L27.2891 4.19703L8.39849 23.0877V49.5052C8.39849 50.0619 8.61963 50.5958 9.01327 50.9894C9.4069 51.383 9.94078 51.6042 10.4975 51.6042C11.0541 51.6042 11.588 51.8253 11.9816 52.2189C12.3753 52.6126 12.5964 53.1464 12.5964 53.7031C12.5964 54.2598 12.3753 54.7937 11.9816 55.1873C11.588 55.5809 11.0541 55.8021 10.4975 55.8021C8.82742 55.8021 7.22578 55.1387 6.04489 53.9578C4.86399 52.7769 4.20057 51.1752 4.20057 49.5052V27.2856L3.58768 27.9027C3.19355 28.2968 2.65899 28.5182 2.10161 28.5182C1.54423 28.5182 1.00968 28.2968 0.615548 27.9027C0.221419 27.5086 8.30564e-09 26.974 0 26.4166C-8.30564e-09 25.8592 0.221419 25.3247 0.615548 24.9306L24.3212 1.22909ZM36.915 5.42702C37.7022 4.64003 38.7698 4.19792 39.8829 4.19792C40.996 4.19792 42.0636 4.64003 42.8508 5.42702L50.3777 12.9539V7.52598C50.3777 6.9693 50.5989 6.43542 50.9925 6.04179C51.3861 5.64816 51.92 5.42702 52.4767 5.42702H56.6746C57.2313 5.42702 57.7652 5.64816 58.1588 6.04179C58.5524 6.43542 58.7736 6.9693 58.7736 7.52598V21.3497L66.5565 29.1285C66.9506 29.5226 67.1721 30.0572 67.1721 30.6145C67.1721 31.1719 66.9506 31.7065 66.5565 32.1006C66.1624 32.4947 65.6278 32.7162 65.0704 32.7162C64.5131 32.7162 63.9785 32.4947 63.5844 32.1006L62.9715 31.4835V53.7031C62.9715 55.3732 62.3081 56.9748 61.1272 58.1557C59.9463 59.3366 58.3446 60 56.6746 60H23.0912C21.4212 60 19.8195 59.3366 18.6387 58.1557C17.4578 56.9748 16.7943 55.3732 16.7943 53.7031V31.4835L16.1814 32.1006C15.9863 32.2958 15.7546 32.4506 15.4996 32.5562C15.2446 32.6618 14.9714 32.7162 14.6954 32.7162C14.4194 32.7162 14.1461 32.6618 13.8911 32.5562C13.6361 32.4506 13.4045 32.2958 13.2093 32.1006C13.0142 31.9055 12.8594 31.6738 12.7537 31.4188C12.6481 31.1638 12.5938 30.8905 12.5938 30.6145C12.5938 30.3386 12.6481 30.0653 12.7537 29.8103C12.8594 29.5553 13.0142 29.3236 13.2093 29.1285L36.915 5.42702ZM39.8829 8.39495L20.9923 27.2856V53.7031C20.9923 54.2598 21.2134 54.7937 21.607 55.1873C22.0007 55.5809 22.5345 55.8021 23.0912 55.8021H56.6746C57.2313 55.8021 57.7652 55.5809 58.1588 55.1873C58.5524 54.7937 58.7736 54.2598 58.7736 53.7031V27.2856L39.8829 8.39495Z" fill="white"/>
</svg>
