<svg width="60" height="57" viewBox="0 0 60 57" fill="none" xmlns="http://www.w3.org/2000/svg">
<g clip-path="url(#clip0_121_97)">
<mask id="mask0_121_97" style="mask-type:alpha" maskUnits="userSpaceOnUse" x="0" y="-36" width="61" height="93">
<path d="M59.3981 2.48332C54.5592 2.48332 51.9691 5.1433 50.0778 7.08572C48.3758 8.83366 47.2512 9.98842 44.7826 9.98842C42.3137 9.98842 41.1893 8.83367 39.4871 7.08548C37.8518 5.40609 35.8166 3.31594 32.3358 2.67496C31.8268 2.58174 31.3386 2.91851 31.2449 3.42792C31.1513 3.93757 31.488 4.42656 31.9969 4.52026C34.8913 5.05315 36.6201 6.82871 38.1456 8.39529C39.8509 10.1465 41.3377 11.6726 44.2208 11.8475V10.7999C44.2208 11.3181 44.6403 11.738 45.1577 11.738C45.675 11.738 46.0945 11.318 46.0945 10.7999V11.7669C48.4981 11.3936 49.8688 9.98783 51.4196 8.39517C53.1139 6.65525 55.0163 4.70174 58.4614 4.39954V43.9014C54.218 44.2183 51.8433 46.6556 50.0783 48.4683L50.078 48.4685C48.7099 49.8735 47.7145 50.8948 46.0946 51.2416V52.0533C46.0946 51.5352 45.6751 51.1152 45.1578 51.1152C44.6404 51.1152 44.2209 51.5353 44.2209 52.0533V51.3492C42.1329 51.1839 41.0545 50.0781 39.4873 48.4685C37.5961 46.5264 35.0061 43.8664 30.1671 43.8664C25.3282 43.8664 22.7383 46.5265 20.8471 48.4687C19.2803 50.078 18.2021 51.1837 16.1145 51.3492V51.9596C16.1145 51.4414 15.695 51.0215 15.1777 51.0215C14.6602 51.0215 14.2408 51.4416 14.2408 51.9596V51.2417C12.6208 50.895 11.6254 49.8737 10.2571 48.4684C8.49191 46.6557 6.11728 44.2183 1.87392 43.9015V21.4861C1.87392 20.9679 1.4544 20.548 0.937077 20.548C0.419752 20.548 0 20.9681 0 21.4861V48.5568C0 49.0749 0.419517 49.4949 0.936842 49.4949C3.40551 49.4949 4.52984 50.6495 6.23194 52.3977C8.12306 54.3399 10.713 57 15.5519 57C20.3909 57 22.9808 54.3399 24.8719 52.3977C26.5739 50.6497 27.6981 49.4949 30.1669 49.4949C32.6357 49.4949 33.7601 50.6497 35.4623 52.3978C37.3535 54.34 39.9435 57 44.7824 57C49.6215 57 52.2115 54.34 54.1027 52.3978C55.8048 50.6498 56.9292 49.4949 59.398 49.4949C59.9154 49.4949 60.3348 49.0748 60.3348 48.5568V3.42143C60.335 2.90341 59.9154 2.48332 59.3981 2.48332ZM58.4612 47.6665C55.8206 47.9458 54.3909 49.4143 52.761 51.0881C50.919 52.9798 48.8314 55.1239 44.7824 55.1239C40.7335 55.1239 38.6458 52.9798 36.8036 51.0879C34.9911 49.2263 33.4256 47.6188 30.1668 47.6188C26.9081 47.6188 25.3426 49.2266 23.5302 51.088C21.6883 52.9798 19.6006 55.1239 15.5518 55.1239C11.5029 55.1239 9.4152 52.9798 7.57322 51.0878C5.9437 49.4143 4.51357 47.9459 1.87357 47.6666V45.7827C5.31855 46.0849 7.22087 48.0384 8.91531 49.7787C10.7278 51.64 12.2932 53.2477 15.5518 53.2477C18.8105 53.2477 20.376 51.6399 22.1884 49.7785C24.0303 47.8867 26.118 45.7426 30.1668 45.7426C34.2157 45.7426 36.3035 47.8867 38.1454 49.7783C39.958 51.64 41.5235 53.2477 44.7823 53.2477C48.0411 53.2477 49.6066 51.6399 51.4192 49.7786L51.4194 49.7785C53.1136 48.0385 55.0161 46.085 58.4612 45.7828V47.6665Z" fill="black"/>
<path d="M59.3981 -13.8336C54.5592 -13.8336 51.9691 -11.1736 50.0778 -9.23119C48.3758 -7.48324 47.2512 -6.32849 44.7826 -6.32849C42.3137 -6.32849 41.1893 -7.48325 39.4871 -9.23143C37.8518 -10.9108 35.8166 -13.001 32.3358 -13.642C31.8268 -13.7352 31.3386 -13.3984 31.2449 -12.889C31.1513 -12.3793 31.488 -11.8903 31.9969 -11.7967C34.8913 -11.2638 36.6201 -9.4882 38.1456 -7.92162C39.8509 -6.17037 41.3377 -4.64426 44.2208 -4.46938V-5.51697C44.2208 -4.99883 44.6403 -4.57886 45.1577 -4.57886C45.675 -4.57886 46.0945 -4.99895 46.0945 -5.51697V-4.54998C48.4981 -4.92333 49.8688 -6.32908 51.4196 -7.92174C53.1139 -9.66166 55.0163 -11.6152 58.4614 -11.9174V27.5845C54.218 27.9013 51.8433 30.3387 50.0783 32.1514L50.078 32.1516C48.7099 33.5565 47.7145 34.5778 46.0946 34.9246V35.7364C46.0946 35.2183 45.6751 34.7983 45.1578 34.7983C44.6404 34.7983 44.2209 35.2184 44.2209 35.7364V35.0323C42.1329 34.8669 41.0545 33.7612 39.4873 32.1516C37.5961 30.2094 35.0061 27.5495 30.1671 27.5495C25.3282 27.5495 22.7383 30.2096 20.8471 32.1517C19.2803 33.761 18.2021 34.8668 16.1145 35.0323V35.6427C16.1145 35.1245 15.695 34.7046 15.1777 34.7046C14.6602 34.7046 14.2408 35.1246 14.2408 35.6427V34.9248C12.6208 34.5781 11.6254 33.5568 10.2571 32.1515C8.49191 30.3388 6.11728 27.9013 1.87392 27.5846V5.16917C1.87392 4.65103 1.4544 4.23106 0.937077 4.23106C0.419752 4.23106 0 4.65114 0 5.16917V32.2399C0 32.758 0.419517 33.178 0.936842 33.178C3.40551 33.178 4.52984 34.3326 6.23194 36.0808C8.12306 38.023 10.713 40.6831 15.5519 40.6831C20.3909 40.6831 22.9808 38.023 24.8719 36.0808C26.5739 34.3327 27.6981 33.178 30.1669 33.178C32.6357 33.178 33.7601 34.3328 35.4623 36.0809C37.3535 38.0231 39.9435 40.6831 44.7824 40.6831C49.6215 40.6831 52.2115 38.0231 54.1027 36.0809C55.8048 34.3329 56.9292 33.178 59.398 33.178C59.9154 33.178 60.3348 32.7579 60.3348 32.2399V-12.8955C60.335 -13.4135 59.9154 -13.8336 59.3981 -13.8336ZM58.4612 31.3496C55.8206 31.6289 54.3909 33.0974 52.761 34.7712C50.919 36.6629 48.8314 38.807 44.7824 38.807C40.7335 38.807 38.6458 36.6629 36.8036 34.771C34.9911 32.9094 33.4256 31.3019 30.1668 31.3019C26.9081 31.3019 25.3426 32.9097 23.5302 34.7711C21.6883 36.6629 19.6006 38.807 15.5518 38.807C11.5029 38.807 9.4152 36.6629 7.57322 34.7709C5.9437 33.0974 4.51357 31.629 1.87357 31.3497V29.4658C5.31855 29.768 7.22087 31.7215 8.91531 33.4618C10.7278 35.3231 12.2932 36.9308 15.5518 36.9308C18.8105 36.9308 20.376 35.323 22.1884 33.4615C24.0303 31.5698 26.118 29.4257 30.1668 29.4257C34.2157 29.4257 36.3035 31.5698 38.1454 33.4614C39.958 35.3231 41.5235 36.9308 44.7823 36.9308C48.0411 36.9308 49.6066 35.323 51.4192 33.4617L51.4194 33.4615C53.1136 31.7216 55.0161 29.7681 58.4612 29.4659V31.3496Z" fill="black"/>
<path d="M59.3981 -35.4324C54.5592 -35.4324 51.9691 -32.7725 50.0778 -30.83C48.3758 -29.0821 47.2512 -27.9273 44.7826 -27.9273C42.3137 -27.9273 41.1893 -29.0821 39.4871 -30.8303C37.8518 -32.5097 35.8166 -34.5998 32.3358 -35.2408C31.8268 -35.334 31.3386 -34.9972 31.2449 -34.4878C31.1513 -33.9782 31.488 -33.4892 31.9969 -33.3955C34.8913 -32.8626 36.6201 -31.087 38.1456 -29.5205C39.8509 -27.7692 41.3377 -26.2431 44.2208 -26.0682V-27.1158C44.2208 -26.5977 44.6403 -26.1777 45.1577 -26.1777C45.675 -26.1777 46.0945 -26.5978 46.0945 -27.1158V-26.1488C48.4981 -26.5222 49.8688 -27.9279 51.4196 -29.5206C53.1139 -31.2605 55.0163 -33.214 58.4614 -33.5162V5.98566C54.218 6.3025 51.8433 8.73981 50.0783 10.5525L50.078 10.5528C48.7099 11.9577 47.7145 12.979 46.0946 13.3258V14.1376C46.0946 13.6194 45.6751 13.1995 45.1578 13.1995C44.6404 13.1995 44.2209 13.6196 44.2209 14.1376V13.4334C42.1329 13.2681 41.0545 12.1623 39.4873 10.5528C37.5961 8.6106 35.0061 5.95062 30.1671 5.95062C25.3282 5.95062 22.7383 8.61071 20.8471 10.5529C19.2803 12.1622 18.2021 13.268 16.1145 13.4334V14.0438C16.1145 13.5257 15.695 13.1057 15.1777 13.1057C14.6602 13.1057 14.2408 13.5258 14.2408 14.0438V13.3259C12.6208 12.9792 11.6254 11.9579 10.2571 10.5527C8.49191 8.73992 6.11728 6.3025 1.87392 5.98578V-16.4297C1.87392 -16.9478 1.4544 -17.3678 0.937077 -17.3678C0.419752 -17.3678 0 -16.9477 0 -16.4297V10.641C0 11.1592 0.419517 11.5791 0.936842 11.5791C3.40551 11.5791 4.52984 12.7338 6.23194 14.482C8.12306 16.4241 10.713 19.0842 15.5519 19.0842C20.3909 19.0842 22.9808 16.4241 24.8719 14.482C26.5739 12.7339 27.6981 11.5791 30.1669 11.5791C32.6357 11.5791 33.7601 12.7339 35.4623 14.4821C37.3535 16.4243 39.9435 19.0842 44.7824 19.0842C49.6215 19.0842 52.2115 16.4243 54.1027 14.4821C55.8048 12.734 56.9292 11.5791 59.398 11.5791C59.9154 11.5791 60.3348 11.1591 60.3348 10.641V-34.4943C60.335 -35.0124 59.9154 -35.4324 59.3981 -35.4324ZM58.4612 9.75072C55.8206 10.03 54.3909 11.4985 52.761 13.1724C50.919 15.0641 48.8314 17.2081 44.7824 17.2081C40.7335 17.2081 38.6458 15.0641 36.8036 13.1722C34.9911 11.3106 33.4256 9.70305 30.1668 9.70305C26.9081 9.70305 25.3426 11.3108 23.5302 13.1723C21.6883 15.0641 19.6006 17.2081 15.5518 17.2081C11.5029 17.2081 9.4152 15.0641 7.57322 13.172C5.9437 11.4986 4.51357 10.0301 1.87357 9.75084V7.86695C5.31855 8.16915 7.22087 10.1227 8.91531 11.8629C10.7278 13.7243 12.2932 15.3319 15.5518 15.3319C18.8105 15.3319 20.376 13.7242 22.1884 11.8627C24.0303 9.97091 26.118 7.82683 30.1668 7.82683C34.2157 7.82683 36.3035 9.97091 38.1454 11.8626C39.958 13.7243 41.5235 15.3319 44.7823 15.3319C48.0411 15.3319 49.6066 13.7242 51.4192 11.8628L51.4194 11.8627C53.1136 10.1228 55.0161 8.16927 58.4612 7.86707V9.75072Z" fill="black"/>
</mask>
<g mask="url(#mask0_121_97)">
<rect width="60" height="57" fill="white"/>
</g>
</g>
<defs>
<clipPath id="clip0_121_97">
<rect width="60" height="57" fill="white"/>
</clipPath>
</defs>
</svg>
