<svg width="62" height="62" viewBox="0 0 62 62" fill="none" xmlns="http://www.w3.org/2000/svg">
<path d="M27.8024 32.6605L13.0682 47.5694H1.70312C1.22995 47.5694 0.85 47.9564 0.85 48.4308V52.3834C0.85 52.8578 1.22995 53.2449 1.70312 53.2449H2.80312V55.4745H1.70312C1.22995 55.4745 0.85 55.8615 0.85 56.336V60.2885C0.85 60.763 1.22995 61.15 1.70312 61.15H60.2969C60.7703 61.15 61.15 60.7627 61.15 60.2866V56.334C61.15 55.8595 60.77 55.4725 60.2969 55.4725H59.1969V53.2449H60.2969C60.77 53.2449 61.15 52.8578 61.15 52.3834V48.4308C61.15 47.9564 60.77 47.5694 60.2969 47.5694H48.9337L34.1977 32.6605C36.2908 31.509 37.7145 29.2655 37.7145 26.6917V26.5417H37.5645H36.1562H36.0062V26.6917C36.0062 28.7972 34.7325 30.6068 32.9246 31.3705L31.6047 30.0369L27.8024 32.6605ZM27.8024 32.6605C25.7111 31.509 24.2875 29.2655 24.2875 26.6917C24.2875 23.2412 26.8456 20.3808 30.1469 19.9557V1V0.85H30.2969H31.7031H31.8531V1V20.7628C31.8531 21.2373 31.4732 21.6243 31 21.6243C28.2408 21.6243 25.9937 23.8973 25.9937 26.6917C25.9937 28.7972 27.2693 30.6068 29.0773 31.3705L30.3972 30.0369L27.8024 32.6605ZM31.6047 30.0368C31.2706 29.6988 30.7314 29.6988 30.3973 30.0368H31.6047ZM59.4437 57.1974V59.4271H2.55625V57.1974H59.4437ZM57.4906 53.2449V55.4745H4.50937V53.2449H57.4906ZM58.3437 51.5219L2.55625 51.52V49.2923H59.4437V51.5219H58.3437ZM46.5217 47.5694H15.4783L29.5576 33.325C30.4883 33.5324 31.5117 33.5324 32.4424 33.325L46.5217 47.5694Z" fill="url(#paint0_linear_99_1240)"/>
<path d="M27.8024 32.6605L13.0682 47.5694H1.70312C1.22995 47.5694 0.85 47.9564 0.85 48.4308V52.3834C0.85 52.8578 1.22995 53.2449 1.70312 53.2449H2.80312V55.4745H1.70312C1.22995 55.4745 0.85 55.8615 0.85 56.336V60.2885C0.85 60.763 1.22995 61.15 1.70312 61.15H60.2969C60.7703 61.15 61.15 60.7627 61.15 60.2866V56.334C61.15 55.8595 60.77 55.4725 60.2969 55.4725H59.1969V53.2449H60.2969C60.77 53.2449 61.15 52.8578 61.15 52.3834V48.4308C61.15 47.9564 60.77 47.5694 60.2969 47.5694H48.9337L34.1977 32.6605C36.2908 31.509 37.7145 29.2655 37.7145 26.6917V26.5417H37.5645H36.1562H36.0062V26.6917C36.0062 28.7972 34.7325 30.6068 32.9246 31.3705L31.6047 30.0369L27.8024 32.6605ZM27.8024 32.6605C25.7111 31.509 24.2875 29.2655 24.2875 26.6917C24.2875 23.2412 26.8456 20.3808 30.1469 19.9557V1V0.85H30.2969H31.7031H31.8531V1V20.7628C31.8531 21.2373 31.4732 21.6243 31 21.6243C28.2408 21.6243 25.9937 23.8973 25.9937 26.6917C25.9937 28.7972 27.2693 30.6068 29.0773 31.3705L30.3972 30.0369L27.8024 32.6605ZM31.6047 30.0368C31.2706 29.6988 30.7314 29.6988 30.3973 30.0368H31.6047ZM59.4437 57.1974V59.4271H2.55625V57.1974H59.4437ZM57.4906 53.2449V55.4745H4.50937V53.2449H57.4906ZM58.3437 51.5219L2.55625 51.52V49.2923H59.4437V51.5219H58.3437ZM46.5217 47.5694H15.4783L29.5576 33.325C30.4883 33.5324 31.5117 33.5324 32.4424 33.325L46.5217 47.5694Z" fill="white"/>
<path d="M27.8024 32.6605L13.0682 47.5694H1.70312C1.22995 47.5694 0.85 47.9564 0.85 48.4308V52.3834C0.85 52.8578 1.22995 53.2449 1.70312 53.2449H2.80312V55.4745H1.70312C1.22995 55.4745 0.85 55.8615 0.85 56.336V60.2885C0.85 60.763 1.22995 61.15 1.70312 61.15H60.2969C60.7703 61.15 61.15 60.7627 61.15 60.2866V56.334C61.15 55.8595 60.77 55.4725 60.2969 55.4725H59.1969V53.2449H60.2969C60.77 53.2449 61.15 52.8578 61.15 52.3834V48.4308C61.15 47.9564 60.77 47.5694 60.2969 47.5694H48.9337L34.1977 32.6605C36.2908 31.509 37.7145 29.2655 37.7145 26.6917V26.5417H37.5645H36.1562H36.0062V26.6917C36.0062 28.7972 34.7325 30.6068 32.9246 31.3705L31.6047 30.0369L27.8024 32.6605ZM27.8024 32.6605C25.7111 31.509 24.2875 29.2655 24.2875 26.6917C24.2875 23.2412 26.8456 20.3808 30.1469 19.9557V1V0.85H30.2969H31.7031H31.8531V1V20.7628C31.8531 21.2373 31.4732 21.6243 31 21.6243C28.2408 21.6243 25.9937 23.8973 25.9937 26.6917C25.9937 28.7972 27.2693 30.6068 29.0773 31.3705L30.3972 30.0369L27.8024 32.6605ZM31.6047 30.0368C31.2706 29.6988 30.7314 29.6988 30.3973 30.0368H31.6047ZM59.4437 57.1974V59.4271H2.55625V57.1974H59.4437ZM57.4906 53.2449V55.4745H4.50937V53.2449H57.4906ZM58.3437 51.5219L2.55625 51.52V49.2923H59.4437V51.5219H58.3437ZM46.5217 47.5694H15.4783L29.5576 33.325C30.4883 33.5324 31.5117 33.5324 32.4424 33.325L46.5217 47.5694Z" stroke="url(#paint1_linear_99_1240)" stroke-width="0.3"/>
<defs>
<linearGradient id="paint0_linear_99_1240" x1="3.73913" y1="42.5789" x2="57.6087" y2="42.5789" gradientUnits="userSpaceOnUse">
<stop stop-color="#FF9B56"/>
<stop offset="0.958333" stop-color="#E95F00"/>
</linearGradient>
<linearGradient id="paint1_linear_99_1240" x1="3.73913" y1="42.5789" x2="57.6087" y2="42.5789" gradientUnits="userSpaceOnUse">
<stop stop-color="#FF9B56"/>
<stop offset="0.958333" stop-color="#E95F00"/>
</linearGradient>
</defs>
</svg>
