<svg width="64" height="64" viewBox="0 0 64 64" fill="none" xmlns="http://www.w3.org/2000/svg">
<path d="M23.0889 4.47114L6.8967 17.0884C4.193 19.1913 2 23.6674 2 27.0622V49.3227C2 56.2922 7.67777 62 14.6473 62H49.4349C56.4045 62 62.0822 56.2922 62.0822 49.3527V27.4828C62.0822 23.8477 59.6489 19.1913 56.6748 17.1184L38.1094 4.11064C33.9037 1.16661 27.1444 1.31682 23.0889 4.47114Z" stroke="white" stroke-width="3.14403" stroke-linecap="round" stroke-linejoin="round"/>
<path d="M37.0972 37.4173V22.58C37.0866 21.2473 36.5584 19.9708 35.6241 19.0202C35.1135 18.5142 34.5 18.1239 33.8253 17.8758C33.1506 17.6277 32.4304 17.5276 31.7136 17.5823C30.416 17.7093 29.2143 18.322 28.3493 19.2976C27.4843 20.2732 27.0198 21.5396 27.049 22.8431L27.0666 37.3629C25.7826 38.3273 24.8044 39.6418 24.2495 41.1487C23.6946 42.6555 23.5866 44.2906 23.9385 45.8573C24.2904 47.4241 25.0871 48.8559 26.2331 49.9807C27.379 51.1056 28.8254 51.8757 30.3984 52.1984C30.9476 52.303 31.5053 52.3559 32.0643 52.3562C34.2752 52.3567 36.396 51.4798 37.961 49.9181C39.526 48.3564 40.4073 46.2375 40.4115 44.0266C40.4141 42.7425 40.1156 41.4757 39.54 40.3279C38.9645 39.1801 38.1278 38.1832 37.0972 37.4173ZM36.2554 49.0963C35.4938 49.7198 34.603 50.166 33.6476 50.4025C32.6922 50.6391 31.6961 50.6601 30.7316 50.4641C29.4515 50.2091 28.278 49.574 27.3645 48.6418C26.451 47.7095 25.8399 46.5234 25.6111 45.2383C25.3831 44.0332 25.4972 42.7883 25.9404 41.6447C26.3836 40.501 27.1382 39.5043 28.1187 38.7675C28.33 38.6113 28.5019 38.4078 28.6206 38.1734C28.7394 37.939 28.8017 37.68 28.8026 37.4173V22.8431C28.7824 21.9861 29.0819 21.1523 29.6427 20.504C30.2034 19.8557 30.9854 19.4393 31.8364 19.3359C31.9173 19.3213 31.9996 19.3154 32.0819 19.3183C32.9444 19.3266 33.7692 19.6728 34.3791 20.2828C34.9891 20.8927 35.3353 21.7175 35.3436 22.58V37.4173C35.3445 37.68 35.4068 37.939 35.5256 38.1734C35.6443 38.4078 35.8162 38.6113 36.0275 38.7675C36.8244 39.364 37.4752 40.1339 37.9306 41.019C38.3861 41.9041 38.6341 42.8812 38.6561 43.8764C38.6781 44.8716 38.4733 45.8587 38.0574 46.763C37.6415 47.6674 37.0253 48.4653 36.2554 49.0963Z" fill="white"/>
<path d="M35.3963 44.0266C35.3963 44.9056 35.0471 45.7486 34.4255 46.3701C33.804 46.9917 32.961 47.3409 32.082 47.3409C31.2029 47.3409 30.3599 46.9917 29.7384 46.3701C29.1168 45.7486 28.7676 44.9056 28.7676 44.0266C28.763 43.3018 29.0002 42.5961 29.4417 42.0212C29.8831 41.4464 30.5037 41.0351 31.2052 40.8526V29.1563C31.2052 28.9238 31.2975 28.7008 31.462 28.5363C31.6264 28.3719 31.8494 28.2795 32.082 28.2795C32.3145 28.2795 32.5375 28.3719 32.7019 28.5363C32.8664 28.7008 32.9588 28.9238 32.9588 29.1563V40.8543C33.6583 41.0398 34.2767 41.4516 34.7177 42.0254C35.1586 42.5992 35.3972 43.3029 35.3963 44.0266Z" fill="white"/>
</svg>
