<svg width="58" height="60" viewBox="0 0 58 60" fill="none" xmlns="http://www.w3.org/2000/svg">
<path d="M28.855 11.1668C25.135 11.1668 21.4986 12.2703 18.4055 14.3379C15.3125 16.4054 12.9018 19.3441 11.4782 22.7824C10.0546 26.2206 9.68214 30.0039 10.4079 33.6539C11.1336 37.304 12.9249 40.6567 15.5554 43.2882C18.1858 45.9197 21.5371 47.7118 25.1856 48.4378C28.8341 49.1639 32.6159 48.7912 36.0527 47.3671C39.4895 45.9429 42.4269 43.5312 44.4936 40.4368C46.5604 37.3425 47.6635 33.7046 47.6635 29.9831C47.6576 24.9945 45.6741 20.2119 42.1481 16.6844C38.6221 13.1569 33.8415 11.1726 28.855 11.1668ZM28.855 46.1145C25.6665 46.1145 22.5496 45.1686 19.8984 43.3965C17.2472 41.6244 15.1808 39.1056 13.9605 36.1587C12.7402 33.2117 12.4207 29.9689 13.0426 26.8403C13.6644 23.7117 15.1996 20.8379 17.454 18.5821C19.7085 16.3264 22.5809 14.7901 25.708 14.1674C28.8352 13.5448 32.0767 13.8638 35.0226 15.0841C37.9686 16.3044 40.4867 18.3712 42.2585 21.0232C44.0304 23.6752 44.9764 26.7932 44.9769 29.9831C44.9718 34.2591 43.2716 38.3585 40.2492 41.3821C37.2269 44.4057 33.1292 46.1094 28.855 46.1145ZM36.1909 23.4539L38.1511 25.4149L27.4687 36.1045L22.3285 30.9649L24.2887 29.004L27.4687 32.1826L36.1909 23.4539ZM54.797 31.5252C54.4793 31.0556 54.3094 30.5016 54.3094 29.9345C54.3094 29.3675 54.4793 28.8134 54.797 28.3439L56.7295 25.5286C57.2139 24.8229 57.5297 24.0151 57.6523 23.1678C57.775 22.3205 57.7012 21.4563 57.4367 20.6421C57.1721 19.8279 56.724 19.0854 56.1269 18.4721C55.5298 17.8588 54.7997 17.3911 53.993 17.1051L50.7769 15.9624C50.2439 15.7706 49.781 15.4228 49.4482 14.9643C49.1154 14.5057 48.9283 13.9576 48.9111 13.3912L48.8168 9.97964C48.7936 9.12415 48.5741 8.28543 48.1755 7.52823C47.7768 6.77103 47.2096 6.11559 46.5175 5.61249C45.8255 5.1094 45.0272 4.7721 44.1842 4.62664C43.3412 4.48118 42.476 4.53144 41.6555 4.77354L38.384 5.73876C37.84 5.89832 37.2605 5.88996 36.7214 5.71479C36.1822 5.53961 35.7084 5.20577 35.362 4.7569L33.2826 2.04984C32.7373 1.40737 32.0589 0.891261 31.2943 0.5373C30.5298 0.183339 29.6974 0 28.855 0C28.0125 0 27.1801 0.183339 26.4156 0.5373C25.651 0.891261 24.9726 1.40737 24.4273 2.04984L22.348 4.7569C22.0003 5.20426 21.5264 5.53698 20.9876 5.71202C20.4489 5.88706 19.8701 5.89638 19.326 5.73876L16.0544 4.77354C15.2341 4.53149 14.3692 4.48118 13.5264 4.62649C12.6836 4.7718 11.8854 5.10885 11.1934 5.61164C10.5015 6.11442 9.93418 6.76951 9.53534 7.52636C9.13651 8.28322 8.91678 9.12161 8.89312 9.97687L8.79885 13.3968C8.7811 13.9627 8.59369 14.5102 8.26096 14.9682C7.92823 15.4262 7.46554 15.7735 6.93298 15.9651L3.7169 17.1079C2.91026 17.3938 2.18015 17.8615 1.58303 18.4749C0.985912 19.0882 0.537774 19.8306 0.273267 20.6449C0.00875859 21.4591 -0.0650343 22.3233 0.0575927 23.1706C0.18022 24.0179 0.495982 24.8256 0.980467 25.5314L2.91288 28.3466C3.23005 28.8159 3.39955 29.3694 3.39955 29.9359C3.39955 30.5024 3.23005 31.0559 2.91288 31.5252L0.980467 34.3432C0.496519 35.0487 0.181194 35.856 0.0588632 36.7028C-0.0634671 37.5496 0.0104734 38.4132 0.27497 39.2269C0.539467 40.0405 0.987435 40.7824 1.58425 41.3953C2.18107 42.0081 2.91075 42.4755 3.7169 42.7612L6.93298 43.9067C7.46873 44.0941 7.93449 44.4408 8.26794 44.9003C8.60139 45.3598 8.78662 45.9102 8.79885 46.4779L8.89312 49.8894C8.91582 50.7451 9.13488 51.5841 9.53338 52.3416C9.93188 53.0991 10.4991 53.7548 11.1913 54.258C11.8835 54.7612 12.6821 55.0985 13.5253 55.2437C14.3686 55.3889 15.2339 55.3382 16.0544 55.0955L19.326 54.1303C19.87 53.9723 20.449 53.9814 20.9878 54.1565C21.5267 54.3316 22.0005 54.6645 22.348 55.1122L24.4273 57.8192C24.9491 58.4977 25.6197 59.0471 26.3874 59.4253C27.1551 59.8034 27.9993 60 28.855 60C29.7106 60 30.5549 59.8034 31.3225 59.4253C32.0902 59.0471 32.7608 58.4977 33.2826 57.8192L35.362 55.1122C35.7106 54.666 36.1846 54.3342 36.723 54.1592C37.2614 53.9843 37.8398 53.9742 38.384 54.1303L41.6555 55.0955C42.4758 55.3376 43.3407 55.3879 44.1835 55.2426C45.0263 55.0973 45.8245 54.7602 46.5165 54.2574C47.2085 53.7546 47.7757 53.0996 48.1746 52.3427C48.5734 51.5858 48.7931 50.7474 48.8168 49.8922L48.9111 46.4779C48.9233 45.9102 49.1085 45.3598 49.442 44.9003C49.7754 44.4408 50.2412 44.0941 50.7769 43.9067L53.993 42.7612C54.7992 42.4755 55.5289 42.0081 56.1257 41.3953C56.7225 40.7824 57.1705 40.0405 57.435 39.2269C57.6994 38.4132 57.7734 37.5496 57.6511 36.7028C57.5287 35.856 57.2134 35.0487 56.7295 34.3432L54.797 31.5252ZM54.797 38.365C54.663 38.7739 54.4375 39.1468 54.1377 39.4553C53.838 39.7639 53.4718 40 53.067 40.1456L49.8509 41.2884C48.791 41.6696 47.8702 42.3609 47.2081 43.2725C46.5461 44.1841 46.1734 45.2739 46.1386 46.4002L46.0443 49.8118C46.0331 50.2425 45.923 50.6649 45.7225 51.0463C45.522 51.4277 45.2365 51.7579 44.8881 52.0112C44.5397 52.2646 44.1377 52.4344 43.7132 52.5075C43.2887 52.5806 42.8531 52.5551 42.4401 52.4328L39.1686 51.4676C38.0872 51.1542 36.9368 51.1728 35.8661 51.5209C34.7955 51.8691 33.8539 52.5307 33.1634 53.4202L31.084 56.1245C30.8094 56.4479 30.4679 56.7076 30.083 56.8857C29.6981 57.0638 29.279 57.1561 28.855 57.1561C28.4309 57.1561 28.0119 57.0638 27.627 56.8857C27.2421 56.7076 26.9005 56.4479 26.6259 56.1245L24.5465 53.4202C24.0214 52.7423 23.3481 52.1936 22.5782 51.8162C21.8084 51.4388 20.9623 51.2427 20.105 51.2429C19.5759 51.2415 19.0492 51.3162 18.5413 51.4648L15.2698 52.4356C14.8566 52.5579 14.4207 52.5834 13.996 52.5101C13.5713 52.4369 13.1692 52.2668 12.8207 52.0131C12.4723 51.7595 12.1868 51.429 11.9865 51.0472C11.7862 50.6655 11.6764 50.2428 11.6656 49.8118L11.5713 46.4002C11.5363 45.2736 11.1632 44.1836 10.5007 43.2719C9.8381 42.3603 8.91668 41.6691 7.85621 41.2884L4.64014 40.1456C4.23509 40.0007 3.86869 39.7648 3.56914 39.4559C3.26958 39.1471 3.04487 38.7736 2.9123 38.3642C2.77973 37.9548 2.74284 37.5204 2.80446 37.0945C2.86609 36.6686 3.02459 36.2625 3.26776 35.9075L5.19741 33.0923C5.8302 32.1604 6.16853 31.0598 6.16853 29.9331C6.16853 28.8065 5.8302 27.7059 5.19741 26.774L3.26499 23.9587C3.02193 23.6034 2.86367 23.197 2.8024 22.7708C2.74114 22.3446 2.77852 21.91 2.91164 21.5005C3.04477 21.0911 3.2701 20.7176 3.57026 20.4091C3.87042 20.1005 4.2374 19.8649 4.64291 19.7206L7.85898 18.5779C8.91893 18.1967 9.83976 17.5054 10.5018 16.5938C11.1639 15.6821 11.5365 14.5924 11.5713 13.4661L11.6656 10.0545C11.6778 9.62398 11.7884 9.20194 11.9888 8.8207C12.1892 8.43947 12.4741 8.10916 12.8217 7.85504C13.1717 7.60486 13.5736 7.43699 13.9975 7.36399C14.4215 7.29099 14.8564 7.31473 15.2698 7.43345L18.5413 8.39868C19.6222 8.71507 20.7734 8.69827 21.8446 8.35045C22.9158 8.00263 23.8574 7.33994 24.5465 6.44881L26.6259 3.74175C26.9005 3.41843 27.2421 3.1587 27.627 2.98058C28.0119 2.80246 28.4309 2.7102 28.855 2.7102C29.279 2.7102 29.6981 2.80246 30.083 2.98058C30.4679 3.1587 30.8094 3.41843 31.084 3.74175L33.1634 6.44881C33.8535 7.33874 34.7952 8.00052 35.8661 8.34823C36.9369 8.69595 38.0876 8.71352 39.1686 8.39868L42.4401 7.43345C42.8529 7.31127 43.2883 7.28567 43.7126 7.35863C44.1369 7.43159 44.5387 7.60115 44.8871 7.85421C45.2354 8.10727 45.521 8.43706 45.7216 8.8181C45.9223 9.19914 46.0327 9.62123 46.0443 10.0518L46.1386 13.4633C46.1731 14.5904 46.5459 15.681 47.2085 16.5932C47.8711 17.5054 48.7928 18.197 49.8537 18.5779L53.0698 19.7206C53.4748 19.8655 53.8412 20.1015 54.1408 20.4104C54.4403 20.7192 54.6651 21.0927 54.7976 21.5021C54.9302 21.9115 54.9671 22.3459 54.9055 22.7718C54.8438 23.1977 54.6853 23.6038 54.4422 23.9587L52.5125 26.774C51.8797 27.7059 51.5414 28.8065 51.5414 29.9331C51.5414 31.0598 51.8797 32.1604 52.5125 33.0923L54.4422 35.9075C54.6846 36.263 54.8426 36.6692 54.9041 37.0951C54.9656 37.5211 54.929 37.9554 54.797 38.365Z" fill="white"/>
</svg>
