<svg width="63" height="61" viewBox="0 0 63 61" fill="none" xmlns="http://www.w3.org/2000/svg">
<path d="M12.46 41.0003C-2.91137 41.0003 -2.75867 17.2578 12.5516 15.9989C15.3595 5.27631 23.8205 0.590248 31.9524 1.02798C35.1939 1.17543 38.3395 2.17317 41.0733 3.92099C43.8072 5.66881 46.033 8.10518 47.5274 10.9854C66.6194 14.2667 64.6598 41.0003 47.5274 41.0003H12.46Z" stroke="white" stroke-width="2" stroke-linecap="round" stroke-linejoin="round"/>
<path d="M19.9116 46.5041C20.6144 46.5041 21.1841 45.9344 21.1841 45.2316C21.1841 44.5289 20.6144 43.9592 19.9116 43.9592C19.2089 43.9592 18.6392 44.5289 18.6392 45.2316C18.6392 45.9344 19.2089 46.5041 19.9116 46.5041Z" fill="white"/>
<path d="M38.5303 56.6431C39.233 56.6431 39.8027 56.0734 39.8027 55.3706C39.8027 54.6679 39.233 54.0982 38.5303 54.0982C37.8275 54.0982 37.2578 54.6679 37.2578 55.3706C37.2578 56.0734 37.8275 56.6431 38.5303 56.6431Z" fill="white"/>
<path d="M42.0325 48.3449C42.7352 48.3449 43.3049 47.7752 43.3049 47.0725C43.3049 46.3697 42.7352 45.8 42.0325 45.8C41.3297 45.8 40.76 46.3697 40.76 47.0725C40.76 47.7752 41.3297 48.3449 42.0325 48.3449Z" fill="white"/>
<path d="M29.189 51.0731C29.8917 51.0731 30.4614 50.5034 30.4614 49.8006C30.4614 49.0979 29.8917 48.5282 29.189 48.5282C28.4862 48.5282 27.9165 49.0979 27.9165 49.8006C27.9165 50.5034 28.4862 51.0731 29.189 51.0731Z" fill="white"/>
<path d="M34.6826 46.5041C35.3854 46.5041 35.9551 45.9344 35.9551 45.2316C35.9551 44.5289 35.3854 43.9592 34.6826 43.9592C33.9799 43.9592 33.4102 44.5289 33.4102 45.2316C33.4102 45.9344 33.9799 46.5041 34.6826 46.5041Z" fill="white"/>
<path d="M10.5869 48.5282C11.2897 48.5282 11.8594 47.9585 11.8594 47.2557C11.8594 46.5529 11.2897 45.9832 10.5869 45.9832C9.88415 45.9832 9.31445 46.5529 9.31445 47.2557C9.31445 47.9585 9.88415 48.5282 10.5869 48.5282Z" fill="white"/>
<path d="M20.6599 53.3958C21.3627 53.3958 21.9324 52.8261 21.9324 52.1233C21.9324 51.4205 21.3627 50.8508 20.6599 50.8508C19.9572 50.8508 19.3875 51.4205 19.3875 52.1233C19.3875 52.8261 19.9572 53.3958 20.6599 53.3958Z" fill="white"/>
<path d="M54.1768 47.1607C54.8795 47.1607 55.4492 46.591 55.4492 45.8882C55.4492 45.1855 54.8795 44.6158 54.1768 44.6158C53.474 44.6158 52.9043 45.1855 52.9043 45.8882C52.9043 46.591 53.474 47.1607 54.1768 47.1607Z" fill="white"/>
<path d="M48.8152 59.7275C49.5179 59.7275 50.0877 59.1578 50.0877 58.4551C50.0877 57.7523 49.5179 57.1826 48.8152 57.1826C48.1124 57.1826 47.5427 57.7523 47.5427 58.4551C47.5427 59.1578 48.1124 59.7275 48.8152 59.7275Z" fill="white"/>
<path d="M48.0857 52.047C48.7885 52.047 49.3582 51.4773 49.3582 50.7745C49.3582 50.0717 48.7885 49.502 48.0857 49.502C47.3829 49.502 46.8132 50.0717 46.8132 50.7745C46.8132 51.4773 47.3829 52.047 48.0857 52.047Z" fill="white"/>
<path d="M14.2603 61C14.963 61 15.5327 60.4303 15.5327 59.7275C15.5327 59.0248 14.963 58.4551 14.2603 58.4551C13.5575 58.4551 12.9878 59.0248 12.9878 59.7275C12.9878 60.4303 13.5575 61 14.2603 61Z" fill="white"/>
</svg>
