<svg width="54" height="60" viewBox="0 0 54 60" fill="none" xmlns="http://www.w3.org/2000/svg">
<path d="M40.586 17.8659L43.0098 12.2164C44.1749 9.50098 43.8995 6.40711 42.2734 3.93996C40.6473 1.47281 37.9126 0 34.9579 0H18.8102C15.8555 0 13.1207 1.47281 11.4947 3.93984C9.86859 6.40699 9.5932 9.50098 10.7583 12.2163L13.1823 17.8664C5.02395 22.7033 0 31.4693 0 41.0006C0 47.9835 2.66555 54.6007 7.50574 59.6333C7.73121 59.8676 8.04211 60 8.3673 60H45.4009C45.726 60 46.037 59.8676 46.2625 59.6333C51.1027 54.6006 53.7682 47.9834 53.7682 41.0006C53.7681 31.4811 48.7409 22.7025 40.586 17.8659ZM12.955 11.2739C12.1078 9.2993 12.308 7.04941 13.4905 5.25539C14.6729 3.46148 16.6617 2.39039 18.8102 2.39039H34.9579C37.1065 2.39039 39.0952 3.46148 40.2776 5.25539C41.4602 7.04941 41.6603 9.2993 40.8131 11.2738L35.7414 23.0952C35.6287 23.3577 35.3713 23.5273 35.0858 23.5273C34.99 23.5273 34.8957 23.5077 34.8059 23.469C34.4448 23.3141 34.2771 22.8943 34.432 22.5335L39.5037 10.7121C40.1713 9.15633 40.0198 7.45324 39.088 6.03926C38.1562 4.62574 36.6507 3.81504 34.9579 3.81504H18.8102C17.1173 3.81504 15.6118 4.62574 14.68 6.03937C13.7483 7.45324 13.5967 9.15621 14.2644 10.712L19.3361 22.5334C19.491 22.8945 19.3233 23.3141 18.9625 23.469C18.6014 23.6237 18.1816 23.4563 18.0268 23.0953L12.955 11.2739ZM26.884 14.1166C24.1391 14.1166 21.4417 14.5281 18.8504 15.3389L16.4611 9.76969C16.1111 8.95395 16.1873 8.09637 16.6758 7.35516C17.1645 6.61395 17.9225 6.20566 18.8102 6.20566H34.9579C35.8457 6.20566 36.6036 6.61395 37.0922 7.35492C37.5806 8.09637 37.657 8.95383 37.3069 9.76969L34.9174 15.3393C32.3259 14.5284 29.6282 14.1166 26.884 14.1166ZM44.885 57.6096H8.88305C4.69207 53.0722 2.39039 47.1943 2.39039 41.0007C2.39039 32.4216 6.85793 24.5225 14.1332 20.0834L15.8298 24.038C16.5042 25.6099 18.332 26.3406 19.9048 25.6662C21.4768 24.9916 22.2074 23.1636 21.5327 21.5913L19.7982 17.5485C22.0866 16.8578 24.4645 16.5071 26.8839 16.5071C29.3026 16.5071 31.6813 16.857 33.9697 17.5475L32.2349 21.5913C31.5605 23.1635 32.2909 24.9915 33.863 25.6661C34.2525 25.8332 34.6637 25.9179 35.0856 25.9179H35.0857C36.3282 25.9178 37.448 25.1798 37.9378 24.038L39.6343 20.0836C46.9066 24.5229 51.3773 32.4323 51.3773 41.0007C51.3777 47.1943 49.0759 53.0721 44.885 57.6096Z" fill="white"/>
</svg>
