<svg width="53" height="60" viewBox="0 0 53 60" fill="none" xmlns="http://www.w3.org/2000/svg">
<path d="M46.387 15.9993C50.6548 20.8302 53.0068 27.0562 52.9988 33.5023C52.9962 40.5291 50.2036 47.2673 45.2349 52.236C40.2662 57.2048 33.5279 59.9973 26.5011 60C19.474 59.9973 12.7354 57.2049 7.76612 52.2363C2.79688 47.2676 0.00355798 40.5294 0 33.5023C0 19.4429 10.9784 7.92415 24.823 7.05823V3.35627H19.4966C17.3318 3.35627 17.3385 0 19.4966 0H33.5056C35.6704 0 35.6671 3.35627 33.5056 3.35627H28.1792V7.05823C34.0408 7.42405 39.6131 9.7342 44.0141 13.6231L47.8235 9.81708C48.1419 9.50968 48.5673 9.33788 49.0099 9.33788C49.4525 9.33788 49.8779 9.50968 50.1963 9.81708C50.8642 10.4313 50.8173 11.5691 50.1963 12.19L46.387 15.9993ZM49.6426 33.5023C49.6399 27.3656 47.2009 21.481 42.8616 17.1417C38.5223 12.8024 32.6378 10.3635 26.5011 10.3608C20.3644 10.3644 14.48 12.8035 10.1403 17.1425C5.80071 21.4815 3.36071 27.3656 3.35627 33.5023C3.35894 39.6395 5.79837 45.5246 10.1384 49.864C14.4784 54.2034 20.3638 56.642 26.5011 56.6437C32.6378 56.6411 38.5223 54.2021 42.8616 49.8628C47.2009 45.5235 49.6399 39.6389 49.6426 33.5023ZM28.1792 33.5056C28.1792 35.6704 24.823 35.6637 24.823 33.5056V17.7177C24.823 15.5563 28.1792 15.5597 28.1792 17.7177V33.5056Z" fill="white"/>
</svg>
