<svg width="61" height="60" viewBox="0 0 61 60" fill="none" xmlns="http://www.w3.org/2000/svg">
<path d="M35.1791 2.92621C34.6705 2.0372 33.9361 1.29835 33.0501 0.784493C32.1641 0.270632 31.1581 0 30.1339 0C29.1097 0 28.1036 0.270632 27.2177 0.784493C26.3317 1.29835 25.5972 2.0372 25.0887 2.92621L18.4857 14.4737C18.2303 14.9202 18.1628 15.4499 18.2979 15.9462C18.4331 16.4426 18.7599 16.8649 19.2064 17.1203C19.653 17.3757 20.1827 17.4432 20.679 17.308C21.1753 17.1729 21.5977 16.8461 21.853 16.3995L28.4521 4.8482C28.6217 4.55186 28.8665 4.30558 29.1618 4.1343C29.4571 3.96301 29.7925 3.8728 30.1339 3.8728C30.4753 3.8728 30.8106 3.96301 31.1059 4.1343C31.4013 4.30558 31.6461 4.55186 31.8156 4.8482L41.6581 22.0686L36.7911 20.7628C36.2947 20.6292 35.7656 20.6982 35.3201 20.9547C34.8747 21.2113 34.5493 21.6342 34.4157 22.1306C34.2821 22.627 34.3512 23.1561 34.6077 23.6016C34.8642 24.0471 35.2872 24.3724 35.7836 24.506L45.1417 27.0131C45.3875 27.0794 45.6439 27.0965 45.8963 27.0636C46.1488 27.0307 46.3922 26.9484 46.6128 26.8214C46.8334 26.6944 47.0268 26.5251 47.182 26.3233C47.3371 26.1215 47.451 25.8911 47.5171 25.6452L50.0242 16.2872C50.0901 16.0414 50.1069 15.785 50.0737 15.5327C50.0406 15.2804 49.958 15.0371 49.8308 14.8167C49.7036 14.5964 49.5343 14.4032 49.3324 14.2482C49.1305 14.0933 48.9002 13.9796 48.6544 13.9137C48.4086 13.8478 48.1522 13.831 47.8999 13.8642C47.6476 13.8973 47.4044 13.9799 47.184 14.1071C46.9636 14.2343 46.7704 14.4036 46.6154 14.6055C46.4605 14.8074 46.3468 15.0378 46.2809 15.2835L44.9906 20.0963L35.1791 2.92621ZM10.6543 28.1795L5.79123 29.4854C5.29484 29.619 4.76572 29.5499 4.32025 29.2934C3.87478 29.0368 3.54946 28.6139 3.41586 28.1175C3.28226 27.6211 3.35132 27.092 3.60784 26.6465C3.86437 26.201 4.28735 25.8757 4.78373 25.7421L14.1457 23.235C14.6415 23.1024 15.1698 23.1719 15.6144 23.4284C16.059 23.6848 16.3837 24.1072 16.5172 24.6029L19.0243 33.961C19.1574 34.4573 19.0878 34.9863 18.8309 35.4314C18.5741 35.8765 18.1509 36.2013 17.6545 36.3344C17.1581 36.4675 16.6292 36.3979 16.1841 36.141C15.739 35.8842 15.4142 35.461 15.2811 34.9646L13.9907 30.1518L4.12886 47.411C3.96057 47.7056 3.8726 48.0393 3.87375 48.3786C3.87489 48.7179 3.96512 49.0509 4.13539 49.3444C4.30567 49.6378 4.55002 49.8815 4.84401 50.0508C5.138 50.2202 5.47131 50.3094 5.8106 50.3095H18.5089C19.0228 50.3095 19.5156 50.5136 19.8789 50.877C20.2423 51.2403 20.4464 51.7332 20.4464 52.247C20.4464 52.7609 20.2423 53.2537 19.8789 53.617C19.5156 53.9804 19.0228 54.1845 18.5089 54.1845H5.8106C4.79273 54.1842 3.79279 53.9166 2.91083 53.4084C2.02886 52.9003 1.2958 52.1695 0.78497 51.2891C0.274145 50.4087 0.0034724 49.4095 3.31884e-05 48.3917C-0.00340603 47.3738 0.260508 46.3729 0.765373 45.489L10.6543 28.1795ZM52.8529 33.8486C52.7301 33.6214 52.5631 33.421 52.3617 33.2592C52.1603 33.0975 51.9287 32.9776 51.6803 32.9067C51.4319 32.8358 51.1719 32.8153 50.9155 32.8463C50.659 32.8774 50.4114 32.9594 50.1872 33.0876C49.9629 33.2157 49.7665 33.3874 49.6096 33.5926C49.4526 33.7977 49.3383 34.0322 49.2733 34.2821C49.2083 34.5321 49.1939 34.7926 49.231 35.0482C49.2682 35.3038 49.356 35.5494 49.4894 35.7706L56.1389 47.411C56.3072 47.7056 56.3952 48.0393 56.394 48.3786C56.3929 48.7179 56.3026 49.0509 56.1324 49.3444C55.9621 49.6378 55.7177 49.8815 55.4237 50.0508C55.1298 50.2202 54.7964 50.3094 54.4572 50.3095H32.8735L35.3806 47.8063C35.7439 47.4425 35.9478 46.9492 35.9474 46.4351C35.9471 45.921 35.7425 45.428 35.3787 45.0647C35.1985 44.8848 34.9847 44.7422 34.7495 44.6449C34.5142 44.5477 34.2621 44.4977 34.0075 44.4979C33.4934 44.4983 33.0004 44.7029 32.6371 45.0667L26.8246 50.8791C26.6439 51.0585 26.5004 51.2719 26.4025 51.507C26.3046 51.7421 26.2541 51.9943 26.2541 52.249C26.2541 52.5036 26.3046 52.7558 26.4025 52.9909C26.5004 53.226 26.6439 53.4394 26.8246 53.6188L32.6371 59.4312C33.0004 59.795 33.4934 59.9996 34.0075 60C34.2621 60.0002 34.5142 59.9502 34.7495 59.853C34.9847 59.7557 35.1985 59.6131 35.3787 59.4332C35.5588 59.2533 35.7018 59.0397 35.7993 58.8045C35.8969 58.5694 35.9473 58.3174 35.9474 58.0628C35.9476 57.8082 35.8976 57.5561 35.8004 57.3208C35.7031 57.0856 35.5605 56.8718 35.3806 56.6916L32.8735 54.1845H54.4572C55.475 54.1842 56.475 53.9166 57.3569 53.4084C58.2389 52.9003 58.972 52.1695 59.4828 51.2891C59.9936 50.4087 60.2643 49.4095 60.2677 48.3917C60.2712 47.3738 60.0073 46.3729 59.5024 45.489L52.8529 33.8486Z" fill="white"/>
</svg>
