<svg width="54" height="60" viewBox="0 0 54 60" fill="none" xmlns="http://www.w3.org/2000/svg">
<path d="M20 22.3333H19V23.3333V53.3333V54.3333H20H33.3333H34.3333V53.3333V23.3333V22.3333H33.3333H20ZM40 22.3333H39V23.3333V33.3333V34.3333H40H46.6667H47.6667V33.3333V23.3333V22.3333H46.6667H40ZM37.7667 17.6667H40.7643L38.3671 15.867L27.267 7.53362L26.6667 7.08288L26.0663 7.53362L14.9663 15.867L12.5691 17.6667H15.5667H37.7667ZM14.3333 23.3333V22.3333H13.3333H6.66667H5.66667V23.3333V33.3333V34.3333H6.66667H13.3333H14.3333V33.3333V23.3333ZM6.66667 39H5.66667V40V53.3333V54.3333H6.66667H13.3333H14.3333V53.3333V40V39H13.3333H6.66667ZM39 53.3333V54.3333H40H46.6667H47.6667V53.3333V40V39H46.6667H40H39V40V53.3333ZM52.3333 20.5V59H1V20.5L26.6667 1.25L52.3333 20.5Z" stroke="white" stroke-width="2"/>
</svg>
