<svg width="63" height="60" viewBox="0 0 63 60" fill="none" xmlns="http://www.w3.org/2000/svg">
<path d="M50.3456 32.0866H39.4713C39.0905 32.0866 38.7382 32.2887 38.5454 32.6164L38.556 32.5983L38.5436 32.6184C38.4452 32.7862 38.3955 32.9758 38.3955 33.1646C38.3955 33.3447 38.4414 33.5267 38.5311 33.6897L39.2166 34.9286C39.3702 35.2074 39.4455 35.5007 39.4466 35.8206C39.4457 36.3151 39.2566 36.7711 38.9092 37.1219C38.5598 37.4707 38.1046 37.6604 37.6129 37.6623C37.1203 37.6603 36.665 37.4707 36.3146 37.1219L36.3161 37.1239C35.9675 36.7712 35.7791 36.3142 35.7782 35.8208C35.7791 35.5016 35.8545 35.2075 36.0076 34.9278L36.6935 33.6898C36.7837 33.5268 36.8291 33.3459 36.8291 33.1647C36.8291 32.9759 36.7794 32.7863 36.6796 32.6165C36.4863 32.288 36.1341 32.0867 35.7538 32.0867H27.6172V27.7126C29.0877 27.6896 30.4766 27.108 31.517 26.0616C32.5822 24.9952 33.1723 23.5646 33.1712 22.0536C33.1721 20.5406 32.5818 19.1101 31.517 18.0445C30.4774 16.9981 29.0882 16.4174 27.6172 16.3945V9.27108C27.6168 8.67514 27.1356 8.19214 26.5419 8.19214H4.04859C2.97 8.19132 1.94625 8.61574 1.18547 9.3813C0.429963 10.1403 0.000939052 11.1818 1.55227e-06 12.2569V55.7444C-0.000935948 56.8261 0.422814 57.8533 1.18547 58.6179C1.94156 59.3758 2.97762 59.807 4.04859 59.808H47.3759C48.444 59.8071 49.4807 59.3758 50.2357 58.6179C50.9985 57.8533 51.4213 56.8271 51.4203 55.7444V33.1655C51.4205 32.5696 50.9393 32.0866 50.3456 32.0866ZM3.32461 12.2569C3.32461 12.0077 3.44016 11.8382 3.53461 11.7433C3.63246 11.6455 3.80086 11.5286 4.04859 11.5286H24.2924V20.1868C24.2924 20.3957 24.4027 20.5883 24.5816 20.6946C24.6732 20.7482 24.7758 20.7752 24.8789 20.7752C24.9772 20.7752 25.0751 20.7512 25.1639 20.7014L26.3977 20.0134C26.7456 19.8198 27.1246 19.7211 27.5236 19.7211C28.1435 19.7211 28.7272 19.9635 29.1659 20.4033C29.605 20.8451 29.8465 21.4315 29.8465 22.0534C29.8465 22.6752 29.605 23.2608 29.1668 23.7014C28.7272 24.1422 28.1435 24.3847 27.5236 24.3847C27.1241 24.3847 26.7456 24.286 26.3981 24.0923L25.1634 23.4043C25.0752 23.3545 24.9769 23.3305 24.879 23.3305C24.7759 23.3305 24.6732 23.3574 24.5817 23.4121C24.4028 23.5175 24.2925 23.71 24.2925 23.9189V32.5771H18.9517C18.9622 32.4439 18.9674 32.3108 18.9674 32.1795C18.9674 30.795 18.4304 29.4947 17.4564 28.5183C16.4832 27.5399 15.1879 27.0015 13.8086 27.0015C12.4297 27.0015 11.1345 27.5401 10.1617 28.5174C9.18668 29.4937 8.64973 30.795 8.6502 32.1786C8.6502 32.3108 8.65535 32.4431 8.6659 32.5772H3.32461V12.2569ZM24.2925 56.4716H4.04859C3.80086 56.4716 3.63246 56.3547 3.53695 56.2598C3.44016 56.1621 3.32461 55.9925 3.32461 55.7444V35.4221H11.9495C12.1571 35.4221 12.3495 35.3119 12.4549 35.1327C12.5604 34.9525 12.5633 34.7302 12.4622 34.5482L11.7773 33.3093C11.584 32.9594 11.4861 32.5791 11.4857 32.1795C11.4861 31.5576 11.7282 30.9713 12.1654 30.5304C12.6057 30.0907 13.1896 29.8472 13.8086 29.8472C14.4275 29.8472 15.0114 30.0907 15.4504 30.5295C15.889 30.9712 16.131 31.5576 16.1314 32.1785C16.131 32.58 16.0325 32.9604 15.8412 33.3082L15.1548 34.5471C15.0536 34.7302 15.0566 34.9525 15.1621 35.1317C15.2675 35.3118 15.46 35.422 15.6675 35.422H24.2924V40.7849C24.1596 40.7744 24.0275 40.7696 23.8968 40.7696C22.517 40.7696 21.2216 41.3081 20.2499 42.2854C19.2744 43.2627 18.7379 44.5631 18.7389 45.9467C18.7379 47.3303 19.2744 48.6315 20.2491 49.6079C21.2217 50.5863 22.5171 51.1247 23.8969 51.1247C24.0286 51.1247 24.1608 51.1198 24.2925 51.1094V56.4716ZM48.0966 55.7444C48.0966 55.9925 47.9802 56.1612 47.8847 56.258C47.7873 56.3548 47.6193 56.4717 47.3721 56.4717H27.1284V47.8135C27.1284 47.6046 27.0187 47.412 26.8392 47.3066C26.7476 47.2519 26.6449 47.2252 26.5419 47.2252C26.4441 47.2252 26.3457 47.2492 26.2574 47.299L25.0218 47.987C24.6748 48.1805 24.2963 48.2792 23.8968 48.2792C23.2778 48.2792 22.6939 48.036 22.255 47.597C21.8163 47.1562 21.5743 46.5698 21.5739 45.9478C21.5743 45.3251 21.8164 44.7396 22.2545 44.2989C22.6932 43.859 23.2768 43.6156 23.8969 43.6147C24.2936 43.6147 24.6724 43.7134 25.0219 43.9069L26.257 44.5959C26.3459 44.6458 26.4436 44.6698 26.542 44.6698C26.645 44.6698 26.7477 44.6428 26.8393 44.5893C27.0183 44.4829 27.1286 44.2903 27.1286 44.0814V35.4222H32.4697C32.4593 35.5554 32.454 35.6887 32.454 35.8208C32.4536 37.2034 32.99 38.5038 33.9641 39.4811C34.9377 40.4604 36.2336 40.9989 37.6124 40.9989C38.9912 40.9989 40.2866 40.4604 41.2603 39.4821C42.2348 38.5058 42.7704 37.2054 42.7704 35.8209C42.7704 35.6887 42.7656 35.5564 42.7552 35.4223H48.0968L48.0966 55.7444Z" fill="white"/>
<path d="M40 16.6316C40.2646 16.6778 40.5367 16.7019 40.8142 16.7019C43.4362 16.7019 45.5547 14.5689 45.5547 11.9477C45.5547 9.32431 43.4351 7.19248 40.8142 7.19248C40.5369 7.19248 40.2648 7.21645 40 7.26253V1H60.6618C61.2894 1 61.8048 1.51168 61.8048 2.15023V22.8945H54.1737H52.4795L53.2982 24.3777C53.517 24.7741 53.6423 25.2293 53.6423 25.715C53.6423 27.2409 52.412 28.4702 50.9024 28.4702C49.3917 28.4702 48.1614 27.2407 48.1614 25.715C48.1614 25.2294 48.2868 24.7747 48.5059 24.3789L49.3279 22.8945H47.6311H40V16.6316Z" stroke="white" stroke-width="2"/>
</svg>
