<svg width="52" height="60" viewBox="0 0 52 60" fill="none" xmlns="http://www.w3.org/2000/svg">
<path d="M25.7143 0L0 8.57143V34.2857C0 48.4888 11.5112 60 25.7143 60C39.9174 60 51.4286 48.4888 51.4286 34.2857V8.57143L25.7143 0ZM46.6071 34.2857C46.6071 45.8237 37.2522 55.1786 25.7143 55.1786C14.1763 55.1786 4.82143 45.8237 4.82143 34.2857V12.1875L25.7143 4.82143L46.6071 12.1875V34.2857Z" fill="white"/>
<path d="M16.7679 27.529C16.5444 27.3046 16.2788 27.1265 15.9864 27.0049C15.6939 26.8834 15.3803 26.8208 15.0636 26.8208C14.7469 26.8208 14.4333 26.8834 14.1408 27.0049C13.8484 27.1265 13.5828 27.3046 13.3594 27.529C13.1349 27.7525 12.9568 28.018 12.8353 28.3105C12.7137 28.603 12.6512 28.9165 12.6512 29.2333C12.6512 29.55 12.7137 29.8636 12.8353 30.156C12.9568 30.4485 13.1349 30.7141 13.3594 30.9375L22.1652 39.7433C22.3765 39.9551 22.6276 40.123 22.9039 40.2377C23.1803 40.3523 23.4765 40.4113 23.7757 40.4113C24.0748 40.4113 24.3711 40.3523 24.6474 40.2377C24.9238 40.123 25.1748 39.9551 25.3862 39.7433L40.3527 24.7768C40.5644 24.5654 40.7324 24.3144 40.847 24.0381C40.9616 23.7617 41.0207 23.4655 41.0207 23.1663C41.0207 22.8671 40.9616 22.5709 40.847 22.2945C40.7324 22.0182 40.5644 21.7672 40.3527 21.5558L40.1652 21.3683C39.9538 21.1566 39.7028 20.9886 39.4264 20.8739C39.1501 20.7593 38.8539 20.7003 38.5547 20.7003C38.2555 20.7003 37.9593 20.7593 37.6829 20.8739C37.4066 20.9886 37.1555 21.1566 36.9442 21.3683L23.7723 34.5335L16.7679 27.529Z" fill="white"/>
</svg>
