<svg width="60" height="60" viewBox="0 0 60 60" fill="none" xmlns="http://www.w3.org/2000/svg">
<path d="M31.4286 55.1226L37.5613 48.9898C38.1192 48.432 39.0237 48.432 39.5816 48.9898C40.1395 49.5477 40.1395 50.4523 39.5816 51.0102L31.0102 59.5816C30.4523 60.1395 29.5477 60.1395 28.9898 59.5816L20.4184 51.0102C19.8605 50.4523 19.8605 49.5477 20.4184 48.9898C20.9763 48.432 21.8808 48.432 22.4387 48.9898L28.5714 55.1226V38.5714C28.5714 37.7825 29.211 37.1429 30 37.1429C30.789 37.1429 31.4286 37.7825 31.4286 38.5714V55.1226ZM4.87745 31.4286L11.0102 37.5613C11.568 38.1192 11.568 39.0237 11.0102 39.5816C10.4523 40.1395 9.54774 40.1395 8.98985 39.5816L0.418419 31.0102C-0.139473 30.4523 -0.139473 29.5477 0.418419 28.9898L8.98985 20.4184C9.54774 19.8605 10.4523 19.8605 11.0102 20.4184C11.568 20.9763 11.568 21.8808 11.0102 22.4387L4.87745 28.5714H21.4286C22.2176 28.5714 22.8571 29.211 22.8571 30C22.8571 30.789 22.2176 31.4286 21.4286 31.4286H4.87745ZM55.1226 28.5714L48.9898 22.4387C48.432 21.8808 48.432 20.9763 48.9898 20.4184C49.5477 19.8605 50.4523 19.8605 51.0102 20.4184L59.5816 28.9898C60.1395 29.5477 60.1395 30.4523 59.5816 31.0102L51.0102 39.5816C50.4523 40.1395 49.5477 40.1395 48.9898 39.5816C48.432 39.0237 48.432 38.1192 48.9898 37.5613L55.1226 31.4286H38.5714C37.7825 31.4286 37.1429 30.789 37.1429 30C37.1429 29.211 37.7825 28.5714 38.5714 28.5714H55.1226ZM31.4286 4.87745V21.4286C31.4286 22.2176 30.789 22.8571 30 22.8571C29.211 22.8571 28.5714 22.2176 28.5714 21.4286V4.87745L22.4387 11.0102C21.8808 11.568 20.9763 11.568 20.4184 11.0102C19.8605 10.4523 19.8605 9.54774 20.4184 8.98985L28.9898 0.418419C29.5477 -0.139473 30.4523 -0.139473 31.0102 0.418419L39.5816 8.98985C40.1395 9.54774 40.1395 10.4523 39.5816 11.0102C39.0237 11.568 38.1192 11.568 37.5613 11.0102L31.4286 4.87745Z" fill="white"/>
</svg>
