<svg width="60" height="60" viewBox="0 0 60 60" fill="none" xmlns="http://www.w3.org/2000/svg">
<circle cx="30" cy="30" r="28.5" stroke="white" stroke-width="3"/>
<path d="M29.0056 47.277L19.9141 31.4029V29.2863H20.9723C22.672 29.2863 24.0991 29.126 25.2535 28.8053C26.4401 28.4846 27.3701 27.9555 28.0435 27.2179C28.717 26.4803 29.1179 25.4701 29.2461 24.1874H19.9141V21.1087H29.198C28.9735 19.9222 28.5246 18.9601 27.8511 18.2225C27.1777 17.4529 26.2637 16.8917 25.1092 16.5389C23.9868 16.1862 22.6079 16.0098 20.9723 16.0098H19.9141V12.9312H39.8289V16.0098H30.7373C31.4749 16.6191 32.0842 17.3406 32.5653 18.1744C33.0463 19.0082 33.351 19.9863 33.4792 21.1087H39.8289V24.1874H33.5754C33.351 26.5284 32.453 28.3563 30.8816 29.6712C29.3423 30.9539 27.2899 31.7717 24.7244 32.1244L33.9122 47.277H29.0056Z" fill="white"/>
</svg>
