<svg width="64" height="64" viewBox="0 0 64 64" fill="none" xmlns="http://www.w3.org/2000/svg">
<circle cx="32" cy="32" r="31.5" fill="url(#paint0_linear_412_736)" stroke="white"/>
<path d="M32.0177 16.0007C32.5424 16.0007 33.0592 16.0339 33.5398 16.112C34.0133 16.1725 34.4803 16.2731 34.9358 16.4127C35.3925 16.5474 35.8391 16.7153 36.2857 16.9262C36.7203 17.1273 37.167 17.3733 37.6136 17.6408C38.3687 18.1094 39.1117 18.4882 39.8688 18.7908C41.3592 19.3723 42.9352 19.7183 44.5374 19.8158C45.3506 19.8725 46.1857 19.9056 47.055 19.9056V27.7155C47.055 29.1994 46.8607 30.6052 46.4721 31.9446C46.0989 33.2648 45.5686 34.538 44.8919 35.7382C44.2181 36.9367 43.4209 38.0652 42.5125 39.1062C41.5903 40.1709 40.5917 41.1705 39.5243 42.0974C38.4428 43.027 37.3037 43.891 36.1135 44.6844C34.9238 45.4888 33.7221 46.2366 32.5204 46.9161L32.0397 47.1953L31.559 46.9161C30.3237 46.2189 29.117 45.4744 27.9419 44.6844C26.745 43.9 25.6053 43.0355 24.5311 42.0974C23.4644 41.1704 22.4665 40.1709 21.5449 39.1062C20.639 38.0608 19.8382 36.9329 19.1535 35.7382C18.4884 34.5327 17.9586 33.2608 17.5733 31.9446C17.1822 30.5676 16.9895 29.1443 17.0004 27.7155V19.9056C17.8717 19.9056 18.7069 19.8725 19.52 19.8158C20.3205 19.7616 21.1157 19.65 21.8994 19.482C22.6665 19.314 23.4335 19.0915 24.1886 18.7908C24.9721 18.4825 25.7233 18.1013 26.4318 17.6525C27.313 17.0941 28.2063 16.6821 29.0875 16.4107C30.0366 16.1271 31.0251 15.9888 32.0177 16.0007ZM45.0401 21.8249C43.524 21.7532 42.0221 21.5061 40.5658 21.0888C39.1172 20.6676 37.7375 20.0477 36.468 19.2477C35.8095 18.8263 35.0944 18.4958 34.343 18.2656C33.5924 18.0444 32.8118 17.9352 32.0277 17.9415C31.2378 17.9365 30.4515 18.0457 29.6944 18.2656C28.9419 18.4883 28.2277 18.8193 27.5754 19.2477C26.3037 20.052 24.9204 20.6747 23.4676 21.0967C22.0476 21.4989 20.5615 21.7449 19.0033 21.8347V27.7253C19.0033 29.0198 19.1755 30.2576 19.52 31.4506C19.871 32.6332 20.3546 33.7745 20.962 34.8537C21.5768 35.9443 22.3014 36.9724 23.1251 37.923C23.9603 38.8817 24.8516 39.774 25.8129 40.6213C26.7743 41.4706 27.7817 42.2516 28.8352 42.976C29.8987 43.7023 30.9642 44.3603 32.0277 44.9617C33.1167 44.3436 34.1785 43.6812 35.2102 42.976C36.2707 42.2539 37.2834 41.4675 38.2425 40.6213C39.2039 39.774 40.0971 38.8817 40.9323 37.923C41.7561 36.9725 42.4807 35.9443 43.0954 34.8537C43.7002 33.7758 44.1766 32.634 44.5154 31.4506C44.8703 30.2393 45.047 28.985 45.0401 27.7253V21.8249Z" fill="white"/>
<path fill-rule="evenodd" clip-rule="evenodd" d="M39.4805 25.1951L38.5992 24.457L37.7861 24.5254L29.0537 34.5767L26.0795 30.4374L25.2784 30.3047L24.3511 30.9509L24.2129 31.7319L28.0363 37.0544L28.4709 37.2886L29.3862 37.3433L29.8549 37.1442L39.5386 25.9858L39.4805 25.1951Z" fill="white"/>
<defs>
<linearGradient id="paint0_linear_412_736" x1="0" y1="32" x2="64" y2="32" gradientUnits="userSpaceOnUse">
<stop stop-color="#5D1E79"/>
<stop offset="0.6" stop-color="#770D62"/>
<stop offset="1" stop-color="#8B0051"/>
</linearGradient>
</defs>
</svg>
