<svg width="64" height="64" viewBox="0 0 64 64" fill="none" xmlns="http://www.w3.org/2000/svg">
<circle cx="32" cy="32" r="31.5" fill="url(#paint0_linear_421_930)" stroke="white"/>
<path d="M21.1885 21.8018L22.683 21.5528C22.683 21.5528 22.683 21.5528 22.683 21.5528C23.0194 21.4967 23.3384 21.7242 23.3946 22.0611C23.4507 22.3979 23.2231 22.7165 22.8862 22.7726L19.5687 23.3256L19.5686 23.3256C19.535 23.3312 19.501 23.334 19.4671 23.334C19.3046 23.334 19.1468 23.2698 19.0299 23.1529C19.0299 23.1529 19.0299 23.1529 19.0299 23.1528L21.1885 21.8018ZM21.1885 21.8018C22.373 20.5488 23.7752 19.4989 25.3076 18.7248C27.3937 17.6711 29.645 17.1368 31.9999 17.1368C35.9702 17.1368 39.7024 18.6827 42.5099 21.4901C45.3173 24.2976 46.8632 28.0297 46.8632 32.0001C46.8632 34.4024 46.2769 36.7887 45.168 38.9004C45.0092 39.2027 45.1256 39.5766 45.4279 39.7354L45.428 39.7354C45.5196 39.7835 45.618 39.8063 45.7149 39.8063C45.9371 39.8063 46.1522 39.6861 46.2628 39.4753C47.4647 37.1866 48.0999 34.6018 48.0999 32C48.0999 27.6997 46.4251 23.6563 43.3843 20.6156C40.3436 17.5748 36.3001 15.9 31.9999 15.9C29.45 15.9 27.0105 16.479 24.75 17.621C23.1406 18.434 21.6652 19.5282 20.4082 20.8304L21.1885 21.8018ZM18.572 24.2648C18.2696 24.1059 17.8957 24.2223 17.737 24.5248C16.5352 26.8135 15.9 29.3983 15.9 32.0001C15.9 36.3003 17.5748 40.3438 20.6156 43.3845C23.6564 46.4252 27.6997 48.1001 32 48.1001C36.4221 48.1001 40.5643 46.3223 43.5908 43.1746L43.3699 44.5002C43.3137 44.837 43.5413 45.1557 43.8781 45.2118L43.8783 45.2119C43.9124 45.2175 43.9466 45.2203 43.9804 45.2203C44.2773 45.2203 44.5392 45.0061 44.5897 44.7036L44.5897 44.7036L45.1427 41.3861C45.1427 41.3861 45.1427 41.3861 45.1427 41.3861C45.1755 41.1891 45.1112 40.9884 44.97 40.8472C44.8288 40.706 44.628 40.6418 44.4312 40.6745L44.4311 40.6745L18.7434 25.0532L18.8319 25.0997C18.9907 24.7974 18.8743 24.4236 18.572 24.2648ZM18.572 24.2648L18.5254 24.3533L18.5719 24.2648C18.5719 24.2648 18.572 24.2648 18.572 24.2648ZM37.8327 30.1609L37.8327 30.1609C37.9954 30.4349 38.0013 30.7664 37.8488 31.0463L37.8488 31.0463L31.4368 42.8015C31.4368 42.8015 31.4368 42.8016 31.4368 42.8016C31.3261 43.0046 31.1153 43.1239 30.894 43.1239C30.8316 43.1239 30.7684 43.1145 30.7064 43.0948C30.4242 43.0049 30.2453 42.7275 30.2799 42.4333L30.3792 42.445L30.2799 42.4333L31.3045 33.7243H27.9212C27.6484 33.7243 27.3938 33.602 27.2232 33.3894L27.2231 33.3894C27.0525 33.1766 26.9885 32.9015 27.0477 32.6353L29.1846 23.0193C29.1846 23.0193 29.1846 23.0193 29.1846 23.0193C29.2475 22.7363 29.4984 22.535 29.7882 22.535H35.3174C35.521 22.535 35.7117 22.6353 35.827 22.8033C35.827 22.8033 35.827 22.8033 35.827 22.8033L35.7446 22.8599C35.8413 23.0007 35.8625 23.18 35.8012 23.3393L37.8327 30.1609ZM37.8327 30.1609C37.67 29.887 37.3818 29.7228 37.0632 29.7228H33.4531L35.8945 23.3753L37.8327 30.1609ZM43.0838 42.0514L42.9241 42.0781C42.887 42.1183 42.8498 42.1583 42.8124 42.198L42.9743 42.1711C43.011 42.1314 43.0475 42.0915 43.0838 42.0514ZM32.5528 30.9597H36.4875L31.8816 39.4036L32.614 33.1781L32.614 33.1781C32.6346 33.0027 32.5793 32.8269 32.462 32.695C32.3447 32.5631 32.1765 32.4875 31.9999 32.4875H28.3474L30.2843 23.7718H34.4171L31.9757 30.1194C31.9757 30.1194 31.9757 30.1194 31.9757 30.1194C31.9026 30.3095 31.9278 30.5235 32.0432 30.6914C32.1586 30.8593 32.3491 30.9597 32.5528 30.9597Z" fill="white" stroke="white" stroke-width="0.2"/>
<defs>
<linearGradient id="paint0_linear_421_930" x1="0" y1="32" x2="64" y2="32" gradientUnits="userSpaceOnUse">
<stop stop-color="#5D1E79"/>
<stop offset="0.6" stop-color="#770D62"/>
<stop offset="1" stop-color="#8B0051"/>
</linearGradient>
</defs>
</svg>
