<svg width="64" height="64" viewBox="0 0 64 64" fill="none" xmlns="http://www.w3.org/2000/svg">
<circle cx="32" cy="32" r="31.5" fill="url(#paint0_linear_364_96)" stroke="white"/>
<path d="M43.3971 27.2027C43.3978 25.2748 42.9008 23.3793 41.9542 21.6998C41.0075 20.0203 39.6433 18.6137 37.9936 17.616C36.3439 16.6184 34.4646 16.0635 32.5376 16.0051C30.6106 15.9468 28.7011 16.3869 26.994 17.2829C25.287 18.1789 23.8402 19.5004 22.7936 21.1195C21.7471 22.7386 21.1362 24.6005 21.0203 26.5249C20.9043 28.4494 21.2871 30.3711 22.1317 32.1042C22.9762 33.8373 24.2539 35.323 25.841 36.4175L21 44.8004L24.6091 44.9492L26.5417 48L32.0866 38.3948C32.125 38.3948 32.1602 38.4012 32.1986 38.4012C32.237 38.4012 32.2721 38.3964 32.3105 38.3948L37.8554 48L39.8264 45.0148L43.3971 44.8004L38.5561 36.4175C40.0497 35.3891 41.2708 34.013 42.1142 32.4077C42.9575 30.8024 43.3978 29.016 43.3971 27.2027ZM24.1996 27.2027C24.1996 25.6206 24.6687 24.0741 25.5477 22.7587C26.4266 21.4433 27.6759 20.418 29.1375 19.8126C30.5991 19.2072 32.2074 19.0488 33.7591 19.3574C35.3107 19.6661 36.736 20.4279 37.8547 21.5466C38.9734 22.6652 39.7352 24.0905 40.0438 25.6422C40.3525 27.1938 40.1941 28.8021 39.5886 30.2638C38.9832 31.7254 37.958 32.9746 36.6425 33.8536C35.3271 34.7325 33.7806 35.2016 32.1986 35.2016C30.0771 35.2016 28.0425 34.3589 26.5424 32.8588C25.0423 31.3587 24.1996 29.3241 24.1996 27.2027Z" fill="white"/>
<path d="M32.1978 32.002C34.8484 32.002 36.9972 29.8532 36.9972 27.2026C36.9972 24.552 34.8484 22.4032 32.1978 22.4032C29.5472 22.4032 27.3984 24.552 27.3984 27.2026C27.3984 29.8532 29.5472 32.002 32.1978 32.002Z" fill="white"/>
<defs>
<linearGradient id="paint0_linear_364_96" x1="32" y1="0" x2="32" y2="64" gradientUnits="userSpaceOnUse">
<stop stop-color="#2363AA"/>
<stop offset="1" stop-color="#099FDC"/>
</linearGradient>
</defs>
</svg>
