<svg width="64" height="64" viewBox="0 0 64 64" fill="none" xmlns="http://www.w3.org/2000/svg">
<circle cx="32" cy="32" r="31.5" fill="url(#paint0_linear_421_927)" stroke="white"/>
<path d="M32.0035 25.0565C30.8803 25.0565 29.803 25.4994 29.0087 26.2877C28.2145 27.0759 27.7682 28.1451 27.7682 29.2599C27.7682 30.3747 28.2145 31.4439 29.0087 32.2322C29.803 33.0204 30.8803 33.4633 32.0035 33.4633C33.1268 33.4633 34.2041 33.0204 34.9983 32.2322C35.7926 31.4439 36.2388 30.3747 36.2388 29.2599C36.2388 28.1451 35.7926 27.0759 34.9983 26.2877C34.2041 25.4994 33.1268 25.0565 32.0035 25.0565ZM29.5329 29.2599C29.5329 28.6096 29.7932 27.9859 30.2566 27.5261C30.7199 27.0663 31.3483 26.8079 32.0035 26.8079C32.6588 26.8079 33.2872 27.0663 33.7505 27.5261C34.2138 27.9859 34.4741 28.6096 34.4741 29.2599C34.4741 29.9102 34.2138 30.5339 33.7505 30.9937C33.2872 31.4535 32.6588 31.7119 32.0035 31.7119C31.3483 31.7119 30.7199 31.4535 30.2566 30.9937C29.7932 30.5339 29.5329 29.9102 29.5329 29.2599ZM41.1765 36.6158L34.0555 44.1189C33.7915 44.3971 33.473 44.6188 33.1195 44.7703C32.766 44.9218 32.3851 45 32 45C31.6149 45 31.234 44.9218 30.8805 44.7703C30.527 44.6188 30.2085 44.3971 29.9445 44.1189L22.8235 36.6158H22.8504L22.8384 36.6018L22.8235 36.5843C20.9958 34.439 19.9952 31.7191 20 28.9096C20 22.332 25.3725 17 32 17C38.6275 17 44 22.332 44 28.9096C44.0048 31.7191 43.0042 34.439 41.1765 36.5843L41.1616 36.6018L41.1496 36.6158H41.1765ZM39.8049 35.4816C41.3777 33.6481 42.2395 31.3176 42.2353 28.9096C42.2353 23.2995 37.6527 18.7514 32 18.7514C26.3473 18.7514 21.7647 23.2995 21.7647 28.9096C21.7603 31.3176 22.6221 33.6482 24.1951 35.4816L24.4125 35.7359L31.2292 42.9174C31.3282 43.0218 31.4476 43.1049 31.5802 43.1617C31.7127 43.2185 31.8556 43.2478 32 43.2478C32.1444 43.2478 32.2873 43.2185 32.4198 43.1617C32.5524 43.1049 32.6718 43.0218 32.7708 42.9174L39.5875 35.7359L39.8049 35.4816Z" fill="white"/>
<defs>
<linearGradient id="paint0_linear_421_927" x1="0" y1="32" x2="64" y2="32" gradientUnits="userSpaceOnUse">
<stop stop-color="#5D1E79"/>
<stop offset="0.6" stop-color="#770D62"/>
<stop offset="1" stop-color="#8B0051"/>
</linearGradient>
</defs>
</svg>
