<svg width="64" height="64" viewBox="0 0 64 64" fill="none" xmlns="http://www.w3.org/2000/svg">
<circle cx="32" cy="32" r="31.5" fill="url(#paint0_linear_364_95)" stroke="white"/>
<path d="M24 30.4756V39H32.5244L30.7467 37.2223H25.7778V32.2534L24 30.4756Z" fill="white"/>
<path d="M46.9951 43.7022L44.444 41.1155V43.4444H19.5551V39.7555H21.3329V38.3333H19.5551V32.4222H21.3329V30.9999H19.5551V25.3111H21.3329V23.8888H19.5551V18.9199L33.724 33.0088V30.5022L19.2974 16.1466C19.173 16.0213 19.0142 15.9358 18.8411 15.901C18.668 15.8663 18.4884 15.8839 18.3254 15.9516C18.1623 16.0193 18.0231 16.1341 17.9255 16.2812C17.8279 16.4283 17.7763 16.6012 17.7774 16.7777V44.3333C17.7774 44.569 17.871 44.7951 18.0377 44.9618C18.2044 45.1285 18.4305 45.2222 18.6662 45.2222H46.364C46.5406 45.2232 46.7134 45.1716 46.8606 45.074C47.0077 44.9764 47.1224 44.8372 47.1901 44.6742C47.2578 44.5111 47.2754 44.3316 47.2407 44.1585C47.206 43.9853 47.1205 43.8265 46.9951 43.7022Z" fill="white"/>
<path d="M37.3325 41.6667H40.888C41.3595 41.6667 41.8117 41.4794 42.1451 41.146C42.4785 40.8126 42.6658 40.3605 42.6658 39.889V22.7334L40.6214 18.9734C40.4632 18.6995 40.2349 18.4727 39.9599 18.3164C39.6849 18.1602 39.3732 18.0801 39.0569 18.0845C38.7335 18.0871 38.4169 18.1778 38.1412 18.347C37.8655 18.5162 37.6412 18.7573 37.4925 19.0445L35.5547 22.7512V39.889C35.5547 40.3605 35.742 40.8126 36.0754 41.146C36.4088 41.4794 36.861 41.6667 37.3325 41.6667ZM37.3325 23.1779L39.0569 19.8267L40.888 23.1867V36.3334H37.3325V23.1779ZM37.3325 37.7823H40.888V39.9512H37.3325V37.7823Z" fill="white"/>
<defs>
<linearGradient id="paint0_linear_364_95" x1="32" y1="0" x2="32" y2="64" gradientUnits="userSpaceOnUse">
<stop stop-color="#2363AA"/>
<stop offset="1" stop-color="#099FDC"/>
</linearGradient>
</defs>
</svg>
