<svg width="64" height="64" viewBox="0 0 64 64" fill="none" xmlns="http://www.w3.org/2000/svg">
<circle cx="32" cy="32" r="31.5" fill="url(#paint0_linear_412_715)" stroke="white"/>
<path d="M24 27.0859V35.396H32.5244L30.7467 33.6629H25.7778V28.819L24 27.0859Z" fill="white"/>
<path d="M46.9951 39.9803L44.444 37.4587V39.729H19.5551V36.1329H21.3329V34.7464H19.5551V28.9839H21.3329V27.5975H19.5551V22.0516H21.3329V20.6652H19.5551V15.8213L33.724 29.5558V27.1122L19.2974 13.1177C19.173 12.9955 19.0142 12.9121 18.8411 12.8783C18.668 12.8444 18.4884 12.8616 18.3254 12.9276C18.1623 12.9936 18.0231 13.1054 17.9255 13.2488C17.8279 13.3923 17.7763 13.5608 17.7774 13.7329V40.5955C17.7774 40.8253 17.871 41.0457 18.0377 41.2082C18.2044 41.3708 18.4305 41.462 18.6662 41.462H46.364C46.5406 41.463 46.7134 41.4128 46.8606 41.3176C47.0077 41.2225 47.1224 41.0868 47.1901 40.9278C47.2578 40.7689 47.2754 40.5938 47.2407 40.4251C47.206 40.2563 47.1205 40.1015 46.9951 39.9803Z" fill="white"/>
<path d="M37.3325 37.9962H40.888C41.3595 37.9962 41.8117 37.8136 42.1451 37.4886C42.4785 37.1636 42.6658 36.7228 42.6658 36.2631V19.539L40.6214 15.8735C40.4632 15.6065 40.2349 15.3854 39.9599 15.2331C39.6849 15.0808 39.3732 15.0027 39.0569 15.007C38.7335 15.0095 38.4169 15.098 38.1412 15.2629C37.8655 15.4278 37.6412 15.6629 37.4925 15.9429L35.5547 19.5563V36.2631C35.5547 36.7228 35.742 37.1636 36.0754 37.4886C36.4088 37.8136 36.861 37.9962 37.3325 37.9962ZM37.3325 19.9723L39.0569 16.7054L40.888 19.9809V32.797H37.3325V19.9723ZM37.3325 34.2094H40.888V36.3238H37.3325V34.2094Z" fill="white"/>
<defs>
<linearGradient id="paint0_linear_412_715" x1="0" y1="32" x2="64" y2="32" gradientUnits="userSpaceOnUse">
<stop stop-color="#5D1E79"/>
<stop offset="0.6" stop-color="#770D62"/>
<stop offset="1" stop-color="#8B0051"/>
</linearGradient>
</defs>
</svg>
