<svg width="64" height="64" viewBox="0 0 64 64" fill="none" xmlns="http://www.w3.org/2000/svg">
<circle cx="32" cy="32" r="31.5" fill="url(#paint0_linear_364_97)" stroke="white"/>
<path d="M32.0177 16.0007C32.5424 16.0007 33.0592 16.0348 33.5398 16.1149C34.0133 16.1769 34.4803 16.2801 34.9358 16.4233C35.3925 16.5615 35.8391 16.7338 36.2857 16.9501C36.7203 17.1564 37.167 17.4087 37.6136 17.6831C38.3687 18.1638 39.1117 18.5523 39.8688 18.8628C41.3592 19.4593 42.9352 19.8142 44.5374 19.9143C45.3506 19.9723 46.1857 20.0064 47.055 20.0064V28.0177C47.055 29.5399 46.8607 30.9819 46.4721 32.3559C46.0989 33.7102 45.5686 35.0162 44.8919 36.2474C44.2181 37.4768 43.4209 38.6344 42.5125 39.7023C41.5903 40.7944 40.5917 41.8198 39.5243 42.7706C38.4428 43.7242 37.3037 44.6105 36.1135 45.4244C34.9238 46.2495 33.7221 47.0166 32.5204 47.7136L32.0397 48L31.559 47.7136C30.3237 46.9984 29.117 46.2347 27.9419 45.4244C26.745 44.6197 25.6053 43.7329 24.5311 42.7706C23.4644 41.8197 22.4665 40.7944 21.5449 39.7023C20.639 38.6298 19.8382 37.4729 19.1535 36.2474C18.4884 35.0108 17.9586 33.7061 17.5733 32.3559C17.1822 30.9433 16.9895 29.4833 17.0004 28.0177V20.0064C17.8717 20.0064 18.7069 19.9723 19.52 19.9143C20.3205 19.8587 21.1157 19.7442 21.8994 19.5718C22.6665 19.3995 23.4335 19.1712 24.1886 18.8628C24.9721 18.5466 25.7233 18.1555 26.4318 17.6951C27.313 17.1223 28.2063 16.6997 29.0875 16.4213C30.0366 16.1304 31.0251 15.9885 32.0177 16.0007ZM45.0401 21.9752C43.524 21.9016 42.0221 21.6482 40.5658 21.2201C39.1172 20.788 37.7375 20.1521 36.468 19.3314C35.8095 18.8992 35.0944 18.5602 34.343 18.324C33.5924 18.0972 32.8118 17.9851 32.0277 17.9915C31.2378 17.9864 30.4515 18.0985 29.6944 18.324C28.9419 18.5525 28.2277 18.8921 27.5754 19.3314C26.3037 20.1566 24.9204 20.7953 23.4676 21.2281C22.0476 21.6407 20.5615 21.8931 19.0033 21.9852V28.0277C19.0033 29.3556 19.1755 30.6254 19.52 31.8492C19.871 33.0622 20.3546 34.233 20.962 35.3401C21.5768 36.4587 22.3014 37.5134 23.1251 38.4885C23.9603 39.4719 24.8516 40.3872 25.8129 41.2565C26.7743 42.1277 27.7817 42.9288 28.8352 43.6719C29.8987 44.4169 30.9642 45.0919 32.0277 45.7088C33.1167 45.0748 34.1785 44.3952 35.2102 43.6719C36.2707 42.9312 37.2834 42.1244 38.2425 41.2565C39.2039 40.3872 40.0971 39.4719 40.9323 38.4885C41.7561 37.5135 42.4807 36.4588 43.0954 35.3401C43.7002 34.2343 44.1766 33.0631 44.5154 31.8492C44.8703 30.6066 45.047 29.32 45.0401 28.0277V21.9752Z" fill="white"/>
<path fill-rule="evenodd" clip-rule="evenodd" d="M39.4785 25.4321L38.5973 24.675L37.7841 24.7451L29.0518 35.0557L26.0776 30.8097L25.2764 30.6735L24.3491 31.3365L24.2109 32.1376L28.0343 37.5973L28.469 37.8377L29.3843 37.8938L29.8529 37.6895L39.5366 26.2433L39.4785 25.4321Z" fill="white"/>
<defs>
<linearGradient id="paint0_linear_364_97" x1="32" y1="0" x2="32" y2="64" gradientUnits="userSpaceOnUse">
<stop stop-color="#2363AA"/>
<stop offset="1" stop-color="#099FDC"/>
</linearGradient>
</defs>
</svg>
