<svg width="64" height="64" viewBox="0 0 64 64" fill="none" xmlns="http://www.w3.org/2000/svg">
<circle cx="32" cy="32" r="31.5" fill="url(#paint0_linear_412_728)" stroke="white"/>
<path d="M43.3971 26.921C43.3978 25.0415 42.9008 23.1938 41.9542 21.5565C41.0075 19.9192 39.6433 18.548 37.9936 17.5754C36.3439 16.6028 34.4646 16.0619 32.5376 16.005C30.6106 15.9481 28.7011 16.3772 26.994 17.2506C25.287 18.1241 23.8402 19.4124 22.7936 20.9908C21.7471 22.5692 21.1362 24.3842 21.0203 26.2603C20.9043 28.1363 21.2871 30.0097 22.1317 31.6992C22.9762 33.3887 24.2539 34.8371 25.841 35.904L21 44.0762L24.6091 44.2212L26.5417 47.1953L32.0866 37.8317C32.125 37.8317 32.1602 37.8379 32.1986 37.8379C32.237 37.8379 32.2721 37.8332 32.3105 37.8317L37.8554 47.1953L39.8264 44.2851L43.3971 44.0762L38.5561 35.904C40.0497 34.9016 41.2708 33.56 42.1142 31.9951C42.9575 30.4301 43.3978 28.6887 43.3971 26.921ZM24.1996 26.921C24.1996 25.3787 24.6687 23.8711 25.5477 22.5887C26.4266 21.3064 27.6759 20.3069 29.1375 19.7167C30.5991 19.1265 32.2074 18.9721 33.7591 19.273C35.3107 19.5739 36.736 20.3165 37.8547 21.4071C38.9734 22.4976 39.7352 23.8871 40.0438 25.3997C40.3525 26.9123 40.1941 28.4802 39.5886 29.9051C38.9832 31.3299 37.958 32.5478 36.6425 33.4046C35.3271 34.2614 33.7806 34.7188 32.1986 34.7188C30.0771 34.7188 28.0425 33.8972 26.5424 32.4349C25.0423 30.9725 24.1996 28.9891 24.1996 26.921Z" fill="white"/>
<path d="M32.1978 31.5996C34.8484 31.5996 36.9972 29.5048 36.9972 26.9209C36.9972 24.3369 34.8484 22.2422 32.1978 22.2422C29.5472 22.2422 27.3984 24.3369 27.3984 26.9209C27.3984 29.5048 29.5472 31.5996 32.1978 31.5996Z" fill="white"/>
<defs>
<linearGradient id="paint0_linear_412_728" x1="0" y1="32" x2="64" y2="32" gradientUnits="userSpaceOnUse">
<stop stop-color="#5D1E79"/>
<stop offset="0.6" stop-color="#770D62"/>
<stop offset="1" stop-color="#8B0051"/>
</linearGradient>
</defs>
</svg>
