<svg width="162" height="139" viewBox="0 0 162 139" fill="none" xmlns="http://www.w3.org/2000/svg">
<g filter="url(#filter0_di_412_839)">
<rect x="12" y="8" width="138" height="115" rx="14" fill="url(#paint0_linear_412_839)"/>
</g>
<path d="M123.909 65.4273L117.214 54.2728C116.671 53.36 115.9 52.6037 114.978 52.0779C114.055 51.552 113.012 51.2746 111.95 51.2728H102.295L104.082 43.0909C104.183 42.5944 104.173 42.0816 104.051 41.5897C103.929 41.0978 103.699 40.6393 103.378 40.2475C103.056 39.8556 102.652 39.5403 102.193 39.3245C101.735 39.1088 101.234 38.9979 100.727 39H53.15C52.3671 39.0055 51.6098 39.2793 51.0043 39.7756C50.3988 40.2719 49.9818 40.9607 49.8227 41.7273L49.1 45.0273C49.0803 45.1168 49.0784 45.2094 49.0945 45.2996C49.1106 45.3899 49.1442 45.4761 49.1936 45.5534C49.243 45.6306 49.3071 45.6974 49.3823 45.7498C49.4575 45.8023 49.5423 45.8394 49.6318 45.8591C49.7214 45.8788 49.8139 45.8807 49.9042 45.8646C49.9944 45.8486 50.0806 45.8149 50.1579 45.7655C50.2351 45.7161 50.3019 45.652 50.3543 45.5768C50.4068 45.5016 50.4439 45.4168 50.4636 45.3273L51.1864 42.0137C51.281 41.5582 51.5261 41.1478 51.8823 40.8485C52.2385 40.5492 52.685 40.3784 53.15 40.3637H100.727C101.032 40.3648 101.333 40.4341 101.608 40.5666C101.883 40.699 102.124 40.8912 102.315 41.1292C102.506 41.3671 102.641 41.6447 102.711 41.9417C102.781 42.2387 102.783 42.5475 102.718 42.8455L100.809 51.5864C100.766 51.6537 100.734 51.7273 100.714 51.8046L94.0455 82.6364H62.5455C62.5037 82.2079 62.4262 81.7837 62.3136 81.3682V81.2182C62.2027 80.8285 62.0567 80.4497 61.8773 80.0864L61.7136 79.9091C61.5287 79.5583 61.3191 79.2211 61.0864 78.9L60.9636 78.75C60.7257 78.4369 60.461 78.1448 60.1727 77.8773L60.0364 77.7546C59.7449 77.4861 59.43 77.2443 59.0955 77.0318L58.9455 76.9364C58.5959 76.7277 58.2312 76.5454 57.8545 76.3909H57.7182C57.3246 76.2379 56.9186 76.1193 56.5045 76.0364H56.4091C55.5091 75.8546 54.5818 75.8546 53.6818 76.0364H53.5864C53.1723 76.1193 52.7663 76.2379 52.3727 76.3909H52.2364C51.8597 76.5454 51.495 76.7277 51.1455 76.9364L50.9955 77.0318C50.6609 77.2443 50.346 77.4861 50.0545 77.7546L49.9182 77.8773C49.6299 78.1448 49.3652 78.4369 49.1273 78.75L49.0045 78.9C48.7718 79.2211 48.5622 79.5583 48.3773 79.9091L48.2955 80.0728C48.1161 80.436 47.97 80.8149 47.8591 81.2046V81.3546C47.7181 81.7721 47.6131 82.2009 47.5455 82.6364H42.35L44.8182 75.3546C44.8598 75.2677 44.8825 75.173 44.8849 75.0766C44.8872 74.9803 44.8691 74.8846 44.8318 74.7958C44.7945 74.707 44.7387 74.6271 44.6683 74.5614C44.5978 74.4957 44.5142 74.4456 44.423 74.4146C44.3318 74.3835 44.235 74.3722 44.1391 74.3812C44.0432 74.3903 43.9503 74.4196 43.8665 74.4672C43.7827 74.5148 43.71 74.5796 43.6531 74.6573C43.5962 74.7351 43.5564 74.824 43.5364 74.9182L41.8318 79.9091H41.3273C40.7538 79.9086 40.1948 80.0888 39.7297 80.4242C39.2646 80.7596 38.917 81.2331 38.7364 81.7773L38 84H47.5455C47.5455 85.9892 48.3356 87.8968 49.7422 89.3033C51.1487 90.7098 53.0563 91.5 55.0455 91.5C57.0346 91.5 58.9422 90.7098 60.3488 89.3033C61.7553 87.8968 62.5455 85.9892 62.5455 84H99.3636C99.3636 85.9892 100.154 87.8968 101.56 89.3033C102.967 90.7098 104.875 91.5 106.864 91.5C108.853 91.5 110.76 90.7098 112.167 89.3033C113.573 87.8968 114.364 85.9892 114.364 84H122.545L122.709 83.4955C122.931 82.8172 122.878 82.0788 122.562 81.4389C122.246 80.799 121.692 80.3085 121.018 80.0728L124.373 70.6228C124.684 69.7762 124.803 68.8713 124.723 67.9731C124.643 67.0748 124.365 66.2054 123.909 65.4273ZM55.0455 89.4546C53.8318 89.4546 52.6454 89.0947 51.6363 88.4204C50.6272 87.7461 49.8406 86.7878 49.3762 85.6665C48.9117 84.5452 48.7902 83.3114 49.027 82.1211C49.2638 80.9307 49.8482 79.8373 50.7064 78.9791C51.5646 78.121 52.658 77.5365 53.8483 77.2998C55.0386 77.063 56.2725 77.1845 57.3937 77.6489C58.515 78.1134 59.4734 78.8999 60.1477 79.909C60.8219 80.9182 61.1818 82.1046 61.1818 83.3182C61.1782 84.9446 60.5306 86.5033 59.3805 87.6533C58.2305 88.8033 56.6718 89.451 55.0455 89.4546ZM106.864 89.4546C105.65 89.4546 104.464 89.0947 103.454 88.4204C102.445 87.7461 101.659 86.7878 101.194 85.6665C100.73 84.5452 100.608 83.3114 100.845 82.1211C101.082 80.9307 101.666 79.8373 102.525 78.9791C103.383 78.121 104.476 77.5365 105.666 77.2998C106.857 77.063 108.091 77.1845 109.212 77.6489C110.333 78.1134 111.292 78.8999 111.966 79.909C112.64 80.9182 113 82.1046 113 83.3182C112.996 84.9446 112.349 86.5033 111.199 87.6533C110.049 88.8033 108.49 89.451 106.864 89.4546ZM123.091 70.1591L118.659 82.6364H114.364C114.322 82.2079 114.244 81.7837 114.132 81.3682V81.2182C114.019 80.8293 113.873 80.4507 113.695 80.0864L113.532 79.9091C113.344 79.5601 113.134 79.223 112.905 78.9L112.782 78.75C112.544 78.4369 112.279 78.1448 111.991 77.8773L111.855 77.7409C111.559 77.481 111.245 77.2439 110.914 77.0318L110.764 76.9364C110.417 76.7223 110.052 76.5398 109.673 76.3909H109.536C109.143 76.2379 108.737 76.1193 108.323 76.0364H108.227C107.327 75.8527 106.4 75.8527 105.5 76.0364H105.405C104.991 76.1193 104.584 76.2379 104.191 76.3909H104.055C103.675 76.5398 103.31 76.7223 102.964 76.9364L102.814 77.0318C102.482 77.2439 102.168 77.481 101.873 77.7409L101.736 77.8773C101.448 78.1448 101.183 78.4369 100.945 78.75L100.823 78.9C100.593 79.223 100.383 79.5601 100.195 79.9091L100.114 80.0728C99.9365 80.437 99.7905 80.8157 99.6773 81.2046V81.3546C99.5363 81.7721 99.4313 82.2009 99.3636 82.6364H95.4091L101.968 52.6364H111.923C112.748 52.6369 113.56 52.8521 114.277 53.2609C114.994 53.6697 115.593 54.2581 116.014 54.9682L122.668 66.1228C123.031 66.7231 123.257 67.3961 123.33 68.0938C123.403 68.7914 123.321 69.4966 123.091 70.1591Z" fill="white"/>
<path d="M113.696 57.0819C113.398 56.5601 112.967 56.1264 112.447 55.8246C111.928 55.5229 111.338 55.3639 110.737 55.3637H105.5C105.353 55.3637 105.209 55.4115 105.091 55.5C104.973 55.5886 104.887 55.713 104.846 55.8546L102.118 65.4C102.092 65.502 102.088 65.6085 102.107 65.7121C102.125 65.8158 102.167 65.914 102.228 66C102.29 66.0855 102.372 66.1548 102.467 66.2023C102.562 66.2497 102.667 66.2739 102.773 66.2728H113.068C113.668 66.2753 114.258 66.119 114.778 65.8196C115.298 65.5202 115.729 65.0884 116.028 64.5682C116.328 64.053 116.487 63.4671 116.487 62.8705C116.487 62.2739 116.328 61.688 116.028 61.1728L113.696 57.0819ZM114.841 63.9C114.663 64.2121 114.404 64.4712 114.093 64.6509C113.782 64.8306 113.428 64.9244 113.068 64.9228H103.673L106.018 56.7409H110.737C111.098 56.7393 111.453 56.8345 111.765 57.0168C112.076 57.1991 112.334 57.4617 112.509 57.7773L114.855 61.8682C115.027 62.1771 115.117 62.5254 115.114 62.8791C115.112 63.2328 115.018 63.5799 114.841 63.8864V63.9Z" fill="white"/>
<path d="M55.0452 79.9091C54.371 79.9091 53.7119 80.1091 53.1513 80.4837C52.5906 80.8583 52.1537 81.3907 51.8957 82.0136C51.6376 82.6365 51.5701 83.322 51.7017 83.9833C51.8332 84.6446 52.1579 85.252 52.6347 85.7288C53.1114 86.2056 53.7189 86.5303 54.3802 86.6618C55.0415 86.7933 55.7269 86.7258 56.3498 86.4678C56.9728 86.2098 57.5052 85.7728 57.8798 85.2122C58.2544 84.6516 58.4543 83.9925 58.4543 83.3182C58.4543 82.4141 58.0952 81.547 57.4558 80.9076C56.8165 80.2683 55.9494 79.9091 55.0452 79.9091ZM55.0452 85.3637C54.6407 85.3637 54.2452 85.2437 53.9089 85.019C53.5725 84.7942 53.3103 84.4747 53.1555 84.101C53.0007 83.7272 52.9602 83.3159 53.0391 82.9192C53.118 82.5224 53.3128 82.1579 53.5989 81.8719C53.885 81.5858 54.2494 81.391 54.6462 81.3121C55.043 81.2331 55.4542 81.2737 55.828 81.4285C56.2018 81.5833 56.5212 81.8455 56.746 82.1818C56.9707 82.5182 57.0907 82.9137 57.0907 83.3182C57.0907 83.8607 56.8752 84.381 56.4916 84.7646C56.108 85.1482 55.5877 85.3637 55.0452 85.3637Z" fill="white"/>
<path d="M106.864 79.9091C106.189 79.9091 105.53 80.1091 104.97 80.4837C104.409 80.8583 103.972 81.3907 103.714 82.0136C103.456 82.6365 103.389 83.322 103.52 83.9833C103.652 84.6446 103.976 85.252 104.453 85.7288C104.93 86.2056 105.537 86.5303 106.199 86.6618C106.86 86.7933 107.545 86.7258 108.168 86.4678C108.791 86.2098 109.324 85.7728 109.698 85.2122C110.073 84.6516 110.273 83.9925 110.273 83.3182C110.273 82.4141 109.914 81.547 109.274 80.9076C108.635 80.2683 107.768 79.9091 106.864 79.9091ZM106.864 85.3637C106.459 85.3637 106.064 85.2437 105.727 85.019C105.391 84.7942 105.129 84.4747 104.974 84.101C104.819 83.7272 104.779 83.3159 104.857 82.9192C104.936 82.5224 105.131 82.1579 105.417 81.8719C105.703 81.5858 106.068 81.391 106.465 81.3121C106.861 81.2331 107.273 81.2737 107.646 81.4285C108.02 81.5833 108.34 81.8455 108.564 82.1818C108.789 82.5182 108.909 82.9137 108.909 83.3182C108.909 83.8607 108.694 84.381 108.31 84.7646C107.926 85.1482 107.406 85.3637 106.864 85.3637Z" fill="white"/>
<path d="M42.0911 51.2728H72.0911C72.4528 51.2728 72.7996 51.1291 73.0554 50.8734C73.3111 50.6176 73.4548 50.2708 73.4548 49.9091C73.4548 49.5475 73.3111 49.2006 73.0554 48.9449C72.7996 48.6891 72.4528 48.5455 72.0911 48.5455H42.0911C41.7295 48.5455 41.3826 48.6891 41.1269 48.9449C40.8712 49.2006 40.7275 49.5475 40.7275 49.9091C40.7275 50.2708 40.8712 50.6176 41.1269 50.8734C41.3826 51.1291 41.7295 51.2728 42.0911 51.2728Z" fill="white"/>
<path d="M68 63.5455C68 63.1838 67.8563 62.837 67.6006 62.5812C67.3449 62.3255 66.998 62.1818 66.6364 62.1818H43.4545C43.0929 62.1818 42.746 62.3255 42.4903 62.5812C42.2346 62.837 42.0909 63.1838 42.0909 63.5455C42.0909 63.9071 42.2346 64.254 42.4903 64.5097C42.746 64.7654 43.0929 64.9091 43.4545 64.9091H66.6364C66.998 64.9091 67.3449 64.7654 67.6006 64.5097C67.8563 64.254 68 63.9071 68 63.5455Z" fill="white"/>
<path d="M70.7271 56.7273C70.7271 56.3657 70.5834 56.0188 70.3277 55.7631C70.0719 55.5073 69.7251 55.3637 69.3634 55.3637H44.818C44.4563 55.3637 44.1095 55.5073 43.8537 55.7631C43.598 56.0188 43.4543 56.3657 43.4543 56.7273C43.4543 57.089 43.598 57.4358 43.8537 57.6915C44.1095 57.9473 44.4563 58.0909 44.818 58.0909H69.3634C69.7251 58.0909 70.0719 57.9473 70.3277 57.6915C70.5834 57.4358 70.7271 57.089 70.7271 56.7273Z" fill="white"/>
<path d="M40.7271 58.0909C41.4802 58.0909 42.0907 57.4804 42.0907 56.7273C42.0907 55.9742 41.4802 55.3637 40.7271 55.3637C39.9739 55.3637 39.3634 55.9742 39.3634 56.7273C39.3634 57.4804 39.9739 58.0909 40.7271 58.0909Z" fill="white"/>
<path d="M46.182 69C45.8204 69 45.4735 69.1437 45.2178 69.3994C44.9621 69.6552 44.8184 70.002 44.8184 70.3637C44.8184 70.7253 44.9621 71.0722 45.2178 71.3279C45.4735 71.5836 45.8204 71.7273 46.182 71.7273H63.9093C64.271 71.7273 64.6178 71.5836 64.8735 71.3279C65.1293 71.0722 65.2729 70.7253 65.2729 70.3637C65.2729 70.002 65.1293 69.6552 64.8735 69.3994C64.6178 69.1437 64.271 69 63.9093 69H46.182Z" fill="white"/>
<path d="M42.0911 71.7273C42.8442 71.7273 43.4548 71.1168 43.4548 70.3637C43.4548 69.6105 42.8442 69 42.0911 69C41.338 69 40.7275 69.6105 40.7275 70.3637C40.7275 71.1168 41.338 71.7273 42.0911 71.7273Z" fill="white"/>
<defs>
<filter id="filter0_di_412_839" x="0" y="0" width="162" height="139" filterUnits="userSpaceOnUse" color-interpolation-filters="sRGB">
<feFlood flood-opacity="0" result="BackgroundImageFix"/>
<feColorMatrix in="SourceAlpha" type="matrix" values="0 0 0 0 0 0 0 0 0 0 0 0 0 0 0 0 0 0 127 0" result="hardAlpha"/>
<feOffset dy="4"/>
<feGaussianBlur stdDeviation="6"/>
<feComposite in2="hardAlpha" operator="out"/>
<feColorMatrix type="matrix" values="0 0 0 0 0 0 0 0 0 0 0 0 0 0 0 0 0 0 0.12 0"/>
<feBlend mode="normal" in2="BackgroundImageFix" result="effect1_dropShadow_412_839"/>
<feBlend mode="normal" in="SourceGraphic" in2="effect1_dropShadow_412_839" result="shape"/>
<feColorMatrix in="SourceAlpha" type="matrix" values="0 0 0 0 0 0 0 0 0 0 0 0 0 0 0 0 0 0 127 0" result="hardAlpha"/>
<feOffset dy="4"/>
<feGaussianBlur stdDeviation="2"/>
<feComposite in2="hardAlpha" operator="arithmetic" k2="-1" k3="1"/>
<feColorMatrix type="matrix" values="0 0 0 0 1 0 0 0 0 1 0 0 0 0 1 0 0 0 0.25 0"/>
<feBlend mode="normal" in2="shape" result="effect2_innerShadow_412_839"/>
</filter>
<linearGradient id="paint0_linear_412_839" x1="12" y1="65.5" x2="150" y2="65.5" gradientUnits="userSpaceOnUse">
<stop stop-color="#5D1E79"/>
<stop offset="0.6" stop-color="#770D62"/>
<stop offset="1" stop-color="#8B0051"/>
</linearGradient>
</defs>
</svg>
