<svg width="162" height="139" viewBox="0 0 162 139" fill="none" xmlns="http://www.w3.org/2000/svg">
<g filter="url(#filter0_di_314_79)">
<rect x="12" y="8" width="138" height="115" rx="14" fill="url(#paint0_linear_314_79)"/>
</g>
<path d="M73.9669 54.6257L82.4372 54.6256C82.4375 54.6256 82.4377 54.6257 82.438 54.6257C82.7954 54.6266 83.1378 54.769 83.3905 55.0217C83.6432 55.2744 83.7856 55.6169 83.7866 55.9742C83.7866 55.9745 83.7866 55.9748 83.7866 55.975V102.645C83.7866 102.645 83.7866 102.645 83.7866 102.646C83.7856 103.003 83.6432 103.345 83.3905 103.598C83.1376 103.851 82.7948 103.993 82.4372 103.994H73.9665C73.6088 103.993 73.266 103.851 73.0131 103.598C72.7604 103.345 72.618 103.003 72.6171 102.646C72.6171 102.645 72.6171 102.645 72.6171 102.645L72.6171 55.9752C72.6191 55.6179 72.7619 55.2758 73.0146 55.0231C73.2673 54.7704 73.6096 54.6276 73.9669 54.6257ZM73.9669 54.6257H73.9644V53.6259L73.9685 54.6256C73.968 54.6256 73.9675 54.6257 73.9669 54.6257ZM95.027 32.8569C99.7031 35.7813 103.535 39.8629 106.158 44.6963L87.1586 44.3008H86.1586V44.3017L86.1586 47.3131C86.1586 47.3135 86.1586 47.314 86.1586 47.3145C86.1574 47.6716 86.0151 48.0138 85.7625 48.2664C85.5098 48.5191 85.1673 48.6615 84.81 48.6624C84.8097 48.6624 84.8095 48.6624 84.8092 48.6624H72.5581C72.5578 48.6624 72.5576 48.6624 72.5573 48.6624C72.1999 48.6615 71.8575 48.5191 71.6048 48.2664C71.3519 48.0135 71.2095 47.6707 71.2087 47.3131L71.2003 47.3131C71.1397 46.0863 70.7526 44.8956 70.076 43.8654L70.051 43.8274L70.0227 43.7918C69.8919 43.6274 69.7665 43.4587 69.6467 43.2861L69.6208 43.2486L69.5915 43.2137C68.8882 42.3745 67.9964 41.7135 66.9888 41.2849C65.9812 40.8563 64.8864 40.6722 63.7941 40.7477C62.7017 40.8231 61.6427 41.156 60.7036 41.719C59.7645 42.2821 58.9719 43.0594 58.3907 43.9874L58.3534 44.0469L58.3249 44.1111C58.1623 44.4758 57.8792 44.7734 57.523 44.9538C57.1668 45.1343 56.7594 45.1865 56.3692 45.1019C55.979 45.0172 55.6299 44.8008 55.3805 44.4889C55.1312 44.1771 54.9968 43.7889 55.0001 43.3897L55.0001 43.3897V43.3816L55.0001 32.1146L55.0001 32.114C54.9998 31.7089 55.1411 31.3164 55.3996 31.0044C55.658 30.6924 56.0173 30.4805 56.4154 30.4054C56.8135 30.3302 57.2253 30.3965 57.5797 30.5928C57.9341 30.7891 58.2088 31.1031 58.3562 31.4804L58.3931 31.5747L58.4481 31.6597C59.0272 32.5546 59.8049 33.3039 60.7207 33.8493C61.6366 34.3946 62.6659 34.7214 63.7287 34.8041C64.7914 34.8867 65.8589 34.7232 66.8481 34.326C67.8373 33.9289 68.7216 33.309 69.4321 32.5144L69.4815 32.4592L69.5222 32.3973C69.6754 32.1642 69.8386 31.9379 70.0112 31.7189L70.1818 31.5139C71.094 30.4176 72.2365 29.5357 73.5281 28.9309C74.8196 28.3262 76.2286 28.0134 77.6548 28.0149H77.6558H77.804H77.8581L77.9118 28.009C77.9697 28.0028 78.0278 27.9997 78.086 28L78.091 28C84.0802 27.9981 89.9491 29.6812 95.027 32.8569ZM78.0906 27.0002L78.0906 27L78.0906 27.0002Z" stroke="#F8F8F8" stroke-width="2"/>
<defs>
<filter id="filter0_di_314_79" x="0" y="0" width="162" height="139" filterUnits="userSpaceOnUse" color-interpolation-filters="sRGB">
<feFlood flood-opacity="0" result="BackgroundImageFix"/>
<feColorMatrix in="SourceAlpha" type="matrix" values="0 0 0 0 0 0 0 0 0 0 0 0 0 0 0 0 0 0 127 0" result="hardAlpha"/>
<feOffset dy="4"/>
<feGaussianBlur stdDeviation="6"/>
<feComposite in2="hardAlpha" operator="out"/>
<feColorMatrix type="matrix" values="0 0 0 0 0 0 0 0 0 0 0 0 0 0 0 0 0 0 0.12 0"/>
<feBlend mode="normal" in2="BackgroundImageFix" result="effect1_dropShadow_314_79"/>
<feBlend mode="normal" in="SourceGraphic" in2="effect1_dropShadow_314_79" result="shape"/>
<feColorMatrix in="SourceAlpha" type="matrix" values="0 0 0 0 0 0 0 0 0 0 0 0 0 0 0 0 0 0 127 0" result="hardAlpha"/>
<feOffset dy="4"/>
<feGaussianBlur stdDeviation="2"/>
<feComposite in2="hardAlpha" operator="arithmetic" k2="-1" k3="1"/>
<feColorMatrix type="matrix" values="0 0 0 0 1 0 0 0 0 1 0 0 0 0 1 0 0 0 0.25 0"/>
<feBlend mode="normal" in2="shape" result="effect2_innerShadow_314_79"/>
</filter>
<linearGradient id="paint0_linear_314_79" x1="81" y1="8" x2="81" y2="123" gradientUnits="userSpaceOnUse">
<stop stop-color="#00B9F2"/>
<stop offset="1" stop-color="#2C4F94"/>
</linearGradient>
</defs>
</svg>
