<svg width="162" height="139" viewBox="0 0 162 139" fill="none" xmlns="http://www.w3.org/2000/svg">
<g filter="url(#filter0_di_314_80)">
<rect x="12" y="8" width="138" height="115" rx="14" fill="url(#paint0_linear_314_80)"/>
</g>
<path d="M100.716 57.7354L100.716 57.7355L88.3476 78.9213L87.9732 78.7027L88.3476 78.9214C88.0852 79.3708 88.0831 79.9265 88.3424 80.378L88.3424 80.3781C88.6016 80.8295 89.0824 81.108 89.603 81.108H114.341C114.861 81.108 115.342 80.8295 115.601 80.3781L115.601 80.378C115.86 79.9265 115.858 79.3711 115.596 78.9213L115.596 78.9213M100.716 57.7354L115.596 78.9213M100.716 57.7354C100.977 57.2891 101.455 57.0146 101.972 57.0146C102.489 57.0146 102.967 57.2891 103.227 57.7355C103.227 57.7355 103.227 57.7355 103.227 57.7355M100.716 57.7354L103.227 57.7355M115.596 78.9213L103.227 57.7355M115.596 78.9213L103.227 57.7355M92.5739 77.4484L92.1348 78.2005H93.0057H110.938H111.808L111.369 77.4484L102.404 62.0909L101.972 61.3512L101.54 62.0909L92.5739 77.4484ZM80.3684 84.8404L79.9293 85.5925H80.8002H126.546C127.349 85.5925 128 86.2435 128 87.0461C128 87.8489 127.35 88.4997 126.547 88.4997H67.8678C67.8657 88.4997 67.8637 88.4997 67.8618 88.4998C67.8598 88.4997 67.8578 88.4997 67.8558 88.4997H58.5073C58.5052 88.4997 58.5032 88.4997 58.5013 88.4998C58.4994 88.4997 58.4974 88.4997 58.4953 88.4997H35.9536C35.4331 88.4997 34.9522 88.2212 34.6931 87.7698L34.693 87.7698C34.4337 87.3182 34.4359 86.7625 34.6983 86.3131L34.2667 86.0611L34.6983 86.3131L59.2728 44.2208L59.2728 44.2208C59.5333 43.7745 60.0112 43.5 60.5281 43.5H101.971C102.026 43.5 102.083 43.5042 102.146 43.5118C102.152 43.5126 102.154 43.513 102.159 43.5138C102.165 43.5147 102.173 43.5162 102.194 43.5193C102.239 43.5261 102.282 43.5348 102.325 43.5455L102.327 43.546L102.34 43.5491C102.355 43.5528 102.359 43.5538 102.364 43.5553L102.367 43.5561C102.423 43.5717 102.475 43.5892 102.523 43.6089L102.532 43.6125L102.538 43.6149C102.585 43.6346 102.633 43.6584 102.683 43.6865C102.684 43.687 102.685 43.688 102.688 43.6898L102.699 43.6968L102.715 43.7066C102.755 43.7307 102.793 43.7556 102.829 43.7818L102.829 43.7818L102.833 43.7849C102.848 43.7959 102.859 43.8038 102.867 43.8104L102.867 43.8105C102.909 43.8432 102.947 43.8759 102.981 43.9089L102.983 43.9103C102.99 43.9176 102.997 43.9236 103.001 43.9275L103.003 43.9292C103.038 43.9644 103.072 44.0037 103.108 44.0478C103.111 44.0519 103.112 44.0544 103.115 44.0585C103.119 44.0631 103.124 44.0698 103.134 44.0832C103.162 44.1213 103.188 44.1589 103.211 44.1967C103.219 44.2108 103.227 44.2223 103.232 44.2303C103.233 44.2321 103.234 44.2338 103.236 44.2354L121.305 75.1865L121.305 75.1866C121.71 75.8798 121.476 76.77 120.783 77.1747L120.783 77.1747C120.09 77.5793 119.199 77.3456 118.795 76.6522L118.795 76.6521L102.404 48.5765L101.972 47.8369L101.54 48.5765L80.3684 84.8404ZM67.8312 88.501C67.8306 88.501 67.8312 88.501 67.8325 88.5009L67.8312 88.501ZM103.01 43.935C103.011 43.9363 103.01 43.9351 103.008 43.9331L103.01 43.935ZM103.227 44.2207L103.227 44.2208L103.227 44.2207ZM76.2759 85.5925H76.563L76.7077 85.3446L99.0009 47.1593L99.4399 46.4072H98.5691H84.0888H83.8011L83.6565 46.656L61.4654 84.8413L61.0289 85.5925H61.8977H66.7391H67.0268L67.1714 85.3437L86.3976 52.2606L86.3977 52.2604C86.8008 51.5662 87.691 51.3304 88.3846 51.734L88.3848 51.7342C89.0788 52.1374 89.3146 53.027 88.9112 53.7214C88.9112 53.7214 88.9112 53.7214 88.9112 53.7214L70.8259 84.8413L70.3893 85.5925H71.2582H76.2759ZM61.6495 46.4072H61.3624L61.2177 46.6552L38.9245 84.8404L38.4854 85.5925H39.3563H57.3786H57.6664L57.8109 85.3437L80.0023 47.1585L80.4388 46.4072H79.57H75.049H74.7613L74.6167 46.656L56.4272 77.9551L56.4271 77.9553C56.1579 78.4189 55.6711 78.6787 55.1687 78.6787C54.9212 78.6787 54.6706 78.6155 54.4399 78.4815C53.746 78.0782 53.5102 77.1886 53.9136 76.4943L70.9619 47.1585L71.3985 46.4072H70.5296H61.6495Z" stroke="white"/>
<defs>
<filter id="filter0_di_314_80" x="0" y="0" width="162" height="139" filterUnits="userSpaceOnUse" color-interpolation-filters="sRGB">
<feFlood flood-opacity="0" result="BackgroundImageFix"/>
<feColorMatrix in="SourceAlpha" type="matrix" values="0 0 0 0 0 0 0 0 0 0 0 0 0 0 0 0 0 0 127 0" result="hardAlpha"/>
<feOffset dy="4"/>
<feGaussianBlur stdDeviation="6"/>
<feComposite in2="hardAlpha" operator="out"/>
<feColorMatrix type="matrix" values="0 0 0 0 0 0 0 0 0 0 0 0 0 0 0 0 0 0 0.12 0"/>
<feBlend mode="normal" in2="BackgroundImageFix" result="effect1_dropShadow_314_80"/>
<feBlend mode="normal" in="SourceGraphic" in2="effect1_dropShadow_314_80" result="shape"/>
<feColorMatrix in="SourceAlpha" type="matrix" values="0 0 0 0 0 0 0 0 0 0 0 0 0 0 0 0 0 0 127 0" result="hardAlpha"/>
<feOffset dy="4"/>
<feGaussianBlur stdDeviation="2"/>
<feComposite in2="hardAlpha" operator="arithmetic" k2="-1" k3="1"/>
<feColorMatrix type="matrix" values="0 0 0 0 1 0 0 0 0 1 0 0 0 0 1 0 0 0 0.25 0"/>
<feBlend mode="normal" in2="shape" result="effect2_innerShadow_314_80"/>
</filter>
<linearGradient id="paint0_linear_314_80" x1="81" y1="8" x2="81" y2="123" gradientUnits="userSpaceOnUse">
<stop stop-color="#00B9F2"/>
<stop offset="1" stop-color="#2C4F94"/>
</linearGradient>
</defs>
</svg>
