<svg width="162" height="139" viewBox="0 0 162 139" fill="none" xmlns="http://www.w3.org/2000/svg">
<g filter="url(#filter0_di_412_863)">
<rect x="12" y="8" width="138" height="115" rx="14" fill="url(#paint0_linear_412_863)"/>
</g>
<mask id="path-2-inside-1_412_863" fill="white">
<path d="M72.4524 98.9503H60.0706V100.673H72.4524V98.9503Z"/>
<path d="M100.93 98.9503H88.5477V100.673H100.93V98.9503Z"/>
<path d="M109.808 92.148C109.049 90.5017 107.97 89.1768 106.742 88.1219C104.281 86.0117 101.258 84.9469 98.7003 84.207C96.9972 83.7183 95.4791 83.3719 94.5348 83.0368C94.1036 82.8868 93.7273 82.8343 93.4142 82.7719C93.3386 82.7582 93.2835 82.7419 93.2161 82.7281L92.5874 79.8769C92.293 78.5533 91.2355 77.5643 89.9381 77.3294C89.9381 76.7245 89.9381 76.0557 89.9381 75.3206C91.4837 73.6007 93.706 70.9356 94.6193 66.7095C94.9369 66.5645 95.2517 66.4032 95.5567 66.1908C96.0573 65.8446 96.5155 65.3896 96.9192 64.822C97.7291 63.6809 98.3536 62.1244 99.0454 59.7146C99.306 58.7984 99.4278 58.0009 99.4278 57.2921C99.4304 56.4735 99.2598 55.762 98.9511 55.1871C98.8711 55.036 98.7636 54.9259 98.6692 54.7971V53.207H102.41V46.2647H100.076C99.3525 37.7174 93.1911 30.7475 85.0487 28.815V28.0163C85.0487 26.3501 83.6988 25.0013 82.0331 25H78.9693C77.3018 25.0013 75.9537 26.3501 75.9537 28.0163V28.815C67.8113 30.7474 61.6483 37.7174 60.9245 46.2647H58.5926V53.207H62.3338V54.7971C62.2369 54.9259 62.1294 55.036 62.0494 55.1871C61.7407 55.762 61.5725 56.4733 61.5725 57.2921C61.5744 58.0009 61.6943 58.7983 61.9569 59.7146C62.6469 62.1246 63.2712 63.6809 64.0813 64.822C64.485 65.3896 64.945 65.8444 65.4456 66.1908C65.7486 66.4032 66.0636 66.5645 66.3836 66.7095C67.2961 70.9356 69.5168 73.6007 71.0622 75.3206C71.0622 76.0556 71.0622 76.7245 71.0622 77.3294C69.7666 77.5643 68.7073 78.5533 68.4149 79.8769L67.7842 82.7281C67.7186 82.7419 67.6617 82.7582 67.5885 82.7719C67.2729 82.8343 66.8967 82.8868 66.4654 83.0368C65.5235 83.3718 64.0029 83.7181 62.3018 84.207C59.7423 84.9469 56.7186 86.0119 54.2581 88.1219C53.03 89.1768 51.9513 90.5019 51.1943 92.148C50.4331 93.793 50 95.7479 50 98.0354C50 98.5666 50.0232 99.1165 50.0713 99.6855C50.1075 100.083 50.2588 100.407 50.4351 100.673C50.7737 101.169 51.2237 101.54 51.7856 101.919C52.7694 102.571 54.1344 103.209 55.8818 103.834C61.1118 105.699 69.7711 107.407 80.5003 107.409C91.2289 107.407 99.8881 105.699 105.118 103.834C106.866 103.209 108.231 102.572 109.214 101.919C109.778 101.54 110.226 101.169 110.567 100.673C110.744 100.407 110.895 100.083 110.929 99.6855C110.977 99.1167 111 98.5666 111 98.0354C111.002 95.7479 110.567 93.7928 109.808 92.148ZM90.2741 80.3881L93.3067 94.1092L84.868 92.9941L81.6717 96.4278L81.6843 93.8942H81.6L89.3261 84.2705L89.3198 83.9581C89.3198 83.9555 89.3049 83.2844 89.2923 82.4318C89.2798 81.5805 89.2648 80.5493 89.2648 79.8468C89.2648 79.7744 89.2648 79.7094 89.2674 79.642H89.345C89.7903 79.642 90.1773 79.9531 90.2741 80.3881ZM76.7068 31.0699V33.9549H78.3218V28.0163C78.3218 27.6601 78.6118 27.3701 78.9693 27.3688H82.0331C82.3886 27.3701 82.6787 27.6601 82.6813 28.0163V33.9549H84.2963V31.0699C91.7274 32.7374 97.3468 39.1787 97.7568 47.0174H63.2437C63.6564 39.1787 69.2731 32.7374 76.7068 31.0699ZM60.9601 50.8397V48.6324H100.042V50.8397H60.9601ZM68.5662 65.6445L68.4461 64.9659L67.7986 64.7346C67.3867 64.5872 67.071 64.4372 66.7981 64.2471C66.3918 63.9609 66.0261 63.5709 65.5969 62.7721C65.1744 61.9771 64.7243 60.7883 64.2342 59.0647C64.018 58.3122 63.9418 57.7273 63.9418 57.2922C63.9418 56.786 64.0387 56.4899 64.1373 56.3049C64.2867 56.0324 64.4699 55.9174 64.7029 55.8237C64.8904 55.7524 65.0879 55.7337 65.1661 55.7298L66.4316 55.8861V54.5449C66.4316 54.5449 66.4316 54.1349 66.4316 53.2074H94.5681C94.5681 54.1349 94.5681 54.5449 94.5681 54.5449V55.8861L95.8337 55.7298C95.9137 55.7337 96.1094 55.7524 96.2968 55.8237C96.53 55.9174 96.713 56.0324 96.8624 56.3049C96.9612 56.4899 97.0581 56.786 97.0598 57.2922C97.0598 57.7273 96.9818 58.3122 96.7674 59.0647C96.2755 60.7885 95.8274 61.9771 95.4051 62.7721C94.9763 63.5708 94.6082 63.9608 94.2043 64.2471C93.9286 64.4372 93.6156 64.5872 93.203 64.7346L92.5555 64.9659L92.4355 65.6445C91.6761 69.887 89.4893 72.2757 87.8743 74.0745L87.5693 74.4119V74.8669C87.5693 76.2044 87.5693 77.317 87.5693 78.2693V78.3068L87.5756 78.4581H87.5487C87.5487 79.0305 87.5424 79.3606 87.5424 79.8468C87.5424 80.993 87.5756 82.9293 87.5905 83.6781L85.2586 86.5818C83.9481 87.3292 82.3037 87.7906 80.5 87.7893C78.6975 87.7906 77.0531 87.3293 75.7407 86.5818L73.4107 83.6781C73.4239 82.9293 73.4569 80.993 73.4569 79.8468C73.4569 79.3608 73.4507 79.0305 73.4507 78.4581H73.4257L73.4301 78.3068V78.2693C73.4301 77.317 73.4301 76.2043 73.4301 74.8669V74.4119L73.127 74.0745C71.5124 72.2757 69.3238 69.887 68.5662 65.6445ZM70.7281 80.388C70.8231 79.9529 71.2118 79.6418 71.6575 79.6418H71.7355C71.7355 79.7092 71.7355 79.7743 71.7355 79.8467C71.7355 80.5493 71.723 81.5805 71.708 82.4316C71.6954 83.284 71.683 83.9554 71.683 83.958L71.6768 84.2704L79.4004 93.894H79.3184L79.3284 96.4276L76.1347 92.994L67.6936 94.1091L70.7281 80.388ZM108.573 99.384C108.542 99.4278 108.479 99.5015 108.367 99.5991C108.105 99.8328 107.63 100.148 106.984 100.479C105.69 101.147 103.718 101.892 101.209 102.57C96.1878 103.93 89.0105 105.041 80.5005 105.041C71.9918 105.041 64.8149 103.93 59.7933 102.57C57.2845 101.892 55.312 101.147 54.0165 100.479C53.3709 100.148 52.8959 99.8328 52.6352 99.5991C52.5214 99.5015 52.4583 99.4278 52.427 99.384C52.3915 98.9179 52.3702 98.4653 52.3702 98.0352C52.3746 95.3777 53.0239 93.4364 54.0271 91.9141C55.5307 89.6392 57.9426 88.2466 60.4621 87.2979C61.7175 86.8242 62.9857 86.4643 64.1507 86.1531C65.305 85.8418 66.3482 85.5855 67.2206 85.2807L64.6506 96.8992L75.2324 95.5031L80.5005 101.162L85.7698 95.5031L96.3497 96.8992L93.7815 85.2807C94.6545 85.5855 95.6978 85.8418 96.8496 86.1531C98.0146 86.4643 99.2852 86.8242 100.54 87.2979C103.06 88.2466 105.471 89.6392 106.973 91.9141C107.978 93.4366 108.628 95.3779 108.632 98.0352C108.632 98.4653 108.611 98.9179 108.573 99.384Z"/>
<path d="M81.9005 45.0798V41.815H85.1667V39.015H81.9005V35.7499H79.1016V39.015H75.8362V41.815H79.1016V45.0798H81.9005Z"/>
</mask>
<path d="M72.4524 98.9503H60.0706V100.673H72.4524V98.9503Z" stroke="white" stroke-width="2" mask="url(#path-2-inside-1_412_863)"/>
<path d="M100.93 98.9503H88.5477V100.673H100.93V98.9503Z" stroke="white" stroke-width="2" mask="url(#path-2-inside-1_412_863)"/>
<path d="M109.808 92.148C109.049 90.5017 107.97 89.1768 106.742 88.1219C104.281 86.0117 101.258 84.9469 98.7003 84.207C96.9972 83.7183 95.4791 83.3719 94.5348 83.0368C94.1036 82.8868 93.7273 82.8343 93.4142 82.7719C93.3386 82.7582 93.2835 82.7419 93.2161 82.7281L92.5874 79.8769C92.293 78.5533 91.2355 77.5643 89.9381 77.3294C89.9381 76.7245 89.9381 76.0557 89.9381 75.3206C91.4837 73.6007 93.706 70.9356 94.6193 66.7095C94.9369 66.5645 95.2517 66.4032 95.5567 66.1908C96.0573 65.8446 96.5155 65.3896 96.9192 64.822C97.7291 63.6809 98.3536 62.1244 99.0454 59.7146C99.306 58.7984 99.4278 58.0009 99.4278 57.2921C99.4304 56.4735 99.2598 55.762 98.9511 55.1871C98.8711 55.036 98.7636 54.9259 98.6692 54.7971V53.207H102.41V46.2647H100.076C99.3525 37.7174 93.1911 30.7475 85.0487 28.815V28.0163C85.0487 26.3501 83.6988 25.0013 82.0331 25H78.9693C77.3018 25.0013 75.9537 26.3501 75.9537 28.0163V28.815C67.8113 30.7474 61.6483 37.7174 60.9245 46.2647H58.5926V53.207H62.3338V54.7971C62.2369 54.9259 62.1294 55.036 62.0494 55.1871C61.7407 55.762 61.5725 56.4733 61.5725 57.2921C61.5744 58.0009 61.6943 58.7983 61.9569 59.7146C62.6469 62.1246 63.2712 63.6809 64.0813 64.822C64.485 65.3896 64.945 65.8444 65.4456 66.1908C65.7486 66.4032 66.0636 66.5645 66.3836 66.7095C67.2961 70.9356 69.5168 73.6007 71.0622 75.3206C71.0622 76.0556 71.0622 76.7245 71.0622 77.3294C69.7666 77.5643 68.7073 78.5533 68.4149 79.8769L67.7842 82.7281C67.7186 82.7419 67.6617 82.7582 67.5885 82.7719C67.2729 82.8343 66.8967 82.8868 66.4654 83.0368C65.5235 83.3718 64.0029 83.7181 62.3018 84.207C59.7423 84.9469 56.7186 86.0119 54.2581 88.1219C53.03 89.1768 51.9513 90.5019 51.1943 92.148C50.4331 93.793 50 95.7479 50 98.0354C50 98.5666 50.0232 99.1165 50.0713 99.6855C50.1075 100.083 50.2588 100.407 50.4351 100.673C50.7737 101.169 51.2237 101.54 51.7856 101.919C52.7694 102.571 54.1344 103.209 55.8818 103.834C61.1118 105.699 69.7711 107.407 80.5003 107.409C91.2289 107.407 99.8881 105.699 105.118 103.834C106.866 103.209 108.231 102.572 109.214 101.919C109.778 101.54 110.226 101.169 110.567 100.673C110.744 100.407 110.895 100.083 110.929 99.6855C110.977 99.1167 111 98.5666 111 98.0354C111.002 95.7479 110.567 93.7928 109.808 92.148ZM90.2741 80.3881L93.3067 94.1092L84.868 92.9941L81.6717 96.4278L81.6843 93.8942H81.6L89.3261 84.2705L89.3198 83.9581C89.3198 83.9555 89.3049 83.2844 89.2923 82.4318C89.2798 81.5805 89.2648 80.5493 89.2648 79.8468C89.2648 79.7744 89.2648 79.7094 89.2674 79.642H89.345C89.7903 79.642 90.1773 79.9531 90.2741 80.3881ZM76.7068 31.0699V33.9549H78.3218V28.0163C78.3218 27.6601 78.6118 27.3701 78.9693 27.3688H82.0331C82.3886 27.3701 82.6787 27.6601 82.6813 28.0163V33.9549H84.2963V31.0699C91.7274 32.7374 97.3468 39.1787 97.7568 47.0174H63.2437C63.6564 39.1787 69.2731 32.7374 76.7068 31.0699ZM60.9601 50.8397V48.6324H100.042V50.8397H60.9601ZM68.5662 65.6445L68.4461 64.9659L67.7986 64.7346C67.3867 64.5872 67.071 64.4372 66.7981 64.2471C66.3918 63.9609 66.0261 63.5709 65.5969 62.7721C65.1744 61.9771 64.7243 60.7883 64.2342 59.0647C64.018 58.3122 63.9418 57.7273 63.9418 57.2922C63.9418 56.786 64.0387 56.4899 64.1373 56.3049C64.2867 56.0324 64.4699 55.9174 64.7029 55.8237C64.8904 55.7524 65.0879 55.7337 65.1661 55.7298L66.4316 55.8861V54.5449C66.4316 54.5449 66.4316 54.1349 66.4316 53.2074H94.5681C94.5681 54.1349 94.5681 54.5449 94.5681 54.5449V55.8861L95.8337 55.7298C95.9137 55.7337 96.1094 55.7524 96.2968 55.8237C96.53 55.9174 96.713 56.0324 96.8624 56.3049C96.9612 56.4899 97.0581 56.786 97.0598 57.2922C97.0598 57.7273 96.9818 58.3122 96.7674 59.0647C96.2755 60.7885 95.8274 61.9771 95.4051 62.7721C94.9763 63.5708 94.6082 63.9608 94.2043 64.2471C93.9286 64.4372 93.6156 64.5872 93.203 64.7346L92.5555 64.9659L92.4355 65.6445C91.6761 69.887 89.4893 72.2757 87.8743 74.0745L87.5693 74.4119V74.8669C87.5693 76.2044 87.5693 77.317 87.5693 78.2693V78.3068L87.5756 78.4581H87.5487C87.5487 79.0305 87.5424 79.3606 87.5424 79.8468C87.5424 80.993 87.5756 82.9293 87.5905 83.6781L85.2586 86.5818C83.9481 87.3292 82.3037 87.7906 80.5 87.7893C78.6975 87.7906 77.0531 87.3293 75.7407 86.5818L73.4107 83.6781C73.4239 82.9293 73.4569 80.993 73.4569 79.8468C73.4569 79.3608 73.4507 79.0305 73.4507 78.4581H73.4257L73.4301 78.3068V78.2693C73.4301 77.317 73.4301 76.2043 73.4301 74.8669V74.4119L73.127 74.0745C71.5124 72.2757 69.3238 69.887 68.5662 65.6445ZM70.7281 80.388C70.8231 79.9529 71.2118 79.6418 71.6575 79.6418H71.7355C71.7355 79.7092 71.7355 79.7743 71.7355 79.8467C71.7355 80.5493 71.723 81.5805 71.708 82.4316C71.6954 83.284 71.683 83.9554 71.683 83.958L71.6768 84.2704L79.4004 93.894H79.3184L79.3284 96.4276L76.1347 92.994L67.6936 94.1091L70.7281 80.388ZM108.573 99.384C108.542 99.4278 108.479 99.5015 108.367 99.5991C108.105 99.8328 107.63 100.148 106.984 100.479C105.69 101.147 103.718 101.892 101.209 102.57C96.1878 103.93 89.0105 105.041 80.5005 105.041C71.9918 105.041 64.8149 103.93 59.7933 102.57C57.2845 101.892 55.312 101.147 54.0165 100.479C53.3709 100.148 52.8959 99.8328 52.6352 99.5991C52.5214 99.5015 52.4583 99.4278 52.427 99.384C52.3915 98.9179 52.3702 98.4653 52.3702 98.0352C52.3746 95.3777 53.0239 93.4364 54.0271 91.9141C55.5307 89.6392 57.9426 88.2466 60.4621 87.2979C61.7175 86.8242 62.9857 86.4643 64.1507 86.1531C65.305 85.8418 66.3482 85.5855 67.2206 85.2807L64.6506 96.8992L75.2324 95.5031L80.5005 101.162L85.7698 95.5031L96.3497 96.8992L93.7815 85.2807C94.6545 85.5855 95.6978 85.8418 96.8496 86.1531C98.0146 86.4643 99.2852 86.8242 100.54 87.2979C103.06 88.2466 105.471 89.6392 106.973 91.9141C107.978 93.4366 108.628 95.3779 108.632 98.0352C108.632 98.4653 108.611 98.9179 108.573 99.384Z" stroke="white" stroke-width="2" mask="url(#path-2-inside-1_412_863)"/>
<path d="M81.9005 45.0798V41.815H85.1667V39.015H81.9005V35.7499H79.1016V39.015H75.8362V41.815H79.1016V45.0798H81.9005Z" stroke="white" stroke-width="2" mask="url(#path-2-inside-1_412_863)"/>
<defs>
<filter id="filter0_di_412_863" x="0" y="0" width="162" height="139" filterUnits="userSpaceOnUse" color-interpolation-filters="sRGB">
<feFlood flood-opacity="0" result="BackgroundImageFix"/>
<feColorMatrix in="SourceAlpha" type="matrix" values="0 0 0 0 0 0 0 0 0 0 0 0 0 0 0 0 0 0 127 0" result="hardAlpha"/>
<feOffset dy="4"/>
<feGaussianBlur stdDeviation="6"/>
<feComposite in2="hardAlpha" operator="out"/>
<feColorMatrix type="matrix" values="0 0 0 0 0 0 0 0 0 0 0 0 0 0 0 0 0 0 0.12 0"/>
<feBlend mode="normal" in2="BackgroundImageFix" result="effect1_dropShadow_412_863"/>
<feBlend mode="normal" in="SourceGraphic" in2="effect1_dropShadow_412_863" result="shape"/>
<feColorMatrix in="SourceAlpha" type="matrix" values="0 0 0 0 0 0 0 0 0 0 0 0 0 0 0 0 0 0 127 0" result="hardAlpha"/>
<feOffset dy="4"/>
<feGaussianBlur stdDeviation="2"/>
<feComposite in2="hardAlpha" operator="arithmetic" k2="-1" k3="1"/>
<feColorMatrix type="matrix" values="0 0 0 0 1 0 0 0 0 1 0 0 0 0 1 0 0 0 0.25 0"/>
<feBlend mode="normal" in2="shape" result="effect2_innerShadow_412_863"/>
</filter>
<linearGradient id="paint0_linear_412_863" x1="12" y1="65.5" x2="150" y2="65.5" gradientUnits="userSpaceOnUse">
<stop stop-color="#5D1E79"/>
<stop offset="0.6" stop-color="#770D62"/>
<stop offset="1" stop-color="#8B0051"/>
</linearGradient>
</defs>
</svg>
