<svg width="184" height="44" viewBox="0 0 184 44" fill="none" xmlns="http://www.w3.org/2000/svg">
<path d="M1.85961 8.88677C0.401332 13.4439 4.00145 19.0491 10.9738 24.1531C5.77872 19.6415 3.22674 14.9477 4.5483 11.0286C7.23699 2.82582 25.511 0.683983 45.38 6.7905C50.8485 8.47663 55.8613 9.93491 60.2361 12.259C55.3145 9.34248 49.3446 6.92722 42.7368 4.87652C22.8223 -1.23 4.5483 0.683983 1.85961 8.88677Z" fill="white"/>
<path d="M23.963 28.0723C16.6716 23.9253 12.4791 18.5935 13.6183 14.2187C14.4386 11.1654 17.7653 8.97799 22.5503 8.15771C16.4893 8.659 11.7955 10.9831 10.8385 14.5377C9.65366 19.1403 14.2108 24.6544 22.049 28.9381L23.963 28.0723Z" fill="white"/>
<path d="M23.2337 17.1355C24.5097 13.262 31.8011 11.8948 42.647 15.3127C47.5231 16.8621 51.7156 19.0039 54.3588 21.328C51.7156 19.3685 48.0699 17.5912 43.8774 16.3152C34.4442 13.4442 25.7401 14.219 24.4641 18.1381C23.8717 20.0065 25.0566 22.2395 27.5174 24.3813C24.2819 21.9205 22.5502 19.2773 23.2337 17.1355Z" fill="white"/>
<path d="M46.9277 24.8369C45.9708 27.2065 40.9124 26.6597 36.5831 25.1558C34.3501 24.3811 32.4817 23.2874 31.2969 22.1937C32.4817 23.1507 34.4868 23.9254 36.0818 24.4267C40.4111 25.8394 44.7403 25.3837 45.3783 24.0621C46.6087 21.5102 42.5985 19.9607 40.4111 19.3228C42.1884 19.6873 43.0086 20.0975 44.2391 20.6443C46.8366 22.1482 47.429 23.6976 46.9277 24.8369Z" fill="white"/>
<path fill-rule="evenodd" clip-rule="evenodd" d="M15.9422 32.4014C16.3067 32.7204 16.808 32.9027 17.5827 32.9027C18.5853 32.9027 19.4056 32.4926 19.4056 31.9457C19.4056 30.9431 16.7169 29.4849 12.2053 29.4849C5.91652 29.4849 2.31641 32.2191 2.31641 35.5914C2.31641 38.8269 5.41524 41.8346 12.342 41.8346C16.808 41.8346 19.1777 40.3763 19.1777 39.6928C19.1777 39.3738 18.722 39.1459 18.1751 39.1459C17.8106 39.1459 17.6739 39.1915 17.0359 39.4649C16.5346 39.6472 15.2586 40.1485 13.3446 40.1485C9.74449 40.1485 6.7368 38.3256 6.7368 35.0445C6.7368 32.3558 9.06092 30.852 11.8863 30.852C14.1193 30.852 15.0763 31.6723 15.9422 32.4014Z" fill="white"/>
<path fill-rule="evenodd" clip-rule="evenodd" d="M40.093 35.3635C39.8651 32.2191 36.4928 29.4849 30.3863 29.4849C24.1431 29.4849 20.543 32.2191 20.543 35.6825C20.543 39.7384 25.1001 41.8346 30.3407 41.8346C36.2194 41.8802 40.3664 39.1004 40.093 35.3635ZM35.7637 35.4091C35.8093 36.5484 35.5358 37.8699 34.5789 38.8269C33.4396 39.9206 31.7534 40.2852 30.3863 40.2852C29.2015 40.2852 26.0115 39.9662 25.1456 37.2319C25.0089 36.7762 24.9178 36.2294 24.9178 35.5458C24.9178 34.6344 25.0545 32.2647 28.0622 31.3077C28.7458 31.0798 29.566 30.9887 30.3863 30.9887C30.9787 30.9887 32.9839 31.0343 34.4877 32.3103C35.5814 33.2673 35.7637 34.4977 35.7637 35.4091Z" fill="white"/>
<path fill-rule="evenodd" clip-rule="evenodd" d="M46.7446 30.0777C46.4256 29.8043 46.2889 29.7587 45.7421 29.7587H43.4179C43.0078 29.7587 42.7344 29.8043 42.7344 30.1233V41.2882C42.7344 41.6072 42.9167 41.6072 43.4179 41.6072H45.3319C45.8332 41.6072 45.9243 41.5161 45.9243 41.2427V33.131L56.5424 41.2427C56.8614 41.5161 56.9525 41.5617 57.3627 41.6072H59.0944C59.5501 41.6072 59.7324 41.5616 59.7324 41.2882V30.0777C59.7324 29.8043 59.5957 29.7132 59.14 29.7587H57.226C56.7247 29.7587 56.6335 29.8499 56.6335 30.0777V37.5514L46.7446 30.0777Z" fill="white"/>
<path fill-rule="evenodd" clip-rule="evenodd" d="M76.1843 32.4014C76.5489 32.7204 77.0502 32.9027 77.8249 32.9027C78.8275 32.9027 79.6477 32.4926 79.6477 31.9457C79.6477 30.9431 76.959 29.4849 72.4475 29.4849C66.1131 29.4849 62.5586 32.2191 62.5586 35.5914C62.5586 38.8269 65.6574 41.8346 72.5387 41.8346C77.0046 41.8346 79.3743 40.3763 79.3743 39.6928C79.3743 39.3738 78.9186 39.1459 78.3717 39.1459C78.0072 39.1459 77.8705 39.1915 77.2325 39.4649C76.7312 39.6472 75.4552 40.1485 73.5412 40.1485C69.9411 40.1485 66.9334 38.3256 66.9334 35.0445C66.9334 32.3558 69.2575 30.852 72.0829 30.852C74.3615 30.852 75.3185 31.6723 76.1843 32.4014Z" fill="white"/>
<path fill-rule="evenodd" clip-rule="evenodd" d="M93.3212 36.1833C93.8225 36.1833 94.0048 36.1378 94.0048 35.8643V35.0441C94.0048 34.7706 93.8225 34.7251 93.3668 34.7251H87.2147V31.2617H94.506C95.0073 31.2617 95.2352 31.2161 95.1896 30.8971V30.0768C95.2352 29.7578 94.9162 29.7578 94.506 29.7578H83.8424C83.2956 29.7578 83.1133 29.849 83.1133 30.2135V41.1961C83.1133 41.5607 83.3411 41.5607 83.8424 41.5607H94.506C95.0073 41.5607 95.144 41.5151 95.1896 41.3329V40.3759C95.1896 40.0569 94.9618 40.0569 94.506 40.0569H87.2147V36.1833H93.3212Z" fill="white"/>
<path fill-rule="evenodd" clip-rule="evenodd" d="M102.664 30.0777C102.345 29.8043 102.208 29.7587 101.661 29.7587H99.3828C98.9726 29.7587 98.6992 29.8043 98.6992 30.1233V41.2882C98.6992 41.6072 98.8815 41.6072 99.3828 41.6072H101.297C101.798 41.6072 101.889 41.5161 101.889 41.2427V33.131L112.462 41.2427C112.781 41.5161 112.872 41.5617 113.282 41.6072H115.014C115.469 41.6072 115.652 41.5616 115.652 41.2882V30.0777C115.652 29.8043 115.515 29.7132 115.059 29.7587H113.145C112.644 29.7587 112.553 29.8499 112.553 30.0777V37.5514L102.664 30.0777Z" fill="white"/>
<path fill-rule="evenodd" clip-rule="evenodd" d="M132.466 31.2617C133.012 31.2617 133.149 31.1705 133.149 30.8971V30.0768C133.149 29.8034 132.921 29.7578 132.466 29.7578H118.977C118.521 29.7578 118.293 29.8034 118.293 30.1224V30.8971C118.293 31.1705 118.43 31.2617 118.977 31.2617H123.625V41.1961C123.625 41.5151 123.807 41.5607 124.354 41.6063H127.134C127.635 41.6063 127.772 41.4696 127.772 41.1961V31.2617H132.466Z" fill="white"/>
<path fill-rule="evenodd" clip-rule="evenodd" d="M135.746 41.2424C135.746 41.5614 135.974 41.6069 136.43 41.6069H139.118C139.711 41.6069 139.802 41.5158 139.802 41.1968V36.9587C139.802 36.822 139.802 36.503 140.44 36.503C141.032 36.503 141.397 36.7764 141.534 36.9587L146.136 41.2424C146.455 41.5158 146.501 41.5614 147.139 41.5614H150.238C150.466 41.5614 150.83 41.5614 150.83 41.3335C150.83 41.2424 150.693 41.1056 150.602 41.0145L144.86 36.0928C147.002 35.7283 149.645 34.7713 149.645 32.9029C149.645 31.9459 149.007 31.0344 147.64 30.442C145.817 29.6217 143.083 29.5762 141.306 29.5762C139.301 29.5762 136.931 29.7129 136.247 29.8496C135.837 29.9407 135.746 30.0319 135.746 30.3964V41.2424ZM139.802 30.9889C140.121 30.9889 140.531 30.9433 141.169 30.9433C142.354 30.9433 145.544 30.9433 145.544 33.2219C145.544 34.7713 143.63 35.3637 141.807 35.5004C141.306 35.546 140.941 35.546 139.802 35.5004V30.9889Z" fill="white"/>
<path fill-rule="evenodd" clip-rule="evenodd" d="M157.665 30.1224C157.665 29.8034 157.483 29.7578 157.027 29.7578H154.111C153.564 29.7578 153.473 29.8945 153.473 30.1224V41.2417C153.473 41.5607 153.701 41.6063 154.156 41.6063H157.027C157.437 41.6063 157.711 41.5607 157.711 41.2417V30.1224" fill="white"/>
<path fill-rule="evenodd" clip-rule="evenodd" d="M172.251 41.2417C172.57 41.5607 172.661 41.5607 173.253 41.5607H176.216C176.443 41.5607 176.808 41.5607 176.808 41.3329C176.808 41.2417 176.717 41.1506 176.626 41.0594L170.519 35.0896L175.669 30.2591C175.76 30.168 175.851 30.0768 175.851 29.9857C175.851 29.7578 175.486 29.7578 175.304 29.7578H173.208C172.661 29.7578 172.615 29.7578 172.251 30.0768L168.787 33.3579L165.415 30.0768C165.096 29.8034 165.005 29.7578 164.367 29.7578H161.587C161.405 29.7578 161.496 29.7578 161.496 29.9857C161.496 30.0312 161.542 30.1224 161.633 30.2135L166.418 35.5453L160.949 41.105C160.721 41.2873 160.676 41.3784 160.676 41.424C160.676 41.6063 161.086 41.6063 161.314 41.6063H162.954C163.456 41.6063 163.547 41.5607 163.866 41.2873L168.149 37.3226L172.251 41.2417Z" fill="white"/>
<path d="M71.5369 26.3408C67.7545 20.4165 59.8252 14.1277 48.3868 10.2997C38.4068 6.92749 26.9684 5.19579 19.5859 5.69707C26.6495 5.92493 34.4877 7.0642 44.1032 10.0719C56.2251 13.8543 64.5646 20.371 68.3925 26.4775C68.3925 26.4775 69.1217 26.4319 69.8052 26.3863C70.8534 26.2496 71.5369 26.3408 71.5369 26.3408Z" fill="white"/>
<path d="M177.812 26.9329H176.855V26.5684H179.225V26.9329H178.223V29.7583H177.812V26.9329Z" fill="white"/>
<path d="M182.23 28.3455C182.185 27.8898 182.185 27.3885 182.185 26.9783C182.094 27.3429 181.957 27.753 181.775 28.2088L181.228 29.7582H180.909L180.408 28.2543C180.271 27.7986 180.134 27.3885 180.043 27.0239C180.043 27.434 179.997 27.9353 179.997 28.4366L179.906 29.8037H179.496L179.724 26.6138H180.225L180.772 28.1632C180.909 28.5733 181 28.8923 181.091 29.2569C181.182 28.9379 181.273 28.5733 181.41 28.1632L181.957 26.6138H182.458L182.641 29.8037H182.23V28.3455Z" fill="white"/>
</svg>
