<svg width="98" height="93" viewBox="0 0 98 93" fill="none" xmlns="http://www.w3.org/2000/svg">
<g clip-path="url(#clip0_591_322)">
<g clip-path="url(#clip1_591_322)">
<g clip-path="url(#clip2_591_322)">
<g filter="url(#filter0_i_591_322)">
<path d="M81.876 0H16.124C7.21894 0 0 6.26801 0 14V79C0 86.732 7.21894 93 16.124 93H81.876C90.7811 93 98 86.732 98 79V14C98 6.26801 90.7811 0 81.876 0Z" fill="#3B134E"/>
<path d="M47.0637 29.1201C44.4686 29.1201 42.3574 31.2314 42.3574 33.8264C42.3574 36.4215 44.4686 38.5327 47.0637 38.5327C49.6588 38.5327 51.77 36.4215 51.77 33.8264C51.77 31.2314 49.6588 29.1201 47.0637 29.1201ZM47.0637 36.8316C45.4066 36.8316 44.0585 35.4835 44.0585 33.8264C44.0585 32.1694 45.4066 30.8212 47.0637 30.8212C48.7208 30.8212 50.0689 32.1694 50.0689 33.8264C50.0689 35.4835 48.7208 36.8316 47.0637 36.8316Z" fill="white"/>
<path d="M73.0837 73.1808L71.9606 64.6214C71.9491 64.5369 71.9294 64.4524 71.8954 64.3739L69.247 58.2456L72.3655 56.8281C72.7931 56.6336 72.9822 56.1294 72.7878 55.7018C72.5935 55.2741 72.089 55.0851 71.6616 55.2793L68.5719 56.6837L66.6834 52.3137C66.4969 51.8826 65.9963 51.6839 65.5652 51.8704C65.134 52.0569 64.9355 52.5574 65.1218 52.9886L67.0229 57.3877L64.0285 58.7488L59.7378 48.8206L62.7566 47.516L63.5533 49.3598C63.7398 49.791 64.2402 49.9894 64.6715 49.8031C65.1027 49.6166 65.3012 49.116 65.1149 48.685L63.1111 44.0481C62.842 43.4254 62.3203 42.9227 61.6859 42.6801C61.0575 42.4398 60.3755 42.464 59.7566 42.718L58.2992 43.3479C58.0186 43.4691 57.769 43.6382 57.5538 43.8425L54.9231 37.7543C55.5169 36.5712 55.8532 35.2376 55.8532 33.8262C55.8532 29.7437 53.0549 26.3026 49.2757 25.3194V21.352C49.2758 20.1326 48.2838 19.1406 47.0645 19.1406C45.8451 19.1406 44.8531 20.1326 44.8531 21.352V25.3198C41.0739 26.3029 38.2756 29.7439 38.2756 33.8265C38.2756 35.2379 38.612 36.5714 39.2058 37.7546L31.3465 55.9433C31.1722 56.3463 31.3431 56.8306 31.7325 57.0341C32.1653 57.2604 32.7145 57.066 32.908 56.6181L40.323 39.4576C41.1532 40.4499 42.1981 41.2556 43.3853 41.8053L33.2879 65.1737L28.801 66.1227L31.3399 60.247C31.5263 59.8158 31.3278 59.3151 30.8965 59.1289C30.4649 58.9424 29.9645 59.1412 29.7783 59.5724L24.0682 72.7876C23.8939 73.1906 24.0648 73.6749 24.4542 73.8785C24.887 74.1047 25.4362 73.9104 25.6297 73.4624L27.9743 68.0366L34.0702 66.7473C34.3402 66.6902 34.5655 66.5057 34.675 66.2526L44.9958 42.3675C46.3521 42.6961 47.7772 42.6961 49.1336 42.3675L57.4955 61.7192L56.4656 62.1873C56.0708 62.3668 55.872 62.8304 56.0139 63.24C56.1756 63.7067 56.7191 63.9405 57.1695 63.736L63.1549 61.0154L65.7538 67.0288C65.7875 67.1065 65.8351 67.1837 65.8911 67.2477L71.5972 73.8482C71.8559 74.1473 72.3002 74.228 72.6477 74.0387C72.9529 73.8719 73.1291 73.5255 73.0837 73.1808ZM58.4937 45.4569C58.5638 45.2129 58.7413 45.0103 58.9743 44.9096L60.4317 44.2796C60.593 44.2098 60.7645 44.1941 60.9256 44.2246C61.1941 44.2753 61.4337 44.454 61.5499 44.7232L62.0823 45.9549L59.0635 47.2595L58.5313 46.0279C58.4522 45.8453 58.4396 45.6455 58.4937 45.4569ZM46.5542 21.352C46.5542 21.0706 46.7831 20.8416 47.0646 20.8416C47.3459 20.8416 47.5749 21.0705 47.5749 21.352V25.0536C47.406 25.0438 47.2359 25.0376 47.0646 25.0376C46.8932 25.0376 46.7232 25.0438 46.5542 25.0536V21.352ZM47.0646 40.9144C43.1564 40.9144 39.9767 37.7348 39.9767 33.8265C39.9767 29.9182 43.1564 26.7387 47.0646 26.7387C50.9728 26.7387 54.1524 29.9182 54.1524 33.8265C54.1524 37.7348 50.9728 40.9144 47.0646 40.9144ZM58.9954 60.9016L50.7439 41.8052C51.9311 41.2555 52.9759 40.4498 53.8062 39.4575L62.4216 59.396L58.9954 60.9016ZM64.7036 60.3109L67.6982 58.9498L69.9966 64.268L66.9776 65.5726L64.7036 60.3109ZM67.936 67.0117L70.418 65.9391L71.028 70.5884L67.936 67.0117Z" fill="white"/>
</g>
</g>
</g>
</g>
<defs>
<filter id="filter0_i_591_322" x="0" y="0" width="98" height="97" filterUnits="userSpaceOnUse" color-interpolation-filters="sRGB">
<feFlood flood-opacity="0" result="BackgroundImageFix"/>
<feBlend mode="normal" in="SourceGraphic" in2="BackgroundImageFix" result="shape"/>
<feColorMatrix in="SourceAlpha" type="matrix" values="0 0 0 0 0 0 0 0 0 0 0 0 0 0 0 0 0 0 127 0" result="hardAlpha"/>
<feOffset dy="4"/>
<feGaussianBlur stdDeviation="2"/>
<feComposite in2="hardAlpha" operator="arithmetic" k2="-1" k3="1"/>
<feColorMatrix type="matrix" values="0 0 0 0 1 0 0 0 0 1 0 0 0 0 1 0 0 0 0.25 0"/>
<feBlend mode="normal" in2="shape" result="effect1_innerShadow_591_322"/>
</filter>
<clipPath id="clip0_591_322">
<rect width="98" height="93" fill="white"/>
</clipPath>
<clipPath id="clip1_591_322">
<rect width="98" height="93" fill="white"/>
</clipPath>
<clipPath id="clip2_591_322">
<rect width="98" height="93" fill="white"/>
</clipPath>
</defs>
</svg>
