<svg width="86" height="93" viewBox="0 0 86 93" fill="none" xmlns="http://www.w3.org/2000/svg">
<g filter="url(#filter0_i_412_541)">
<rect width="85.1307" height="93" rx="14" fill="url(#paint0_linear_412_541)"/>
<path d="M56.7318 43.3376C56.7318 35.5224 50.3736 29.1641 42.5582 29.1641C39.6125 29.1641 36.7879 30.0594 34.3899 31.7533C34.0078 32.0232 33.9169 32.5517 34.1867 32.9338C34.4568 33.3159 34.9852 33.4068 35.3673 33.137C37.4779 31.6462 39.9645 30.8581 42.5583 30.8581C49.4396 30.8581 55.0377 36.4564 55.0377 43.3375C55.0377 48.2596 52.1318 52.7358 47.6343 54.7409C47.3289 54.8771 47.1322 55.1801 47.1322 55.5145V58.0757H46.1225V46.5957H47.637C48.698 46.5957 49.6294 45.9556 50.0094 44.9651C50.3896 43.9745 50.1256 42.8757 49.3369 42.166L48.6693 41.5652C47.9129 40.8842 46.8653 40.7186 45.9356 41.1326C45.0058 41.5467 44.4283 42.436 44.4283 43.4539V44.9017H40.6881V43.4539C40.6881 42.436 40.1105 41.5467 39.1809 41.1326C38.2511 40.7185 37.2037 40.8842 36.4471 41.5652L35.7797 42.166C34.9911 42.8758 34.7271 43.9745 35.1071 44.9651C35.4873 45.9556 36.4185 46.5957 37.4795 46.5957H38.9941V58.0758H37.9842V55.5147C37.9842 55.1802 37.7875 54.8771 37.4821 54.741C32.9847 52.7359 30.0787 48.2597 30.0787 43.3376C30.0787 40.4562 31.0324 37.7502 32.8368 35.5119C33.1302 35.1477 33.073 34.6144 32.7089 34.321C32.3448 34.0276 31.8115 34.0847 31.5179 34.4488C29.4975 36.9553 28.3848 40.1121 28.3848 43.3376C28.3848 48.7425 31.4695 53.6734 36.2903 56.0524V58.0758H34.4268C33.959 58.0758 33.5798 58.455 33.5798 58.9228V68.0707C33.5798 71.34 36.2396 73.9998 39.5089 73.9998H45.6075C48.8769 73.9998 51.5366 71.34 51.5366 68.0707V65.699C51.5366 65.2312 51.1575 64.852 50.6896 64.852C50.2218 64.852 49.8426 65.2312 49.8426 65.699V67.2236H35.2739V64.2873H47.5276C47.9954 64.2873 48.3746 63.9081 48.3746 63.4402C48.3746 62.9724 47.9954 62.5932 47.5276 62.5932H35.2739V59.7698H49.8427V61.1816C49.8427 61.6494 50.2219 62.0286 50.6897 62.0286C51.1576 62.0286 51.5368 61.6494 51.5368 61.1816V58.9228C51.5368 58.455 51.1576 58.0758 50.6897 58.0758H48.8263V56.0524C53.6471 53.6733 56.7318 48.7422 56.7318 43.3376ZM46.1225 43.4537C46.1225 42.9434 46.507 42.7325 46.6249 42.68C46.7428 42.6276 47.1568 42.4828 47.536 42.824L48.2036 43.4249C48.605 43.7862 48.4766 44.2303 48.4278 44.3579C48.3789 44.4854 48.1771 44.9015 47.637 44.9015H46.1225V43.4537ZM38.9942 44.9017H37.4796C36.7159 44.9017 36.3421 43.9388 36.913 43.4251L37.5804 42.8243C38.12 42.3386 38.9942 42.7347 38.9942 43.4539V44.9017ZM49.7575 68.9177C49.3639 70.8485 47.6528 72.3058 45.6076 72.3058H39.5091C37.4637 72.3058 35.7527 70.8485 35.3592 68.9177H49.7575ZM44.4284 58.0758H40.6882V46.5957H44.4284V58.0758Z" fill="white"/>
<path d="M42.5599 19C42.0921 19 41.7129 19.3792 41.7129 19.847V24.5903C41.7129 25.0582 42.0921 25.4374 42.5599 25.4374C43.0277 25.4374 43.4069 25.0582 43.4069 24.5903V19.847C43.4069 19.3792 43.0277 19 42.5599 19Z" fill="white"/>
<path d="M33.8117 26.7092L31.44 22.6014C31.2062 22.1963 30.6881 22.0574 30.283 22.2914C29.8779 22.5252 29.7391 23.0433 29.973 23.4484L32.3445 27.5562C32.5934 27.9874 33.1789 28.1101 33.5807 27.8146C33.9238 27.5624 34.0244 27.0778 33.8117 26.7092Z" fill="white"/>
<path d="M26.5523 33.3437L22.4445 30.972C22.0393 30.7381 21.5212 30.877 21.2874 31.2821C21.0536 31.6872 21.1924 32.2052 21.5974 32.4391L25.7053 34.8108C26.1373 35.0603 26.7051 34.8722 26.9049 34.4164C27.076 34.0264 26.9207 33.5563 26.5523 33.3437Z" fill="white"/>
<path d="M23.5903 42.7168H18.847C18.3792 42.7168 18 43.096 18 43.5638C18 44.0316 18.3792 44.4108 18.847 44.4108H23.5903C24.0582 44.4108 24.4374 44.0316 24.4374 43.5638C24.4374 43.0961 24.0581 42.7168 23.5903 42.7168Z" fill="white"/>
<path d="M26.8666 52.6268C26.6328 52.2217 26.1147 52.0828 25.7096 52.3167L21.6018 54.6884C21.2333 54.9011 21.0781 55.371 21.2491 55.7612C21.4489 56.217 22.0167 56.4052 22.4488 56.1555L26.5566 53.7839C26.9617 53.55 27.1005 53.0319 26.8666 52.6268Z" fill="white"/>
<path d="M63.5308 54.6884L59.423 52.3168C59.0178 52.0828 58.4998 52.2217 58.2659 52.6268C58.0321 53.0319 58.1709 53.55 58.576 53.7838L62.6838 56.1555C63.1158 56.405 63.6838 56.2169 63.8835 55.7611C64.0546 55.3711 63.8994 54.9011 63.5308 54.6884Z" fill="white"/>
<path d="M66.2837 42.7168H61.5404C61.0726 42.7168 60.6934 43.096 60.6934 43.5638C60.6934 44.0316 61.0726 44.4108 61.5404 44.4108H66.2837C66.7515 44.4108 67.1307 44.0316 67.1307 43.5638C67.1307 43.0961 66.7515 42.7168 66.2837 42.7168Z" fill="white"/>
<path d="M63.8408 31.282C63.607 30.8769 63.0889 30.7381 62.6838 30.972L58.576 33.3437C58.1709 33.5775 58.0321 34.0956 58.2659 34.5007C58.4228 34.7724 58.7076 34.9244 59.0003 34.9244C59.1439 34.9244 59.2897 34.8877 59.423 34.8107L63.5308 32.4391C63.936 32.2051 64.0748 31.6871 63.8408 31.282Z" fill="white"/>
<path d="M54.8454 22.2914C54.4403 22.0574 53.9222 22.1963 53.6884 22.6014L51.3167 26.7092C51.0829 27.1143 51.2217 27.6324 51.6267 27.8663C52.0269 28.0973 52.5531 27.9557 52.7838 27.5562L55.1554 23.4484C55.3893 23.0433 55.2505 22.5252 54.8454 22.2914Z" fill="white"/>
</g>
<defs>
<filter id="filter0_i_412_541" x="0" y="0" width="85.1309" height="97" filterUnits="userSpaceOnUse" color-interpolation-filters="sRGB">
<feFlood flood-opacity="0" result="BackgroundImageFix"/>
<feBlend mode="normal" in="SourceGraphic" in2="BackgroundImageFix" result="shape"/>
<feColorMatrix in="SourceAlpha" type="matrix" values="0 0 0 0 0 0 0 0 0 0 0 0 0 0 0 0 0 0 127 0" result="hardAlpha"/>
<feOffset dy="4"/>
<feGaussianBlur stdDeviation="2"/>
<feComposite in2="hardAlpha" operator="arithmetic" k2="-1" k3="1"/>
<feColorMatrix type="matrix" values="0 0 0 0 1 0 0 0 0 1 0 0 0 0 1 0 0 0 0.25 0"/>
<feBlend mode="normal" in2="shape" result="effect1_innerShadow_412_541"/>
</filter>
<linearGradient id="paint0_linear_412_541" x1="0" y1="46.5" x2="85.1307" y2="46.5" gradientUnits="userSpaceOnUse">
<stop stop-color="#5D1E79"/>
<stop offset="0.6" stop-color="#770D62"/>
<stop offset="1" stop-color="#8B0051"/>
</linearGradient>
</defs>
</svg>
