<svg width="47" height="64" viewBox="0 0 47 64" fill="none" xmlns="http://www.w3.org/2000/svg">
<path d="M0 2H46.9565M0 62H46.9565M6.52174 62V46.3478L13.9722 41.8765C15.6778 40.8533 17.0894 39.4058 18.0695 37.675C19.0495 35.9442 19.5646 33.989 19.5646 32C19.5646 30.011 19.0495 28.0558 18.0695 26.325C17.0894 24.5942 15.6778 23.1467 13.9722 22.1235L6.52174 17.6522V2M40.4348 2V17.6522L32.9843 22.1235C31.2793 23.1472 29.8684 24.5949 28.8888 26.3256C27.9092 28.0564 27.3943 30.0113 27.3943 32C27.3943 33.9887 27.9092 35.9436 28.8888 37.6744C29.8684 39.4051 31.2793 40.8528 32.9843 41.8765L40.4348 46.3478V62" stroke="#00B9F2" stroke-width="3"/>
</svg>
