<svg width="60" height="60" viewBox="0 0 60 60" fill="none" xmlns="http://www.w3.org/2000/svg">
<mask id="path-1-inside-1_35_689" fill="white">
<path d="M43.7091 48.9273L31.9049 42.3934C36.2921 38.9447 37.4845 32.1673 37.4845 28.3665V20.4558C37.4845 15.2182 30.5193 9.38495 23.5223 9.38495C16.529 9.38495 9.37816 15.2182 9.37816 20.4558V28.3665C9.37816 31.8227 10.8406 38.8117 15.2728 42.3634L3.1648 48.9254C3.1648 48.9254 0 50.3341 0 52.0893V56.8361C0 58.5838 1.41929 60 3.1648 60H43.7091C45.4547 60 46.8739 58.582 46.8739 56.8361V52.0893C46.8739 50.2273 43.7073 48.9254 43.7073 48.9254L43.7091 48.9273ZM43.1242 56.2573H3.74977V52.9079C4.01787 52.7112 4.39473 52.4846 4.69096 52.3497C4.77908 52.3103 4.8672 52.2673 4.95157 52.2185L17.0614 45.6566C18.1657 45.0571 18.8969 43.9482 19.0094 42.6987C19.1219 41.4493 18.5988 40.226 17.6201 39.4412C14.476 36.9216 13.1279 31.345 13.1279 28.3684V20.4577C13.1279 17.7658 18.2051 13.1333 23.5223 13.1333C28.9388 13.1333 33.7348 17.704 33.7348 20.4577V28.3684C33.7348 31.3019 32.8236 36.9048 29.5875 39.4486C28.5976 40.2279 28.0632 41.453 28.1682 42.7062C28.2732 43.9594 29.0044 45.0796 30.1087 45.6828L41.913 52.2167C42.0161 52.2729 42.1492 52.3347 42.258 52.3834C42.5355 52.5014 42.8748 52.6962 43.1242 52.8686V56.2573ZM56.8315 39.6004L44.851 33.0665C49.2382 29.6179 50.6068 22.8405 50.6068 19.0397V11.1289C50.6068 5.89135 43.4673 0 36.4702 0C31.9236 0 27.2758 2.47081 24.5703 5.63284C26.1134 5.72838 27.8139 5.73025 29.2838 6.19856C31.2599 4.66063 33.7573 3.74836 36.4702 3.74836C41.8868 3.74836 46.8571 8.37527 46.8571 11.1308V19.0415C46.8571 21.975 45.7696 27.5779 42.5355 30.1218C41.5437 30.901 41.0112 32.1261 41.1162 33.3793C41.2212 34.6344 41.9505 35.7527 43.0567 36.3559L55.0372 42.8898C55.1403 42.946 55.2734 43.0078 55.3822 43.0565C55.6596 43.1745 55.999 43.3693 56.2484 43.5417V46.8742H48.6795C49.8231 47.7359 50.1681 48.9685 50.6125 50.6207H56.8352C58.5807 50.6207 60 49.2026 60 47.4568V42.768C59.9981 40.9042 56.8315 39.6004 56.8315 39.6004Z"/>
</mask>
<path d="M43.7091 48.9273L31.6021 70.8001L61.3791 31.2419L43.7091 48.9273ZM31.9049 42.3934L16.4551 22.7388L-13.1639 46.0212L19.7979 64.2662L31.9049 42.3934ZM15.2728 42.3634L27.1848 64.3431L60.2907 46.4012L30.906 22.8543L15.2728 42.3634ZM3.1648 48.9254L13.3309 71.765L14.2206 71.369L15.0768 70.905L3.1648 48.9254ZM43.7073 48.9254L53.2134 25.8032L26.0373 66.6108L43.7073 48.9254ZM43.1242 56.2573V81.2573H68.1242V56.2573H43.1242ZM3.74977 56.2573H-21.2502V81.2573H3.74977V56.2573ZM3.74977 52.9079L-11.0381 32.7506L-21.2502 40.2424V52.9079H3.74977ZM4.69096 52.3497L-5.50011 29.5211L-5.58435 29.5587L-5.6683 29.597L4.69096 52.3497ZM4.95157 52.2185L-6.95896 30.2381L-7.25529 30.3987L-7.54717 30.5672L4.95157 52.2185ZM17.0614 45.6566L28.972 67.637L28.98 67.6326L28.9881 67.6283L17.0614 45.6566ZM17.6201 39.4412L33.2611 19.9383L33.2533 19.9321L17.6201 39.4412ZM29.5875 39.4486L14.1373 19.7944L14.1307 19.7996L14.1241 19.8048L29.5875 39.4486ZM30.1087 45.6828L42.2157 23.81L42.1544 23.776L42.0928 23.7424L30.1087 45.6828ZM41.913 52.2167L29.806 74.0895L29.8778 74.1292L29.9498 74.1685L41.913 52.2167ZM42.258 52.3834L32.039 75.1995L32.2554 75.2964L32.4736 75.3892L42.258 52.3834ZM43.1242 52.8686H68.1242V39.757L57.338 32.3024L43.1242 52.8686ZM56.8315 39.6004L44.8615 61.5485L46.0557 62.1998L47.3136 62.7177L56.8315 39.6004ZM44.851 33.0665L29.4012 13.4119L-0.419879 36.8531L32.881 55.0146L44.851 33.0665ZM24.5703 5.63284L5.57451 -10.6201L-27.0293 27.486L23.0254 30.5851L24.5703 5.63284ZM29.2838 6.19856L21.6947 30.0188L34.2441 34.0171L44.6382 25.9278L29.2838 6.19856ZM42.5355 30.1218L57.9809 49.7798L57.9913 49.7717L42.5355 30.1218ZM41.1162 33.3793L66.0292 31.2952L66.0289 31.2921L41.1162 33.3793ZM43.0567 36.3559L55.0267 14.4078L55.0251 14.407L43.0567 36.3559ZM55.0372 42.8898L43.0672 64.8379L43.074 64.8416L55.0372 42.8898ZM55.3822 43.0565L45.1632 65.8726L45.3796 65.9695L45.5977 66.0623L55.3822 43.0565ZM56.2484 43.5417H81.2484V30.4301L70.4622 22.9755L56.2484 43.5417ZM56.2484 46.8742V71.8742H81.2484V46.8742H56.2484ZM48.6795 46.8742V21.8742H-26.0468L33.6356 66.8412L48.6795 46.8742ZM50.6125 50.6207L26.4703 57.1135L31.4477 75.6207H50.6125V50.6207ZM60 42.768H85V42.7555L85 42.7429L60 42.768ZM55.8162 27.0544L44.0119 20.5206L19.7979 64.2662L31.6021 70.8001L55.8162 27.0544ZM47.3547 62.048C54.8399 56.1641 58.396 48.5224 60.1122 43.2502C61.8834 37.809 62.4845 32.5095 62.4845 28.3665H12.4845C12.4845 28.1981 12.4908 28.1031 12.493 28.0721C12.4945 28.0531 12.4956 28.0422 12.4961 28.0378C12.4963 28.0353 12.4965 28.0338 12.4966 28.0331C12.4967 28.0324 12.4968 28.0321 12.4968 28.0319C12.4968 28.0318 12.4969 28.0315 12.497 28.0309C12.4971 28.0302 12.4973 28.0289 12.4977 28.0267C12.4984 28.0228 12.5003 28.0131 12.504 27.9971C12.5104 27.969 12.5285 27.8941 12.5677 27.7738C12.6325 27.5747 12.8433 26.9766 13.3583 26.1429C13.8831 25.2933 14.8489 24.0013 16.4551 22.7388L47.3547 62.048ZM62.4845 28.3665V20.4558H12.4845V28.3665H62.4845ZM62.4845 20.4558C62.4845 7.26724 54.4914 -1.92385 48.8364 -6.49168C42.5431 -11.5751 33.6552 -15.615 23.5223 -15.615V34.385C20.3864 34.385 18.4796 33.2616 17.4182 32.4043C16.7698 31.8805 15.7626 30.9164 14.7927 29.2835C13.8507 27.6976 12.4845 24.67 12.4845 20.4558H62.4845ZM23.5223 -15.615C13.439 -15.615 4.56773 -11.6122 -1.71565 -6.6244C-7.2967 -2.1941 -15.6218 7.01428 -15.6218 20.4558H34.3782C34.3782 24.8187 32.9272 27.9225 31.9711 29.4963C30.9829 31.123 29.9775 32.0556 29.3711 32.537C28.4115 33.2988 26.6122 34.385 23.5223 34.385V-15.615ZM-15.6218 20.4558V28.3665H34.3782V20.4558H-15.6218ZM-15.6218 28.3665C-15.6218 32.9837 -14.756 38.3881 -12.9289 43.5999C-11.1473 48.6818 -7.56681 56.0978 -0.360388 61.8725L30.906 22.8543C32.3827 24.0377 33.2269 25.1907 33.6428 25.8517C34.0586 26.5127 34.2188 26.9533 34.2557 27.0584C34.2978 27.1786 34.306 27.2272 34.3124 27.2641C34.3178 27.2957 34.3311 27.3785 34.3446 27.5245C34.357 27.6595 34.3782 27.942 34.3782 28.3665H-15.6218ZM3.36084 20.3838L-8.74716 26.9457L15.0768 70.905L27.1848 64.3431L3.36084 20.3838ZM3.1648 48.9254C-7.00133 26.0857 -7.00651 26.088 -7.01171 26.0904C-7.01346 26.0911 -7.01868 26.0935 -7.02219 26.095C-7.02922 26.0982 -7.03631 26.1013 -7.04348 26.1045C-7.05781 26.111 -7.07243 26.1175 -7.08733 26.1242C-7.11712 26.1376 -7.14805 26.1516 -7.18008 26.1661C-7.24412 26.1952 -7.31274 26.2266 -7.38565 26.2604C-7.53119 26.3279 -7.69539 26.4055 -7.87575 26.4929C-8.23331 26.6662 -8.67137 26.8865 -9.16652 27.1527C-10.0986 27.6538 -11.5033 28.4613 -13.0574 29.584C-14.4739 30.6073 -16.9031 32.5223 -19.1887 35.4411C-21.3937 38.2569 -25 43.9979 -25 52.0893H25C25 59.3031 21.7893 64.2098 20.1777 66.2678C18.4855 68.4288 16.8475 69.6626 16.2222 70.1143C15.4593 70.6654 14.8458 71.011 14.5071 71.1931C14.3087 71.2998 14.1179 71.3964 13.9334 71.4858C13.8396 71.5313 13.7434 71.5769 13.6442 71.6228C13.5944 71.6459 13.5436 71.6692 13.4915 71.6929C13.4655 71.7047 13.4391 71.7166 13.4123 71.7286C13.399 71.7346 13.3855 71.7407 13.3719 71.7467C13.3651 71.7498 13.3583 71.7528 13.3515 71.7559C13.3481 71.7574 13.3429 71.7597 13.3412 71.7604C13.3361 71.7627 13.3309 71.765 3.1648 48.9254ZM-25 52.0893V56.8361H25V52.0893H-25ZM-25 56.8361C-25 72.4116 -12.3672 85 3.1648 85V35C15.2058 35 25 44.7561 25 56.8361H-25ZM3.1648 85H43.7091V35H3.1648V85ZM43.7091 85C59.2508 85 71.8739 72.4001 71.8739 56.8361H21.8739C21.8739 44.7639 31.6585 35 43.7091 35V85ZM71.8739 56.8361V52.0893H21.8739V56.8361H71.8739ZM71.8739 52.0893C71.8739 44.2878 68.5418 38.6016 66.1556 35.5159C63.7795 32.4433 61.2233 30.4536 59.6974 29.3776C58.0403 28.2092 56.5413 27.3865 55.5448 26.8792C55.0155 26.6097 54.5463 26.3879 54.1616 26.2136C53.9676 26.1257 53.7904 26.0478 53.6326 25.9798C53.5536 25.9457 53.479 25.914 53.4091 25.8847C53.3742 25.87 53.3404 25.8558 53.3078 25.8423C53.2915 25.8355 53.2754 25.8288 53.2597 25.8223C53.2519 25.8191 53.2441 25.8159 53.2363 25.8127C53.2325 25.8111 53.2267 25.8087 53.2248 25.8079C53.2191 25.8056 53.2134 25.8032 43.7073 48.9254C34.2011 72.0475 34.1955 72.0452 34.1898 72.0429C34.1879 72.0421 34.1822 72.0397 34.1785 72.0382C34.171 72.0351 34.1635 72.032 34.156 72.0289C34.141 72.0227 34.1261 72.0166 34.1114 72.0104C34.0818 71.9981 34.0525 71.9859 34.0236 71.9737C33.9657 71.9494 33.9089 71.9252 33.8531 71.9011C33.7417 71.8531 33.6325 71.805 33.525 71.7563C33.3136 71.6605 33.0918 71.555 32.8593 71.4367C32.4566 71.2316 31.7492 70.8508 30.8838 70.2406C30.1496 69.7228 28.385 68.4077 26.6027 66.1029C24.8102 63.785 21.8739 58.9598 21.8739 52.0893H71.8739ZM26.0373 66.6108L26.0392 66.6127L61.3791 31.2419L61.3772 31.24L26.0373 66.6108ZM43.1242 31.2573H3.74977V81.2573H43.1242V31.2573ZM28.7498 56.2573V52.9079H-21.2502V56.2573H28.7498ZM18.5377 73.0652C17.9294 73.5115 17.4092 73.8424 17.0009 74.0855C16.6165 74.3145 15.9539 74.6909 15.0502 75.1024L-5.6683 29.597C-7.73223 30.5367 -9.58242 31.6826 -11.0381 32.7506L18.5377 73.0652ZM14.882 75.1782C15.4827 74.9101 16.3946 74.4794 17.4503 73.8699L-7.54717 30.5672C-6.66017 30.0551 -5.92451 29.7106 -5.50011 29.5211L14.882 75.1782ZM16.8621 74.199L28.972 67.637L5.15091 23.6761L-6.95896 30.2381L16.8621 74.199ZM28.9881 67.6283C37.4158 63.0535 43.0429 54.5568 43.9087 44.9405L-5.88985 40.4569C-5.24904 33.3396 -1.08435 27.0608 5.13479 23.6849L28.9881 67.6283ZM43.9087 44.9405C44.7751 35.3172 40.7479 25.9426 33.2611 19.9383L1.97924 58.944C-3.55026 54.5095 -6.53128 47.5814 -5.88985 40.4569L43.9087 44.9405ZM33.2533 19.9321C35.24 21.5241 36.3521 23.1014 36.8818 23.9619C37.4325 24.8565 37.6858 25.5162 37.7857 25.801C37.8942 26.1103 37.954 26.3573 37.9968 26.5962C38.0296 26.7797 38.1279 27.3686 38.1279 28.3684H-11.8721C-11.8721 32.9515 -10.9624 37.8852 -9.39575 42.3513C-7.94048 46.5 -4.78512 53.5236 1.987 58.9502L33.2533 19.9321ZM38.1279 28.3684V20.4577H-11.8721V28.3684H38.1279ZM38.1279 20.4577C38.1279 26.9864 35.3921 31.197 34.6026 32.345C33.4597 34.0066 32.3488 35.0029 31.6187 35.5672C30.4246 36.49 27.7922 38.1333 23.5223 38.1333V-11.8667C13.9352 -11.8667 6.10558 -7.90707 1.04367 -3.99505C-1.6204 -1.93617 -4.33293 0.723019 -6.59391 4.01032C-8.50162 6.78399 -11.8721 12.5831 -11.8721 20.4577H38.1279ZM23.5223 38.1333C19.384 38.1333 16.6227 36.5374 15.1314 35.3555C14.2917 34.69 13.1296 33.5933 11.9869 31.8487C11.1096 30.5091 8.73477 26.5073 8.73477 20.4577H58.7348C58.7348 13.0312 55.7605 7.42554 53.8146 4.45442C51.6035 1.0783 48.9038 -1.67734 46.1881 -3.82974C40.9447 -7.98545 33.0771 -11.8667 23.5223 -11.8667V38.1333ZM8.73477 20.4577V28.3684H58.7348V20.4577H8.73477ZM8.73477 28.3684C8.73477 27.6889 8.78431 27.3478 8.95023 26.8006C9.05708 26.4482 9.34118 25.6028 9.99284 24.483C10.6406 23.3698 11.9098 21.5454 14.1373 19.7944L45.0378 59.1029C52.4454 53.2798 55.4987 45.5975 56.7991 41.3087C58.2296 36.5907 58.7348 31.9814 58.7348 28.3684H8.73477ZM14.1241 19.8048C6.55815 25.7606 2.44656 35.1376 3.25552 44.7934L53.081 40.619C53.6799 47.7684 50.637 54.6952 45.051 59.0925L14.1241 19.8048ZM3.25552 44.7934C4.06377 54.4407 9.67145 63.006 18.1246 67.6232L42.0928 23.7424C48.3374 27.1533 52.4827 33.4782 53.081 40.619L3.25552 44.7934ZM18.0017 67.5556L29.806 74.0895L54.02 30.3439L42.2157 23.81L18.0017 67.5556ZM29.9498 74.1685C30.9617 74.7199 31.8459 75.113 32.039 75.1995L52.4769 29.5673C52.5391 29.5952 52.6787 29.6581 52.8653 29.7474C53.0229 29.8227 53.3957 30.003 53.8762 30.2649L29.9498 74.1685ZM32.4736 75.3892C31.5347 74.9898 30.8353 74.6151 30.4196 74.3806C29.9751 74.1299 29.471 73.8222 28.9104 73.4347L57.338 32.3024C55.9914 31.3717 54.1717 30.2832 52.0424 29.3776L32.4736 75.3892ZM18.1242 52.8686V56.2573H68.1242V52.8686H18.1242ZM68.8014 17.6523L56.8209 11.1184L32.881 55.0146L44.8615 61.5485L68.8014 17.6523ZM60.3007 52.7211C67.6224 46.9659 71.2342 39.5159 73.0257 34.2848C74.8679 28.9052 75.6068 23.508 75.6068 19.0397H25.6068C25.6068 18.7779 25.618 18.61 25.6246 18.5304C25.6316 18.446 25.6386 18.3992 25.6418 18.3792C25.6439 18.366 25.6559 18.2801 25.7226 18.0855C25.7841 17.9057 25.9837 17.3648 26.4653 16.6024C26.9528 15.8307 27.8674 14.6175 29.4012 13.4119L60.3007 52.7211ZM75.6068 19.0397V11.1289H25.6068V19.0397H75.6068ZM75.6068 11.1289C75.6068 -2.25851 67.3443 -11.4699 61.7794 -15.9216C55.5171 -20.9313 46.6241 -25 36.4702 -25V25C33.3134 25 31.4887 23.877 30.5454 23.1224C29.9448 22.6419 28.9559 21.7169 27.9839 20.1081C27.0469 18.5571 25.6068 15.474 25.6068 11.1289H75.6068ZM36.4702 -25C23.765 -25 12.4458 -18.651 5.57451 -10.6201L43.5662 21.8858C42.5307 23.096 41.5715 23.7174 40.8251 24.083C40.069 24.4532 38.6229 25 36.4702 25V-25ZM23.0254 30.5851C23.3493 30.6051 23.6469 30.6209 23.8747 30.6325C23.9875 30.6383 24.1035 30.6441 24.1932 30.6487C24.2899 30.6535 24.369 30.6576 24.4429 30.6614C24.7603 30.6781 24.8057 30.6835 24.7508 30.6786C24.6851 30.6728 24.3636 30.6434 23.8817 30.56C23.3976 30.4762 22.6352 30.3185 21.6947 30.0188L36.8729 -17.6217C33.6305 -18.6547 30.777 -18.9835 29.1582 -19.1268C28.3016 -19.2026 27.5407 -19.2448 27.0593 -19.2701C26.425 -19.3033 26.3475 -19.305 26.1152 -19.3194L23.0254 30.5851ZM44.6382 25.9278C42.3237 27.729 39.4431 28.7484 36.4702 28.7484V-21.2516C28.0715 -21.2516 20.1961 -18.4078 13.9294 -13.5307L44.6382 25.9278ZM36.4702 28.7484C32.3112 28.7484 29.6391 27.1511 28.2945 26.0997C27.5114 25.4872 26.374 24.4416 25.2307 22.7363C24.3874 21.4785 21.8571 17.3882 21.8571 11.1308H71.8571C71.8571 3.49565 68.7055 -2.20635 66.761 -5.10667C64.5165 -8.45455 61.798 -11.1735 59.0952 -13.2871C53.9113 -17.341 46.0458 -21.2516 36.4702 -21.2516V28.7484ZM21.8571 11.1308V19.0415H71.8571V11.1308H21.8571ZM21.8571 19.0415C21.8571 18.336 21.9133 17.9409 21.9353 17.7996C21.962 17.6289 22.0105 17.3791 22.1278 17.0173C22.2358 16.6841 22.5138 15.9084 23.1322 14.8767C23.7409 13.8613 24.952 12.1454 27.0797 10.4719L57.9913 49.7717C65.1788 44.1182 68.3088 36.6995 69.6904 32.4382C71.1949 27.7977 71.8571 23.0575 71.8571 19.0415H21.8571ZM27.0901 10.4637C19.487 16.4375 15.3964 25.8332 16.2035 35.4665L66.0289 31.2921C66.626 38.4191 63.6004 45.3646 57.9809 49.7798L27.0901 10.4637ZM16.2032 35.4634C17.0097 45.1047 22.6103 53.682 31.0882 58.3049L55.0251 14.407C61.2907 17.8235 65.4326 24.1641 66.0292 31.2952L16.2032 35.4634ZM31.0867 58.304L43.0672 64.8379L67.0072 20.9417L55.0267 14.4078L31.0867 58.304ZM43.074 64.8416C44.0858 65.393 44.9701 65.7861 45.1632 65.8726L65.6011 20.2404C65.6633 20.2683 65.8029 20.3313 65.9895 20.4205C66.1471 20.4958 66.5199 20.6761 67.0004 20.938L43.074 64.8416ZM45.5977 66.0623C44.6589 65.663 43.9594 65.2882 43.5437 65.0537C43.0993 64.803 42.5952 64.4953 42.0346 64.1079L70.4622 22.9755C69.1156 22.0448 67.2958 20.9563 65.1666 20.0508L45.5977 66.0623ZM31.2484 43.5417V46.8742H81.2484V43.5417H31.2484ZM56.2484 21.8742H48.6795V71.8742H56.2484V21.8742ZM33.6356 66.8412C30.2161 64.2648 28.2301 61.1591 27.1745 58.8519C26.7244 57.868 26.4869 57.1251 26.4175 56.9026C26.3605 56.7199 26.3434 56.6416 26.4703 57.1135L74.7546 44.1278C74.7264 44.0231 72.826 33.7655 63.7234 26.9072L33.6356 66.8412ZM50.6125 75.6207H56.8352V25.6207H50.6125V75.6207ZM56.8352 75.6207C72.3769 75.6207 85 63.0207 85 47.4568H35C35 35.3846 44.7845 25.6207 56.8352 25.6207V75.6207ZM85 47.4568V42.768H35V47.4568H85ZM85 42.7429C84.9922 34.954 81.6652 29.2776 79.2825 26.1957C76.9093 23.1261 74.3565 21.137 72.831 20.0603C71.175 18.8914 69.6767 18.0682 68.6803 17.5602C68.1511 17.2905 67.682 17.0685 67.2974 16.894C67.1034 16.806 66.9262 16.7279 66.7685 16.6598C66.6894 16.6257 66.6148 16.594 66.545 16.5646C66.5101 16.5499 66.4763 16.5357 66.4436 16.5221C66.4273 16.5153 66.4113 16.5087 66.3956 16.5022C66.3877 16.4989 66.3799 16.4957 66.3722 16.4925C66.3684 16.4909 66.3626 16.4885 66.3607 16.4877C66.355 16.4854 66.3493 16.483 56.8315 39.6004C47.3136 62.7177 47.3079 62.7154 47.3023 62.713C47.3004 62.7123 47.2947 62.7099 47.291 62.7084C47.2835 62.7053 47.276 62.7022 47.2685 62.6991C47.2535 62.6929 47.2386 62.6867 47.2239 62.6805C47.1943 62.6682 47.165 62.656 47.1361 62.6438C47.0782 62.6194 47.0214 62.5952 46.9656 62.5711C46.8542 62.5231 46.745 62.4748 46.6376 62.4261C46.4262 62.3302 46.2045 62.2246 45.9722 62.1062C45.5696 61.901 44.8632 61.5201 43.999 60.9102C43.2654 60.3924 41.5047 59.0788 39.7258 56.7778C37.9373 54.4646 35.0069 49.6501 35 42.7932L85 42.7429Z" fill="white" mask="url(#path-1-inside-1_35_689)"/>
</svg>
