<svg width="86" height="93" viewBox="0 0 86 93" fill="none" xmlns="http://www.w3.org/2000/svg">
<g filter="url(#filter0_i_412_606)">
<rect width="85.0908" height="93" rx="14" fill="url(#paint0_linear_412_606)"/>
<path d="M41.0646 28.9796C38.4695 28.9796 36.3583 31.0909 36.3583 33.6859C36.3583 36.281 38.4695 38.3922 41.0646 38.3922C43.6597 38.3922 45.7709 36.281 45.7709 33.6859C45.7709 31.0909 43.6597 28.9796 41.0646 28.9796ZM41.0646 36.6911C39.4075 36.6911 38.0594 35.343 38.0594 33.6859C38.0594 32.0289 39.4075 30.6807 41.0646 30.6807C42.7217 30.6807 44.0698 32.0289 44.0698 33.6859C44.0698 35.343 42.7217 36.6911 41.0646 36.6911Z" fill="white"/>
<path d="M67.0837 73.0402L65.9606 64.4808C65.9491 64.3963 65.9294 64.3118 65.8954 64.2333L63.247 58.105L66.3655 56.6875C66.7931 56.493 66.9822 55.9888 66.7878 55.5612C66.5935 55.1335 66.089 54.9445 65.6616 55.1387L62.5719 56.5431L60.6834 52.1731C60.4969 51.742 59.9963 51.5433 59.5652 51.7298C59.134 51.9163 58.9355 52.4168 59.1218 52.848L61.0229 57.2471L58.0285 58.6082L53.7378 48.68L56.7566 47.3754L57.5533 49.2192C57.7398 49.6504 58.2402 49.8488 58.6715 49.6625C59.1027 49.476 59.3012 48.9754 59.1149 48.5444L57.1111 43.9075C56.842 43.2848 56.3203 42.7821 55.6859 42.5395C55.0575 42.2992 54.3755 42.3234 53.7566 42.5774L52.2992 43.2073C52.0186 43.3285 51.769 43.4976 51.5538 43.7019L48.9231 37.6137C49.5169 36.4306 49.8532 35.097 49.8532 33.6856C49.8532 29.6031 47.0549 26.162 43.2757 25.1788V21.2114C43.2758 19.992 42.2838 19 41.0645 19C39.8451 19 38.8531 19.992 38.8531 21.2114V25.1792C35.0739 26.1623 32.2756 29.6033 32.2756 33.6859C32.2756 35.0973 32.612 36.4308 33.2058 37.614L25.3465 55.8027C25.1722 56.2057 25.3431 56.69 25.7325 56.8935C26.1653 57.1198 26.7145 56.9254 26.908 56.4775L34.323 39.317C35.1532 40.3093 36.1981 41.115 37.3853 41.6647L27.2879 65.0331L22.801 65.9821L25.3399 60.1064C25.5263 59.6752 25.3278 59.1745 24.8965 58.9883C24.4649 58.8018 23.9645 59.0006 23.7783 59.4318L18.0682 72.647C17.8939 73.05 18.0648 73.5343 18.4542 73.7379C18.887 73.9641 19.4362 73.7698 19.6297 73.3218L21.9743 67.896L28.0702 66.6067C28.3402 66.5496 28.5655 66.3651 28.675 66.112L38.9958 42.2269C40.3521 42.5555 41.7772 42.5555 43.1336 42.2269L51.4955 61.5786L50.4656 62.0467C50.0708 62.2262 49.872 62.6898 50.0139 63.0994C50.1756 63.5661 50.7191 63.7999 51.1695 63.5954L57.1549 60.8748L59.7538 66.8882C59.7875 66.9659 59.8351 67.0431 59.8911 67.1071L65.5972 73.7076C65.8559 74.0067 66.3002 74.0874 66.6477 73.8981C66.9529 73.7313 67.1291 73.3849 67.0837 73.0402ZM52.4937 45.3163C52.5638 45.0723 52.7413 44.8697 52.9743 44.769L54.4317 44.139C54.593 44.0692 54.7645 44.0535 54.9256 44.084C55.1941 44.1347 55.4337 44.3134 55.5499 44.5826L56.0823 45.8143L53.0635 47.1189L52.5313 45.8873C52.4522 45.7047 52.4396 45.5049 52.4937 45.3163ZM40.5542 21.2114C40.5542 20.93 40.7831 20.701 41.0646 20.701C41.3459 20.701 41.5749 20.9299 41.5749 21.2114V24.913C41.406 24.9032 41.2359 24.897 41.0646 24.897C40.8932 24.897 40.7232 24.9032 40.5542 24.913V21.2114ZM41.0646 40.7738C37.1564 40.7738 33.9767 37.5942 33.9767 33.6859C33.9767 29.7776 37.1564 26.5981 41.0646 26.5981C44.9728 26.5981 48.1524 29.7776 48.1524 33.6859C48.1524 37.5942 44.9728 40.7738 41.0646 40.7738ZM52.9954 60.761L44.7439 41.6646C45.9311 41.1149 46.9759 40.3092 47.8062 39.3169L56.4216 59.2554L52.9954 60.761ZM58.7036 60.1703L61.6982 58.8092L63.9966 64.1274L60.9776 65.432L58.7036 60.1703ZM61.936 66.8711L64.418 65.7985L65.028 70.4478L61.936 66.8711Z" fill="white"/>
</g>
<defs>
<filter id="filter0_i_412_606" x="0" y="0" width="85.0898" height="97" filterUnits="userSpaceOnUse" color-interpolation-filters="sRGB">
<feFlood flood-opacity="0" result="BackgroundImageFix"/>
<feBlend mode="normal" in="SourceGraphic" in2="BackgroundImageFix" result="shape"/>
<feColorMatrix in="SourceAlpha" type="matrix" values="0 0 0 0 0 0 0 0 0 0 0 0 0 0 0 0 0 0 127 0" result="hardAlpha"/>
<feOffset dy="4"/>
<feGaussianBlur stdDeviation="2"/>
<feComposite in2="hardAlpha" operator="arithmetic" k2="-1" k3="1"/>
<feColorMatrix type="matrix" values="0 0 0 0 1 0 0 0 0 1 0 0 0 0 1 0 0 0 0.25 0"/>
<feBlend mode="normal" in2="shape" result="effect1_innerShadow_412_606"/>
</filter>
<linearGradient id="paint0_linear_412_606" x1="0" y1="46.5" x2="85.0908" y2="46.5" gradientUnits="userSpaceOnUse">
<stop stop-color="#5D1E79"/>
<stop offset="0.6" stop-color="#770D62"/>
<stop offset="1" stop-color="#8B0051"/>
</linearGradient>
</defs>
</svg>
