<svg width="98" height="93" viewBox="0 0 98 93" fill="none" xmlns="http://www.w3.org/2000/svg">
<g clip-path="url(#clip0_529_361)">
<g clip-path="url(#clip1_529_361)">
<g clip-path="url(#clip2_529_361)">
<g filter="url(#filter0_i_529_361)">
<path d="M82.9231 0H15.0769C6.75018 0 0 6.26801 0 14V79C0 86.732 6.75018 93 15.0769 93H82.9231C91.2498 93 98 86.732 98 79V14C98 6.26801 91.2498 0 82.9231 0Z" fill="#8BC53F"/>
<path d="M59.8149 36.3273C59.4815 35.9938 58.941 35.9938 58.6076 36.3273L52.3293 42.6055C52.0185 42.9163 51.9978 43.4298 52.2839 43.7639C52.6032 44.1366 53.1894 44.1602 53.5367 43.8129L59.8149 37.5346C60.1483 37.2011 60.1483 36.6606 59.8149 36.3273Z" fill="white"/>
<path d="M62.5513 33.59C62.2179 33.2565 61.6773 33.2565 61.344 33.59L60.5391 34.3949C60.2057 34.7283 60.2057 35.2689 60.5391 35.6022C60.7057 35.7688 60.9243 35.8523 61.1427 35.8523C61.3612 35.8523 61.5797 35.7689 61.7463 35.6022L62.5512 34.7973C62.8848 34.4639 62.8848 33.9233 62.5513 33.59Z" fill="white"/>
<path d="M31.7308 64.4632C31.0536 63.786 30.1531 63.4131 29.1953 63.4131C28.2375 63.4131 27.3371 63.786 26.6599 64.4632C25.2618 65.8613 25.2618 68.1361 26.6599 69.5342C27.3371 70.2115 28.2376 70.5844 29.1953 70.5844C30.1531 70.5844 31.0536 70.2115 31.7308 69.5342C32.4081 68.8569 32.781 67.9565 32.781 66.9987C32.781 66.041 32.4081 65.1405 31.7308 64.4632ZM30.5235 68.3268C29.7912 69.0591 28.5998 69.0592 27.8674 68.3268C27.1351 67.5944 27.1351 66.403 27.8674 65.6706C28.2336 65.3044 28.7145 65.1213 29.1954 65.1213C29.6765 65.1213 30.1574 65.3044 30.5235 65.6706C31.2558 66.4029 31.2558 67.5945 30.5235 68.3268Z" fill="white"/>
<path d="M61.8142 48.7175C61.6701 48.5734 61.4791 48.4855 61.276 48.4699L57.0904 48.1478C56.8421 48.1289 56.5974 48.2191 56.4213 48.3954L55.5761 49.2406L54.9173 48.5819L64.951 37.2714C68.2289 38.2965 71.8313 37.4291 74.2825 34.9779C76.5223 32.7382 77.4584 29.549 76.7866 26.4469C76.6465 25.8 75.8179 25.5542 75.3485 26.024L70.0972 31.2754C69.7682 31.6043 69.2188 31.6043 68.8897 31.2754L64.8653 27.2509C64.5364 26.9219 64.5364 26.3726 64.8653 26.0434L70.1167 20.7922C70.5863 20.3228 70.3407 19.4942 69.6937 19.354C66.5914 18.6821 63.4024 19.6182 61.1627 21.858C58.7115 24.3092 57.8437 27.9115 58.8692 31.1896L47.5587 41.2232L42.1205 35.7851C41.787 35.4517 41.2465 35.4517 40.9132 35.7851C40.5797 36.1185 40.5797 36.659 40.9132 36.9923L54.369 50.448L53.3226 51.4945L32.4494 30.6213L33.4958 29.5749L38.4315 34.5107C38.7787 34.8578 39.3649 34.8345 39.6842 34.4617C39.9704 34.1276 39.9497 33.6142 39.6388 33.3034L34.2181 27.8827L32.1904 23.0471C32.1125 22.8615 31.9714 22.7094 31.7922 22.6175L25.192 19.2367C24.8621 19.0677 24.4611 19.131 24.1992 19.393L22.2674 21.3249C22.0054 21.5869 21.9423 21.988 22.1112 22.3177L25.4917 28.9177C25.5836 29.097 25.7358 29.238 25.9214 29.316L30.7569 31.3438L43.8905 44.4774L24.048 62.0796C22.8048 63.1638 22.0596 64.7311 22.0034 66.3797C21.9472 68.0284 22.5839 69.6428 23.7503 70.8092L25.3316 72.3905C26.4504 73.5094 27.9815 74.1407 29.5596 74.1407C29.6265 74.1407 29.6939 74.1395 29.7611 74.1372C31.4097 74.0811 32.9771 73.3358 34.0565 72.0979L42.6126 62.4531C42.9255 62.1003 42.8932 61.5607 42.5405 61.2479C42.1879 60.935 41.6482 60.9673 41.3353 61.32L32.7744 70.9703C31.9886 71.8713 30.8978 72.39 29.7029 72.4308C28.5064 72.4715 27.3843 72.0283 26.5391 71.183L24.9579 69.6017C24.1124 68.7563 23.6694 67.6329 23.7101 66.438C23.7509 65.2431 24.2696 64.1523 25.1759 63.3618L45.1003 45.6868L45.9855 46.5721L29.488 60.9602C28.9515 61.428 29.2161 62.3372 29.9169 62.4471C30.8846 62.5988 31.7625 63.0454 32.4558 63.7386C33.128 64.4107 33.57 65.2605 33.7338 66.1958C33.8551 66.8876 34.7551 67.1404 35.2182 66.6097L49.5688 50.1554L50.4541 51.0407L43.7589 58.588C43.4748 58.9082 43.4754 59.4059 43.7619 59.7246C44.098 60.0985 44.7024 60.0973 45.0362 59.7211L51.6637 52.2501L52.1155 52.7018L51.2703 53.547C51.0941 53.7232 51.0035 53.9676 51.0226 54.2162L51.3447 58.4018C51.3603 58.6049 51.4481 58.7958 51.5923 58.9398L65.4686 72.8162C66.2749 73.6225 67.3467 74.0663 68.4869 74.0663C69.6271 74.0663 70.6992 73.6224 71.5054 72.8162L75.691 68.6306C76.4973 67.8242 76.9411 66.7523 76.9411 65.612C76.9411 64.4718 76.4972 63.3999 75.691 62.5938L61.8142 48.7175ZM26.8694 27.8619L23.9144 22.0924L24.967 21.0399L30.7364 23.9949L32.4869 28.1693L31.0437 29.6124L26.8694 27.8619ZM34.9294 64.3429C34.295 62.9698 33.1577 61.8461 31.776 61.2303L47.1955 47.7823L48.3585 48.9453L34.9294 64.3429ZM53.708 47.3724L48.7682 42.4326L60.2584 32.2396C60.646 32.0438 60.8273 31.5724 60.6698 31.1677C59.5803 28.368 60.2477 25.1878 62.37 23.0655C63.7918 21.6436 65.683 20.8658 67.6451 20.8489L63.6579 24.8361C62.6593 25.8346 62.6593 27.4597 63.6579 28.4583L67.6823 32.4826C68.6808 33.4811 70.3058 33.4811 71.3044 32.4826L75.2917 28.4953C75.2748 30.4574 74.4971 32.3489 73.0751 33.7706C70.9529 35.893 67.7728 36.5603 64.9728 35.4708C64.568 35.3132 64.0966 35.4945 63.9008 35.8822L53.708 47.3724ZM52.7549 54.4768L57.351 49.8807L59.2942 50.0301L52.9044 56.42L52.7549 54.4768ZM74.4831 67.4233L70.2975 71.6089C69.8137 72.0927 69.1705 72.359 68.4865 72.359C67.8023 72.359 67.1592 72.0926 66.6754 71.6089L53.4029 58.3361L61.2105 50.5284L74.4832 63.8012C74.967 64.285 75.2333 64.9281 75.2333 65.6121C75.2332 66.2963 74.9668 66.9396 74.4831 67.4233Z" fill="white"/>
<path d="M72.1975 64.8965L61.7338 54.4327C61.2499 53.9489 60.6068 53.6826 59.9227 53.6826C59.2387 53.6826 58.5953 53.949 58.1117 54.4327L57.3068 55.2376C56.8229 55.7215 56.5566 56.3646 56.5566 57.0487C56.5566 57.7327 56.8231 58.376 57.3068 58.8597L67.7705 69.3235C68.2544 69.8073 68.8975 70.0736 69.5816 70.0736C70.2657 70.0736 70.909 69.8072 71.3926 69.3235L72.1975 68.5185C72.6813 68.0347 72.9477 67.3916 72.9477 66.7075C72.9478 66.0233 72.6813 65.3802 72.1975 64.8965ZM70.9902 67.3111L70.1853 68.116C70.0239 68.2774 69.8096 68.3661 69.5816 68.3661C69.3536 68.3661 69.1391 68.2773 68.978 68.116L58.5142 57.6523C58.3529 57.4909 58.2641 57.2766 58.2641 57.0487C58.2641 56.8207 58.3529 56.6062 58.5142 56.4449L59.3191 55.64C59.4805 55.4787 59.6948 55.39 59.9228 55.39C60.1508 55.39 60.3653 55.4788 60.5264 55.64L70.9902 66.1038C71.1516 66.2651 71.2403 66.4795 71.2403 66.7074C71.2403 66.9355 71.1514 67.15 70.9902 67.3111Z" fill="white"/>
<path d="M61.6525 57.5712L61.3304 57.2491C60.997 56.9156 60.4564 56.9156 60.1231 57.2491C59.7897 57.5825 59.7897 58.1231 60.1231 58.4565L60.4452 58.7784C60.6118 58.945 60.8304 59.0286 61.0488 59.0286C61.2672 59.0286 61.4858 58.9451 61.6524 58.7784C61.9859 58.445 61.9859 57.9044 61.6525 57.5712Z" fill="white"/>
<path d="M64.2287 60.1473L63.9066 59.8252C63.5732 59.4918 63.0326 59.4918 62.6993 59.8252C62.3659 60.1587 62.3659 60.6992 62.6993 61.0325L63.0213 61.3546C63.188 61.5212 63.4066 61.6047 63.625 61.6047C63.8433 61.6047 64.0619 61.5213 64.2285 61.3546C64.5621 61.0211 64.5621 60.4805 64.2287 60.1473Z" fill="white"/>
<path d="M66.8048 62.7225L66.4827 62.4005C66.1493 62.067 65.6088 62.067 65.2754 62.4005C64.942 62.7339 64.942 63.2745 65.2754 63.6078L65.5975 63.9298C65.7641 64.0965 65.9827 64.1799 66.2011 64.1799C66.4195 64.1799 66.6381 64.0966 66.8047 63.9298C67.1382 63.5964 67.1382 63.0558 66.8048 62.7225Z" fill="white"/>
<path d="M69.381 65.2987L69.0589 64.9766C68.7255 64.6432 68.1849 64.6432 67.8516 64.9766C67.5182 65.3101 67.5182 65.8506 67.8516 66.184L68.1737 66.506C68.3403 66.6726 68.5589 66.7561 68.7773 66.7561C68.9957 66.7561 69.2143 66.6727 69.3809 66.506C69.7144 66.1726 69.7144 65.6319 69.381 65.2987Z" fill="white"/>
</g>
</g>
</g>
</g>
<defs>
<filter id="filter0_i_529_361" x="0" y="0" width="98" height="97" filterUnits="userSpaceOnUse" color-interpolation-filters="sRGB">
<feFlood flood-opacity="0" result="BackgroundImageFix"/>
<feBlend mode="normal" in="SourceGraphic" in2="BackgroundImageFix" result="shape"/>
<feColorMatrix in="SourceAlpha" type="matrix" values="0 0 0 0 0 0 0 0 0 0 0 0 0 0 0 0 0 0 127 0" result="hardAlpha"/>
<feOffset dy="4"/>
<feGaussianBlur stdDeviation="2"/>
<feComposite in2="hardAlpha" operator="arithmetic" k2="-1" k3="1"/>
<feColorMatrix type="matrix" values="0 0 0 0 1 0 0 0 0 1 0 0 0 0 1 0 0 0 0.25 0"/>
<feBlend mode="normal" in2="shape" result="effect1_innerShadow_529_361"/>
</filter>
<clipPath id="clip0_529_361">
<rect width="98" height="93" fill="white"/>
</clipPath>
<clipPath id="clip1_529_361">
<rect width="98" height="93" fill="white"/>
</clipPath>
<clipPath id="clip2_529_361">
<rect width="98" height="93" fill="white"/>
</clipPath>
</defs>
</svg>
