<svg width="98" height="94" viewBox="0 0 98 94" fill="none" xmlns="http://www.w3.org/2000/svg">
<g filter="url(#filter0_i_412_581)">
<rect width="98" height="93.9457" rx="14" fill="url(#paint0_linear_412_581)"/>
<path d="M47.893 19.9692C47.7969 19.4462 47.2952 19.1008 46.7722 19.1963C43.1945 19.8538 41.1028 21.999 39.4221 23.7228C37.6732 25.5167 36.5179 26.7017 33.981 26.7017C31.4442 26.7017 30.2889 25.5168 28.5398 23.7228C26.5967 21.7298 23.9353 19 18.9627 19C18.431 19 18 19.4311 18 19.9627V32.3394C18 32.8711 18.4311 33.302 18.9627 33.302C19.4943 33.302 19.9254 32.871 19.9254 32.3394V20.9667C23.4655 21.2768 25.4204 23.2815 27.1615 25.0674C28.7548 26.7016 30.1634 28.1442 32.6336 28.5272V55.9585C32.6336 56.4902 33.0647 56.9212 33.5963 56.9212C34.1279 56.9212 34.559 56.4901 34.559 55.9585V28.6098C37.5213 28.4302 39.0489 26.864 40.8009 25.0671C42.3685 23.4592 44.1453 21.6368 47.1202 21.0902C47.6431 20.9941 47.9892 20.4922 47.893 19.9692Z" fill="white"/>
<path d="M79.0374 19C74.0649 19 71.4034 21.7297 69.4599 23.723C67.7109 25.5168 66.5553 26.7018 64.0185 26.7018C61.4815 26.7018 60.3261 25.5168 58.5769 23.7228C56.8965 21.9994 54.8051 19.8544 51.2282 19.1967C50.7052 19.101 50.2035 19.4466 50.1072 19.9694C50.0111 20.4924 50.357 20.9942 50.8799 21.0903C53.8542 21.6372 55.6308 23.4593 57.1984 25.0669C58.9507 26.8641 60.4786 28.4302 63.4412 28.6097V40.5546C63.4412 41.0863 63.8723 41.5173 64.4039 41.5173C64.9355 41.5173 65.3666 41.0862 65.3666 40.5546V28.5269C67.8366 28.1438 69.2452 26.7012 70.8388 25.0668C72.5797 23.2813 74.5347 21.2766 78.0749 20.9664V61.5038C73.7144 61.8289 71.2741 64.3301 69.4603 66.1903L69.4601 66.1906C68.0542 67.6323 67.0313 68.6804 65.3668 69.0363V45.6894C65.3668 45.1576 64.9357 44.7267 64.4041 44.7267C63.8725 44.7267 63.4414 45.1578 63.4414 45.6894V69.1467C61.2957 68.9771 60.1876 67.8423 58.5771 66.1906C56.6337 64.1975 53.9722 61.4678 48.9997 61.4678C44.0272 61.4678 41.3658 64.1976 39.4225 66.1907C37.8124 67.8422 36.7044 68.9769 34.5592 69.1467V61.0931C34.5592 60.5614 34.1281 60.1304 33.5965 60.1304C33.0648 60.1304 32.6338 60.5615 32.6338 61.0931V69.0364C30.9692 68.6806 29.9463 67.6326 28.5401 66.1905C26.7263 64.3302 24.2861 61.8289 19.9256 61.5039V38.5009C19.9256 37.9691 19.4945 37.5382 18.9629 37.5382C18.4313 37.5382 18 37.9693 18 38.5009V66.2812C18 66.8129 18.4311 67.2439 18.9627 67.2439C21.4995 67.2439 22.6549 68.4288 24.4039 70.2228C26.3473 72.2158 29.0087 74.9457 33.9811 74.9457C38.9536 74.9457 41.615 72.2158 43.5583 70.2228C45.3073 68.4289 46.4625 67.2439 48.9995 67.2439C51.5364 67.2439 52.6919 68.4289 54.4411 70.2229C56.3844 72.216 59.0459 74.9457 64.0184 74.9457C68.991 74.9457 71.6525 72.216 73.5958 70.2229C75.3449 68.429 76.5004 67.2439 79.0373 67.2439C79.569 67.2439 80 66.8128 80 66.2812V19.9627C80.0001 19.4311 79.569 19 79.0374 19ZM78.0746 65.3675C75.3611 65.6541 73.892 67.1611 72.2172 68.8789C70.3243 70.8201 68.1791 73.0204 64.0184 73.0204C59.8577 73.0204 57.7124 70.8201 55.8193 68.8786C53.9568 66.9682 52.3481 65.3186 48.9993 65.3186C45.6507 65.3186 44.042 66.9685 42.1796 68.8787C40.2869 70.8201 38.1416 73.0204 33.981 73.0204C29.8203 73.0204 27.675 70.8201 25.7822 68.8785C24.1077 67.1611 22.6381 65.6542 19.9253 65.3676V63.4344C23.4653 63.7445 25.4202 65.7492 27.1614 67.5351C29.0239 69.4452 30.6325 71.095 33.981 71.095C37.3296 71.095 38.9384 69.4451 40.8008 67.5348C42.6935 65.5935 44.8388 63.3932 48.9993 63.3932C53.16 63.3932 55.3054 65.5935 57.1981 67.5347C59.0608 69.4452 60.6695 71.095 64.0183 71.095C67.367 71.095 68.9757 69.4451 70.8383 67.535L70.8385 67.5348C72.5795 65.7493 74.5344 63.7446 78.0746 63.4345V65.3675Z" fill="white"/>
</g>
<defs>
<filter id="filter0_i_412_581" x="0" y="0" width="98" height="97.9453" filterUnits="userSpaceOnUse" color-interpolation-filters="sRGB">
<feFlood flood-opacity="0" result="BackgroundImageFix"/>
<feBlend mode="normal" in="SourceGraphic" in2="BackgroundImageFix" result="shape"/>
<feColorMatrix in="SourceAlpha" type="matrix" values="0 0 0 0 0 0 0 0 0 0 0 0 0 0 0 0 0 0 127 0" result="hardAlpha"/>
<feOffset dy="4"/>
<feGaussianBlur stdDeviation="2"/>
<feComposite in2="hardAlpha" operator="arithmetic" k2="-1" k3="1"/>
<feColorMatrix type="matrix" values="0 0 0 0 1 0 0 0 0 1 0 0 0 0 1 0 0 0 0.25 0"/>
<feBlend mode="normal" in2="shape" result="effect1_innerShadow_412_581"/>
</filter>
<linearGradient id="paint0_linear_412_581" x1="0" y1="46.9728" x2="98" y2="46.9728" gradientUnits="userSpaceOnUse">
<stop stop-color="#5D1E79"/>
<stop offset="0.6" stop-color="#770D62"/>
<stop offset="1" stop-color="#8B0051"/>
</linearGradient>
</defs>
</svg>
