<svg width="86" height="93" viewBox="0 0 86 93" fill="none" xmlns="http://www.w3.org/2000/svg">
<g filter="url(#filter0_i_305_241)">
<rect width="85.1307" height="93" rx="14" fill="url(#paint0_linear_305_241)"/>
<path d="M56.7318 43.3378C56.7318 35.5226 50.3736 29.1643 42.5582 29.1643C39.6125 29.1643 36.7879 30.0596 34.3899 31.7534C34.0078 32.0234 33.9169 32.5519 34.1867 32.934C34.4568 33.3161 34.9852 33.407 35.3673 33.1371C37.4779 31.6463 39.9645 30.8583 42.5583 30.8583C49.4396 30.8583 55.0377 36.4566 55.0377 43.3377C55.0377 48.2598 52.1318 52.7359 47.6343 54.7411C47.3289 54.8773 47.1322 55.1803 47.1322 55.5147V58.0759H46.1225V46.5959H47.637C48.698 46.5959 49.6294 45.9558 50.0094 44.9653C50.3896 43.9747 50.1256 42.8759 49.3369 42.1662L48.6693 41.5654C47.9129 40.8844 46.8653 40.7188 45.9356 41.1328C45.0058 41.5469 44.4283 42.4362 44.4283 43.454V44.9019H40.6881V43.454C40.6881 42.4362 40.1105 41.5469 39.1809 41.1328C38.2511 40.7187 37.2037 40.8844 36.4471 41.5654L35.7797 42.1662C34.9911 42.876 34.7271 43.9747 35.1071 44.9653C35.4873 45.9558 36.4185 46.5959 37.4795 46.5959H38.9941V58.076H37.9842V55.5148C37.9842 55.1804 37.7875 54.8773 37.4821 54.7412C32.9847 52.736 30.0787 48.2599 30.0787 43.3378C30.0787 40.4564 31.0324 37.7504 32.8368 35.5121C33.1302 35.1479 33.073 34.6146 32.7089 34.3211C32.3448 34.0278 31.8115 34.0849 31.5179 34.449C29.4975 36.9555 28.3848 40.1123 28.3848 43.3378C28.3848 48.7426 31.4695 53.6736 36.2903 56.0526V58.076H34.4268C33.959 58.076 33.5798 58.4552 33.5798 58.923V68.0708C33.5798 71.3402 36.2396 74 39.5089 74H45.6075C48.8769 74 51.5366 71.3402 51.5366 68.0708V65.6992C51.5366 65.2314 51.1575 64.8522 50.6896 64.8522C50.2218 64.8522 49.8426 65.2314 49.8426 65.6992V67.2238H35.2739V64.2874H47.5276C47.9954 64.2874 48.3746 63.9082 48.3746 63.4404C48.3746 62.9726 47.9954 62.5934 47.5276 62.5934H35.2739V59.77H49.8427V61.1818C49.8427 61.6496 50.2219 62.0288 50.6897 62.0288C51.1576 62.0288 51.5368 61.6496 51.5368 61.1818V58.923C51.5368 58.4552 51.1576 58.076 50.6897 58.076H48.8263V56.0526C53.6471 53.6735 56.7318 48.7424 56.7318 43.3378ZM46.1225 43.4539C46.1225 42.9436 46.507 42.7327 46.6249 42.6802C46.7428 42.6278 47.1568 42.483 47.536 42.8242L48.2036 43.425C48.605 43.7864 48.4766 44.2305 48.4278 44.3581C48.3789 44.4856 48.1771 44.9017 47.637 44.9017H46.1225V43.4539ZM38.9942 44.9019H37.4796C36.7159 44.9019 36.3421 43.9389 36.913 43.4253L37.5804 42.8244C38.12 42.3388 38.9942 42.7349 38.9942 43.454V44.9019ZM49.7575 68.9179C49.3639 70.8487 47.6528 72.306 45.6076 72.306H39.5091C37.4637 72.306 35.7527 70.8487 35.3592 68.9179H49.7575ZM44.4284 58.076H40.6882V46.5959H44.4284V58.076Z" fill="white"/>
<path d="M42.5599 19C42.0921 19 41.7129 19.3792 41.7129 19.847V24.5903C41.7129 25.0582 42.0921 25.4374 42.5599 25.4374C43.0277 25.4374 43.4069 25.0582 43.4069 24.5903V19.847C43.4069 19.3792 43.0277 19 42.5599 19Z" fill="white"/>
<path d="M33.8117 26.7088L31.44 22.601C31.2062 22.1959 30.6881 22.057 30.283 22.291C29.8779 22.5248 29.7391 23.0429 29.973 23.448L32.3445 27.5558C32.5934 27.987 33.1789 28.1097 33.5807 27.8142C33.9238 27.562 34.0244 27.0774 33.8117 26.7088Z" fill="white"/>
<path d="M26.5523 33.3435L22.4445 30.9718C22.0393 30.7379 21.5212 30.8768 21.2874 31.2819C21.0536 31.687 21.1924 32.205 21.5974 32.4389L25.7053 34.8106C26.1373 35.0601 26.7051 34.872 26.9049 34.4162C27.076 34.0262 26.9207 33.5561 26.5523 33.3435Z" fill="white"/>
<path d="M23.5903 42.7166H18.847C18.3792 42.7166 18 43.0958 18 43.5636C18 44.0314 18.3792 44.4106 18.847 44.4106H23.5903C24.0582 44.4106 24.4374 44.0314 24.4374 43.5636C24.4374 43.0959 24.0581 42.7166 23.5903 42.7166Z" fill="white"/>
<path d="M26.8666 52.6269C26.6328 52.2218 26.1147 52.0829 25.7096 52.3168L21.6018 54.6884C21.2333 54.9011 21.0781 55.3711 21.2491 55.7613C21.4489 56.2171 22.0167 56.4053 22.4488 56.1556L26.5566 53.784C26.9617 53.5501 27.1005 53.032 26.8666 52.6269Z" fill="white"/>
<path d="M63.5308 54.6884L59.423 52.3168C59.0178 52.0828 58.4998 52.2217 58.2659 52.6268C58.0321 53.0319 58.1709 53.55 58.576 53.7838L62.6838 56.1555C63.1158 56.405 63.6838 56.217 63.8835 55.7612C64.0546 55.3711 63.8994 54.9011 63.5308 54.6884Z" fill="white"/>
<path d="M66.2837 42.7166H61.5404C61.0726 42.7166 60.6934 43.0958 60.6934 43.5636C60.6934 44.0315 61.0726 44.4107 61.5404 44.4107H66.2837C66.7515 44.4107 67.1307 44.0315 67.1307 43.5636C67.1307 43.0959 66.7515 42.7166 66.2837 42.7166Z" fill="white"/>
<path d="M63.8408 31.2819C63.607 30.8768 63.0889 30.738 62.6838 30.9718L58.576 33.3435C58.1709 33.5774 58.0321 34.0955 58.2659 34.5005C58.4228 34.7722 58.7076 34.9242 59.0003 34.9242C59.1439 34.9242 59.2897 34.8876 59.423 34.8106L63.5308 32.4389C63.936 32.2049 64.0748 31.687 63.8408 31.2819Z" fill="white"/>
<path d="M54.8454 22.291C54.4403 22.057 53.9222 22.1959 53.6884 22.601L51.3167 26.7088C51.0829 27.1139 51.2217 27.632 51.6267 27.8658C52.0269 28.0969 52.5531 27.9553 52.7838 27.5558L55.1554 23.448C55.3893 23.0429 55.2505 22.5248 54.8454 22.291Z" fill="white"/>
</g>
<defs>
<filter id="filter0_i_305_241" x="0" y="0" width="85.1309" height="97" filterUnits="userSpaceOnUse" color-interpolation-filters="sRGB">
<feFlood flood-opacity="0" result="BackgroundImageFix"/>
<feBlend mode="normal" in="SourceGraphic" in2="BackgroundImageFix" result="shape"/>
<feColorMatrix in="SourceAlpha" type="matrix" values="0 0 0 0 0 0 0 0 0 0 0 0 0 0 0 0 0 0 127 0" result="hardAlpha"/>
<feOffset dy="4"/>
<feGaussianBlur stdDeviation="2"/>
<feComposite in2="hardAlpha" operator="arithmetic" k2="-1" k3="1"/>
<feColorMatrix type="matrix" values="0 0 0 0 1 0 0 0 0 1 0 0 0 0 1 0 0 0 0.25 0"/>
<feBlend mode="normal" in2="shape" result="effect1_innerShadow_305_241"/>
</filter>
<linearGradient id="paint0_linear_305_241" x1="42.5654" y1="0" x2="42.5654" y2="93" gradientUnits="userSpaceOnUse">
<stop stop-color="#00B9F2"/>
<stop offset="1" stop-color="#2C4F94"/>
</linearGradient>
</defs>
</svg>
