<svg width="98" height="94" viewBox="0 0 98 94" fill="none" xmlns="http://www.w3.org/2000/svg">
<g clip-path="url(#clip0_529_386)">
<g clip-path="url(#clip1_529_386)">
<g clip-path="url(#clip2_529_386)">
<g filter="url(#filter0_i_529_386)">
<path d="M81.876 0.19043H16.124C7.21894 0.19043 0 6.45844 0 14.1904V79.1904C0 86.9224 7.21894 93.1904 16.124 93.1904H81.876C90.7811 93.1904 98 86.9224 98 79.1904V14.1904C98 6.45844 90.7811 0.19043 81.876 0.19043Z" fill="#8BC53F"/>
<path d="M47.0637 29.3105C44.4686 29.3105 42.3574 31.4218 42.3574 34.0168C42.3574 36.6119 44.4686 38.7231 47.0637 38.7231C49.6588 38.7231 51.77 36.6119 51.77 34.0168C51.77 31.4218 49.6588 29.3105 47.0637 29.3105ZM47.0637 37.022C45.4066 37.022 44.0585 35.6739 44.0585 34.0168C44.0585 32.3598 45.4066 31.0116 47.0637 31.0116C48.7208 31.0116 50.0689 32.3598 50.0689 34.0168C50.0689 35.6739 48.7208 37.022 47.0637 37.022Z" fill="white"/>
<path d="M73.0837 73.3713L71.9606 64.8119C71.9491 64.7274 71.9294 64.6429 71.8954 64.5644L69.247 58.4361L72.3655 57.0186C72.7931 56.8241 72.9822 56.3199 72.7878 55.8923C72.5935 55.4646 72.089 55.2756 71.6616 55.4698L68.5719 56.8742L66.6834 52.5042C66.4969 52.0731 65.9963 51.8744 65.5652 52.0609C65.134 52.2474 64.9355 52.7479 65.1218 53.1791L67.0229 57.5782L64.0285 58.9393L59.7378 49.0111L62.7566 47.7065L63.5533 49.5503C63.7398 49.9815 64.2402 50.1799 64.6715 49.9936C65.1027 49.8071 65.3012 49.3065 65.1149 48.8755L63.1111 44.2386C62.842 43.6159 62.3203 43.1132 61.6859 42.8706C61.0575 42.6303 60.3755 42.6545 59.7566 42.9085L58.2992 43.5384C58.0186 43.6596 57.769 43.8287 57.5538 44.033L54.9231 37.9448C55.5169 36.7617 55.8532 35.4281 55.8532 34.0167C55.8532 29.9342 53.0549 26.4931 49.2757 25.5099V21.5425C49.2758 20.3231 48.2838 19.3311 47.0645 19.3311C45.8451 19.3311 44.8531 20.3231 44.8531 21.5425V25.5103C41.0739 26.4934 38.2756 29.9344 38.2756 34.017C38.2756 35.4284 38.612 36.7619 39.2058 37.9451L31.3465 56.1338C31.1722 56.5368 31.3431 57.0211 31.7325 57.2246C32.1653 57.4509 32.7145 57.2565 32.908 56.8086L40.323 39.6481C41.1532 40.6404 42.1981 41.4461 43.3853 41.9958L33.2879 65.3642L28.801 66.3132L31.3399 60.4375C31.5263 60.0063 31.3278 59.5056 30.8965 59.3194C30.4649 59.1329 29.9645 59.3317 29.7783 59.7629L24.0682 72.9781C23.8939 73.3811 24.0648 73.8654 24.4542 74.069C24.887 74.2952 25.4362 74.1009 25.6297 73.6529L27.9743 68.2271L34.0702 66.9378C34.3402 66.8807 34.5655 66.6962 34.675 66.4431L44.9958 42.558C46.3521 42.8866 47.7772 42.8866 49.1336 42.558L57.4955 61.9097L56.4656 62.3778C56.0708 62.5573 55.872 63.0209 56.0139 63.4305C56.1756 63.8972 56.7191 64.131 57.1695 63.9265L63.1549 61.2059L65.7538 67.2193C65.7875 67.297 65.8351 67.3742 65.8911 67.4382L71.5972 74.0387C71.8559 74.3378 72.3002 74.4185 72.6477 74.2292C72.9529 74.0624 73.1291 73.716 73.0837 73.3713ZM58.4937 45.6474C58.5638 45.4034 58.7413 45.2008 58.9743 45.1001L60.4317 44.4701C60.593 44.4003 60.7645 44.3846 60.9256 44.4151C61.1941 44.4658 61.4337 44.6445 61.5499 44.9137L62.0823 46.1454L59.0635 47.45L58.5313 46.2184C58.4522 46.0358 58.4396 45.836 58.4937 45.6474ZM46.5542 21.5425C46.5542 21.2611 46.7831 21.0321 47.0646 21.0321C47.3459 21.0321 47.5749 21.261 47.5749 21.5425V25.2441C47.406 25.2343 47.2359 25.2281 47.0646 25.2281C46.8932 25.2281 46.7232 25.2343 46.5542 25.2441V21.5425ZM47.0646 41.1049C43.1564 41.1049 39.9767 37.9253 39.9767 34.017C39.9767 30.1087 43.1564 26.9292 47.0646 26.9292C50.9728 26.9292 54.1524 30.1087 54.1524 34.017C54.1524 37.9253 50.9728 41.1049 47.0646 41.1049ZM58.9954 61.0921L50.7439 41.9957C51.9311 41.446 52.9759 40.6403 53.8062 39.648L62.4216 59.5865L58.9954 61.0921ZM64.7036 60.5014L67.6982 59.1403L69.9966 64.4585L66.9776 65.7631L64.7036 60.5014ZM67.936 67.2022L70.418 66.1296L71.028 70.7789L67.936 67.2022Z" fill="white"/>
</g>
</g>
</g>
</g>
<defs>
<filter id="filter0_i_529_386" x="0" y="0.19043" width="98" height="97" filterUnits="userSpaceOnUse" color-interpolation-filters="sRGB">
<feFlood flood-opacity="0" result="BackgroundImageFix"/>
<feBlend mode="normal" in="SourceGraphic" in2="BackgroundImageFix" result="shape"/>
<feColorMatrix in="SourceAlpha" type="matrix" values="0 0 0 0 0 0 0 0 0 0 0 0 0 0 0 0 0 0 127 0" result="hardAlpha"/>
<feOffset dy="4"/>
<feGaussianBlur stdDeviation="2"/>
<feComposite in2="hardAlpha" operator="arithmetic" k2="-1" k3="1"/>
<feColorMatrix type="matrix" values="0 0 0 0 1 0 0 0 0 1 0 0 0 0 1 0 0 0 0.25 0"/>
<feBlend mode="normal" in2="shape" result="effect1_innerShadow_529_386"/>
</filter>
<clipPath id="clip0_529_386">
<rect width="98" height="93" fill="white" transform="translate(0 0.19043)"/>
</clipPath>
<clipPath id="clip1_529_386">
<rect width="98" height="93" fill="white" transform="translate(0 0.19043)"/>
</clipPath>
<clipPath id="clip2_529_386">
<rect width="98" height="93" fill="white" transform="translate(0 0.19043)"/>
</clipPath>
</defs>
</svg>
