<svg width="61" height="60" viewBox="0 0 61 60" fill="none" xmlns="http://www.w3.org/2000/svg">
<mask id="path-1-inside-1_155_1695" fill="white">
<path d="M43.5673 4.97072C40.4772 2.35562 36.6972 0.689237 32.6822 0.172099C28.6672 -0.345039 24.5884 0.309109 20.9364 2.05582C17.2845 3.80253 14.2152 6.56738 12.0978 10.0176C9.98037 13.4679 8.90516 17.4565 9.00152 21.5035C9.53704 28.6555 12.7517 35.3419 18.003 40.2267C19.5333 41.967 21.0035 43.7673 21.0035 44.6974V51.8386C21.0035 52.9104 21.2146 53.9717 21.6248 54.9618C22.0349 55.952 22.6361 56.8517 23.394 57.6096C24.1518 58.3674 25.0515 58.9686 26.0417 59.3788C27.0319 59.7889 28.0931 60 29.1649 60H30.8452C33.0097 60 35.0856 59.1401 36.6162 57.6096C38.1467 56.079 39.0066 54.0032 39.0066 51.8386V44.6974C39.0066 43.7673 40.5968 41.967 42.0071 40.2267C47.3908 35.2274 50.6189 28.33 51.0086 20.9934C51.0064 17.9425 50.3396 14.9287 49.0545 12.1617C47.7694 9.39461 45.8969 6.94073 43.5673 4.97072ZM30.8452 56.9995H29.1649C27.7962 56.9995 26.4835 56.4558 25.5156 55.4879C24.5478 54.5201 24.004 53.2074 24.004 51.8386V47.998H36.0061V51.8386C36.0061 53.2074 35.4623 54.5201 34.4945 55.4879C33.5266 56.4558 32.2139 56.9995 30.8452 56.9995ZM39.8467 38.2463C37.6563 40.6767 35.9461 42.6271 35.9461 44.6974V44.9975H24.004V44.6974C24.004 42.6271 22.2938 40.6767 20.1034 38.2463C15.4092 33.8464 12.5212 27.8564 12.002 21.4435C11.8984 17.1152 13.358 12.8946 16.1134 9.55503C18.8688 6.2155 22.7354 3.98078 27.0046 3.26044C29.5845 2.82434 32.2286 2.95587 34.7525 3.64587C37.2765 4.33587 39.6197 5.56775 41.619 7.25573C43.6183 8.94371 45.2256 11.0472 46.329 13.4198C47.4324 15.7923 48.0054 18.3769 48.0081 20.9934C48.0081 29.0948 43.3273 34.3757 39.9067 38.2463H39.8467Z"/>
<path d="M58.5099 17.9929H55.5094C55.1115 17.9929 54.7299 18.151 54.4485 18.4323C54.1672 18.7137 54.0091 19.0953 54.0091 19.4932C54.0091 19.8911 54.1672 20.2727 54.4485 20.554C54.7299 20.8354 55.1115 20.9934 55.5094 20.9934H58.5099C58.9077 20.9934 59.2893 20.8354 59.5707 20.554C59.852 20.2727 60.0101 19.8911 60.0101 19.4932C60.0101 19.0953 59.852 18.7137 59.5707 18.4323C59.2893 18.151 58.9077 17.9929 58.5099 17.9929Z"/>
<path d="M6.00101 19.4932C6.00101 19.0953 5.84295 18.7137 5.5616 18.4323C5.28025 18.151 4.89865 17.9929 4.50076 17.9929H1.50025C1.10236 17.9929 0.720766 18.151 0.439414 18.4323C0.158062 18.7137 0 19.0953 0 19.4932C0 19.8911 0.158062 20.2727 0.439414 20.554C0.720766 20.8354 1.10236 20.9934 1.50025 20.9934H4.50076C4.89865 20.9934 5.28025 20.8354 5.5616 20.554C5.84295 20.2727 6.00101 19.8911 6.00101 19.4932Z"/>
<path d="M5.55094 0.43996C5.27241 0.161436 4.89465 0.00496186 4.50076 0.00496186C4.10687 0.00496187 3.72911 0.161436 3.45058 0.43996C3.17206 0.718484 3.01558 1.09624 3.01558 1.49014C3.01558 1.88403 3.17206 2.26179 3.45058 2.54031L6.45109 5.54082C6.58578 5.68434 6.74846 5.79872 6.92908 5.87692C7.10971 5.95511 7.30444 5.99545 7.50126 5.99545C7.69809 5.99545 7.89282 5.95511 8.07345 5.87692C8.25407 5.79872 8.41675 5.68434 8.55144 5.54082C8.69496 5.40613 8.80934 5.24345 8.88754 5.06282C8.96573 4.8822 9.00607 4.68747 9.00607 4.49064C9.00607 4.29382 8.96573 4.09909 8.88754 3.91846C8.80934 3.73784 8.69496 3.57516 8.55144 3.44047L5.55094 0.43996Z"/>
<path d="M52.5089 5.9909C52.7056 5.99329 52.9007 5.95449 53.0816 5.87698C53.2624 5.79946 53.4251 5.68496 53.559 5.54082L56.5595 2.54031C56.8381 2.26179 56.9945 1.88403 56.9945 1.49014C56.9945 1.09624 56.8381 0.718484 56.5595 0.43996C56.281 0.161436 55.9032 0.00496187 55.5094 0.00496186C55.1155 0.00496186 54.7377 0.161436 54.4592 0.43996L51.4587 3.44047C51.3152 3.57516 51.2008 3.73784 51.1226 3.91846C51.0444 4.09909 51.004 4.29382 51.004 4.49064C51.004 4.68747 51.0444 4.8822 51.1226 5.06282C51.2008 5.24345 51.3152 5.40613 51.4587 5.54082C51.5926 5.68496 51.7553 5.79946 51.9361 5.87698C52.117 5.95449 52.3121 5.99329 52.5089 5.9909Z"/>
<path d="M53.559 33.4455C53.2805 33.167 52.9027 33.0105 52.5089 33.0105C52.115 33.0105 51.7372 33.167 51.4587 33.4455C51.1801 33.724 51.0237 34.1018 51.0237 34.4957C51.0237 34.8896 51.1801 35.2674 51.4587 35.5459L54.4592 38.5464C54.5939 38.6899 54.7565 38.8043 54.9372 38.8825C55.1178 38.9607 55.3125 39.001 55.5094 39.001C55.7062 39.001 55.9009 38.9607 56.0815 38.8825C56.2622 38.8043 56.4248 38.6899 56.5595 38.5464C56.703 38.4117 56.8174 38.249 56.8956 38.0684C56.9738 37.8878 57.0142 37.693 57.0142 37.4962C57.0142 37.2994 56.9738 37.1047 56.8956 36.924C56.8174 36.7434 56.703 36.5807 56.5595 36.446L53.559 33.4455Z"/>
<path d="M6.45109 33.4455L3.45058 36.446C3.30707 36.5807 3.19268 36.7434 3.11449 36.924C3.03629 37.1047 2.99595 37.2994 2.99595 37.4962C2.99595 37.693 3.03629 37.8878 3.11449 38.0684C3.19268 38.249 3.30707 38.4117 3.45058 38.5464C3.58527 38.6899 3.74795 38.8043 3.92858 38.8825C4.1092 38.9607 4.30394 39.001 4.50076 39.001C4.69758 39.001 4.89232 38.9607 5.07294 38.8825C5.25356 38.8043 5.41624 38.6899 5.55094 38.5464L8.55144 35.5459C8.82996 35.2674 8.98644 34.8896 8.98644 34.4957C8.98644 34.1018 8.82996 33.724 8.55144 33.4455C8.27292 33.167 7.89516 33.0105 7.50126 33.0105C7.10737 33.0105 6.72961 33.167 6.45109 33.4455Z"/>
<path d="M33.4556 15.4425L24.4541 24.444C24.2355 24.645 24.086 24.9098 24.0267 25.2007C23.9674 25.4916 24.0015 25.7938 24.1241 26.0643C24.2366 26.3383 24.4277 26.5728 24.6734 26.7383C24.919 26.9038 25.2081 26.993 25.5043 26.9944H30.8752L27.4546 30.445C27.3111 30.5797 27.1967 30.7424 27.1185 30.923C27.0403 31.1036 27 31.2984 27 31.4952C27 31.692 27.0403 31.8868 27.1185 32.0674C27.1967 32.248 27.3111 32.4107 27.4546 32.5454C27.5893 32.6889 27.752 32.8033 27.9326 32.8815C28.1132 32.9597 28.308 33 28.5048 33C28.7016 33 28.8964 32.9597 29.077 32.8815C29.2576 32.8033 29.4203 32.6889 29.555 32.5454L35.556 26.5444C35.7746 26.3434 35.9241 26.0786 35.9834 25.7877C36.0427 25.4967 36.0086 25.1945 35.886 24.9241C35.7735 24.6501 35.5824 24.4156 35.3367 24.2501C35.0911 24.0845 34.802 23.9954 34.5058 23.9939H29.1349L35.556 17.5428C35.8345 17.2643 35.991 16.8866 35.991 16.4927C35.991 16.0988 35.8345 15.721 35.556 15.4425C35.2775 15.164 34.8997 15.0075 34.5058 15.0075C34.1119 15.0075 33.7342 15.164 33.4556 15.4425Z"/>
</mask>
<path d="M43.5673 4.97072C40.4772 2.35562 36.6972 0.689237 32.6822 0.172099C28.6672 -0.345039 24.5884 0.309109 20.9364 2.05582C17.2845 3.80253 14.2152 6.56738 12.0978 10.0176C9.98037 13.4679 8.90516 17.4565 9.00152 21.5035C9.53704 28.6555 12.7517 35.3419 18.003 40.2267C19.5333 41.967 21.0035 43.7673 21.0035 44.6974V51.8386C21.0035 52.9104 21.2146 53.9717 21.6248 54.9618C22.0349 55.952 22.6361 56.8517 23.394 57.6096C24.1518 58.3674 25.0515 58.9686 26.0417 59.3788C27.0319 59.7889 28.0931 60 29.1649 60H30.8452C33.0097 60 35.0856 59.1401 36.6162 57.6096C38.1467 56.079 39.0066 54.0032 39.0066 51.8386V44.6974C39.0066 43.7673 40.5968 41.967 42.0071 40.2267C47.3908 35.2274 50.6189 28.33 51.0086 20.9934C51.0064 17.9425 50.3396 14.9287 49.0545 12.1617C47.7694 9.39461 45.8969 6.94073 43.5673 4.97072ZM30.8452 56.9995H29.1649C27.7962 56.9995 26.4835 56.4558 25.5156 55.4879C24.5478 54.5201 24.004 53.2074 24.004 51.8386V47.998H36.0061V51.8386C36.0061 53.2074 35.4623 54.5201 34.4945 55.4879C33.5266 56.4558 32.2139 56.9995 30.8452 56.9995ZM39.8467 38.2463C37.6563 40.6767 35.9461 42.6271 35.9461 44.6974V44.9975H24.004V44.6974C24.004 42.6271 22.2938 40.6767 20.1034 38.2463C15.4092 33.8464 12.5212 27.8564 12.002 21.4435C11.8984 17.1152 13.358 12.8946 16.1134 9.55503C18.8688 6.2155 22.7354 3.98078 27.0046 3.26044C29.5845 2.82434 32.2286 2.95587 34.7525 3.64587C37.2765 4.33587 39.6197 5.56775 41.619 7.25573C43.6183 8.94371 45.2256 11.0472 46.329 13.4198C47.4324 15.7923 48.0054 18.3769 48.0081 20.9934C48.0081 29.0948 43.3273 34.3757 39.9067 38.2463H39.8467Z" stroke="white" stroke-width="2" mask="url(#path-1-inside-1_155_1695)"/>
<path d="M58.5099 17.9929H55.5094C55.1115 17.9929 54.7299 18.151 54.4485 18.4323C54.1672 18.7137 54.0091 19.0953 54.0091 19.4932C54.0091 19.8911 54.1672 20.2727 54.4485 20.554C54.7299 20.8354 55.1115 20.9934 55.5094 20.9934H58.5099C58.9077 20.9934 59.2893 20.8354 59.5707 20.554C59.852 20.2727 60.0101 19.8911 60.0101 19.4932C60.0101 19.0953 59.852 18.7137 59.5707 18.4323C59.2893 18.151 58.9077 17.9929 58.5099 17.9929Z" stroke="white" stroke-width="2" mask="url(#path-1-inside-1_155_1695)"/>
<path d="M6.00101 19.4932C6.00101 19.0953 5.84295 18.7137 5.5616 18.4323C5.28025 18.151 4.89865 17.9929 4.50076 17.9929H1.50025C1.10236 17.9929 0.720766 18.151 0.439414 18.4323C0.158062 18.7137 0 19.0953 0 19.4932C0 19.8911 0.158062 20.2727 0.439414 20.554C0.720766 20.8354 1.10236 20.9934 1.50025 20.9934H4.50076C4.89865 20.9934 5.28025 20.8354 5.5616 20.554C5.84295 20.2727 6.00101 19.8911 6.00101 19.4932Z" stroke="white" stroke-width="2" mask="url(#path-1-inside-1_155_1695)"/>
<path d="M5.55094 0.43996C5.27241 0.161436 4.89465 0.00496186 4.50076 0.00496186C4.10687 0.00496187 3.72911 0.161436 3.45058 0.43996C3.17206 0.718484 3.01558 1.09624 3.01558 1.49014C3.01558 1.88403 3.17206 2.26179 3.45058 2.54031L6.45109 5.54082C6.58578 5.68434 6.74846 5.79872 6.92908 5.87692C7.10971 5.95511 7.30444 5.99545 7.50126 5.99545C7.69809 5.99545 7.89282 5.95511 8.07345 5.87692C8.25407 5.79872 8.41675 5.68434 8.55144 5.54082C8.69496 5.40613 8.80934 5.24345 8.88754 5.06282C8.96573 4.8822 9.00607 4.68747 9.00607 4.49064C9.00607 4.29382 8.96573 4.09909 8.88754 3.91846C8.80934 3.73784 8.69496 3.57516 8.55144 3.44047L5.55094 0.43996Z" stroke="white" stroke-width="2" mask="url(#path-1-inside-1_155_1695)"/>
<path d="M52.5089 5.9909C52.7056 5.99329 52.9007 5.95449 53.0816 5.87698C53.2624 5.79946 53.4251 5.68496 53.559 5.54082L56.5595 2.54031C56.8381 2.26179 56.9945 1.88403 56.9945 1.49014C56.9945 1.09624 56.8381 0.718484 56.5595 0.43996C56.281 0.161436 55.9032 0.00496187 55.5094 0.00496186C55.1155 0.00496186 54.7377 0.161436 54.4592 0.43996L51.4587 3.44047C51.3152 3.57516 51.2008 3.73784 51.1226 3.91846C51.0444 4.09909 51.004 4.29382 51.004 4.49064C51.004 4.68747 51.0444 4.8822 51.1226 5.06282C51.2008 5.24345 51.3152 5.40613 51.4587 5.54082C51.5926 5.68496 51.7553 5.79946 51.9361 5.87698C52.117 5.95449 52.3121 5.99329 52.5089 5.9909Z" stroke="white" stroke-width="2" mask="url(#path-1-inside-1_155_1695)"/>
<path d="M53.559 33.4455C53.2805 33.167 52.9027 33.0105 52.5089 33.0105C52.115 33.0105 51.7372 33.167 51.4587 33.4455C51.1801 33.724 51.0237 34.1018 51.0237 34.4957C51.0237 34.8896 51.1801 35.2674 51.4587 35.5459L54.4592 38.5464C54.5939 38.6899 54.7565 38.8043 54.9372 38.8825C55.1178 38.9607 55.3125 39.001 55.5094 39.001C55.7062 39.001 55.9009 38.9607 56.0815 38.8825C56.2622 38.8043 56.4248 38.6899 56.5595 38.5464C56.703 38.4117 56.8174 38.249 56.8956 38.0684C56.9738 37.8878 57.0142 37.693 57.0142 37.4962C57.0142 37.2994 56.9738 37.1047 56.8956 36.924C56.8174 36.7434 56.703 36.5807 56.5595 36.446L53.559 33.4455Z" stroke="white" stroke-width="2" mask="url(#path-1-inside-1_155_1695)"/>
<path d="M6.45109 33.4455L3.45058 36.446C3.30707 36.5807 3.19268 36.7434 3.11449 36.924C3.03629 37.1047 2.99595 37.2994 2.99595 37.4962C2.99595 37.693 3.03629 37.8878 3.11449 38.0684C3.19268 38.249 3.30707 38.4117 3.45058 38.5464C3.58527 38.6899 3.74795 38.8043 3.92858 38.8825C4.1092 38.9607 4.30394 39.001 4.50076 39.001C4.69758 39.001 4.89232 38.9607 5.07294 38.8825C5.25356 38.8043 5.41624 38.6899 5.55094 38.5464L8.55144 35.5459C8.82996 35.2674 8.98644 34.8896 8.98644 34.4957C8.98644 34.1018 8.82996 33.724 8.55144 33.4455C8.27292 33.167 7.89516 33.0105 7.50126 33.0105C7.10737 33.0105 6.72961 33.167 6.45109 33.4455Z" stroke="white" stroke-width="2" mask="url(#path-1-inside-1_155_1695)"/>
<path d="M33.4556 15.4425L24.4541 24.444C24.2355 24.645 24.086 24.9098 24.0267 25.2007C23.9674 25.4916 24.0015 25.7938 24.1241 26.0643C24.2366 26.3383 24.4277 26.5728 24.6734 26.7383C24.919 26.9038 25.2081 26.993 25.5043 26.9944H30.8752L27.4546 30.445C27.3111 30.5797 27.1967 30.7424 27.1185 30.923C27.0403 31.1036 27 31.2984 27 31.4952C27 31.692 27.0403 31.8868 27.1185 32.0674C27.1967 32.248 27.3111 32.4107 27.4546 32.5454C27.5893 32.6889 27.752 32.8033 27.9326 32.8815C28.1132 32.9597 28.308 33 28.5048 33C28.7016 33 28.8964 32.9597 29.077 32.8815C29.2576 32.8033 29.4203 32.6889 29.555 32.5454L35.556 26.5444C35.7746 26.3434 35.9241 26.0786 35.9834 25.7877C36.0427 25.4967 36.0086 25.1945 35.886 24.9241C35.7735 24.6501 35.5824 24.4156 35.3367 24.2501C35.0911 24.0845 34.802 23.9954 34.5058 23.9939H29.1349L35.556 17.5428C35.8345 17.2643 35.991 16.8866 35.991 16.4927C35.991 16.0988 35.8345 15.721 35.556 15.4425C35.2775 15.164 34.8997 15.0075 34.5058 15.0075C34.1119 15.0075 33.7342 15.164 33.4556 15.4425Z" stroke="white" stroke-width="2" mask="url(#path-1-inside-1_155_1695)"/>
</svg>
