<svg width="96" height="58" viewBox="0 0 96 58" fill="none" xmlns="http://www.w3.org/2000/svg">
<path fill-rule="evenodd" clip-rule="evenodd" d="M3.96756 56.75V32.0131V30.9276L2.96756 31.3498L1 32.1803L0 32.6025V31.517V22.5434L46.6108 2.84791L47.1107 2.63666V2.45814L47.3247 2.54622L47.6108 2.42535V2.66393L47.801 2.74221L94.7935 22.0811L95.1032 22.2085V22.5434V32.6025V33.3563L94.4087 33.0631L91.1356 31.6814V47.691H91.254V48.691V56.75V57.75L91.1356 57.75H90.1356L4.96756 57.75H3.96756V56.75ZM90.1356 48.691V56.75H4.96756V30.9276V29.42L3.57866 30.0063L1 31.0949V23.2065L46.6108 3.93352V11.8213L11.5135 26.6518L10.9027 26.9099V27.5729V47.691V48.691H11.9027H90.1356ZM90.1356 47.691V30.9276V30.1738L90.8301 30.467L94.1032 31.8487V22.8784L48.1107 3.95104V11.4528L82.9057 27.117L83.2005 27.2497V27.573V47.691L90.1356 47.691ZM82.2005 47.691V27.8962L47.6108 12.3244V12.4844L11.9027 27.5729V46.691V47.691H12.9027L82.2005 47.691Z" fill="white"/>
<path d="M40.1169 0.25L40.5712 2.74152L43.0812 2.40371L40.852 3.60575L41.9489 5.88849L40.1169 4.13987L38.2848 5.88849L39.3817 3.60575L37.1526 2.40371L39.6625 2.74152L40.1169 0.25Z" fill="white"/>
<path d="M64.1169 1.25L64.5712 3.74152L67.0812 3.40371L64.852 4.60575L65.9489 6.88849L64.1169 5.13987L62.2848 6.88849L63.3817 4.60575L61.1526 3.40371L63.6625 3.74152L64.1169 1.25Z" fill="white"/>
<path d="M87.3377 21.25L87.6784 23.1186L89.5609 22.8653L87.889 23.7668L88.7117 25.4789L87.3377 24.1674L85.9636 25.4789L86.7863 23.7668L85.1144 22.8653L86.9969 23.1186L87.3377 21.25Z" fill="white"/>
<path d="M21.1169 15L21.5712 17.4915L24.0812 17.1537L21.852 18.3557L22.9489 20.6385L21.1169 18.8899L19.2848 20.6385L20.3817 18.3557L18.1526 17.1537L20.6625 17.4915L21.1169 15Z" fill="white"/>
</svg>
