<svg width="98" height="93" viewBox="0 0 98 93" fill="none" xmlns="http://www.w3.org/2000/svg">
<g clip-path="url(#clip0_529_330)">
<g clip-path="url(#clip1_529_330)">
<g clip-path="url(#clip2_529_330)">
<g filter="url(#filter0_i_529_330)">
<path d="M81.8836 0.330078H16.1164C7.21556 0.330078 0 6.59809 0 14.3301V79.3301C0 87.0621 7.21556 93.3301 16.1164 93.3301H81.8836C90.7844 93.3301 98 87.0621 98 79.3301V14.3301C98 6.59809 90.7844 0.330078 81.8836 0.330078Z" fill="#8BC53F"/>
<path d="M63.793 41.3708C63.793 32.9701 56.9585 26.1355 48.5577 26.1355C45.3913 26.1355 42.3551 27.0979 39.7775 28.9187C39.3668 29.2088 39.269 29.7769 39.5591 30.1876C39.8494 30.5983 40.4174 30.696 40.8281 30.406C43.0968 28.8035 45.7697 27.9564 48.5578 27.9564C55.9546 27.9564 61.972 33.9741 61.972 41.3707C61.972 46.6615 58.8485 51.473 54.014 53.6283C53.6858 53.7747 53.4743 54.1004 53.4743 54.4598V57.2129H52.389V44.8729H54.0169C55.1574 44.8729 56.1586 44.1849 56.5671 43.1202C56.9757 42.0554 56.692 40.8743 55.8442 40.1114L55.1266 39.4656C54.3135 38.7336 53.1874 38.5556 52.1881 39.0006C51.1886 39.4457 50.5679 40.4016 50.5679 41.4958V43.052H46.5475V41.4958C46.5475 40.4016 45.9266 39.4457 44.9274 39.0006C43.9279 38.5555 42.8021 38.7336 41.9888 39.4656L41.2714 40.1114C40.4237 40.8744 40.1399 42.0554 40.5484 43.1202C40.9571 44.1849 41.958 44.8729 43.0985 44.8729H44.7266V57.213H43.641V54.4601C43.641 54.1005 43.4296 53.7747 43.1013 53.6284C38.267 51.4731 35.1433 46.6616 35.1433 41.3708C35.1433 38.2735 36.1685 35.3648 38.108 32.9588C38.4234 32.5673 38.3619 31.9941 37.9706 31.6787C37.5792 31.3633 37.0059 31.4247 36.6903 31.8161C34.5186 34.5103 33.3225 37.9036 33.3225 41.3708C33.3225 47.1805 36.6383 52.4808 41.8202 55.038V57.213H39.8171C39.3143 57.213 38.9067 57.6206 38.9067 58.1235V67.9567C38.9067 71.4709 41.7657 74.3299 45.2799 74.3299H51.8354C55.3497 74.3299 58.2087 71.4709 58.2087 67.9567V65.4073C58.2087 64.9044 57.8012 64.4968 57.2982 64.4968C56.7954 64.4968 56.3878 64.9044 56.3878 65.4073V67.0461H40.7277V63.8898H53.8993C54.4022 63.8898 54.8098 63.4822 54.8098 62.9793C54.8098 62.4764 54.4022 62.0688 53.8993 62.0688H40.7277V59.0339H56.3879V60.5515C56.3879 61.0543 56.7955 61.4619 57.2983 61.4619C57.8013 61.4619 58.2089 61.0543 58.2089 60.5515V58.1235C58.2089 57.6206 57.8013 57.213 57.2983 57.213H55.2953V55.038C60.4773 52.4807 63.793 47.1802 63.793 41.3708ZM52.389 41.4956C52.389 40.947 52.8023 40.7203 52.929 40.6639C53.0558 40.6076 53.5008 40.4519 53.9084 40.8187L54.626 41.4646C55.0575 41.853 54.9194 42.3303 54.867 42.4675C54.8144 42.6045 54.5975 43.0518 54.0169 43.0518H52.389V41.4956ZM44.7267 43.052H43.0986C42.2777 43.052 41.8759 42.017 42.4896 41.4648L43.207 40.819C43.787 40.2969 44.7267 40.7227 44.7267 41.4958V43.052ZM56.2963 68.8671C55.8732 70.9425 54.0339 72.509 51.8355 72.509H45.2802C43.0815 72.509 41.2424 70.9425 40.8194 68.8671H56.2963ZM50.568 57.213H46.5476V44.8729H50.568V57.213Z" fill="white"/>
<path d="M48.5595 15.21C48.0567 15.21 47.6491 15.6176 47.6491 16.1204V21.219C47.6491 21.722 48.0567 22.1296 48.5595 22.1296C49.0624 22.1296 49.47 21.722 49.47 21.219V16.1204C49.47 15.6176 49.0624 15.21 48.5595 15.21Z" fill="white"/>
<path d="M39.156 23.4967L36.6066 19.0811C36.3553 18.6457 35.7984 18.4964 35.363 18.7479C34.9275 18.9992 34.7783 19.5561 35.0297 19.9916L37.5789 24.4071C37.8464 24.8706 38.4758 25.0025 38.9077 24.6849C39.2765 24.4138 39.3846 23.8929 39.156 23.4967Z" fill="white"/>
<path d="M31.3528 30.6283L26.9372 28.0789C26.5017 27.8275 25.9448 27.9768 25.6935 28.4122C25.4422 28.8477 25.5914 29.4045 26.0267 29.6559L30.4423 32.2053C30.9067 32.4735 31.517 32.2713 31.7318 31.7813C31.9157 31.3621 31.7488 30.8568 31.3528 30.6283Z" fill="white"/>
<path d="M28.1689 40.7034H23.0703C22.5674 40.7034 22.1598 41.111 22.1598 41.6138C22.1598 42.1167 22.5674 42.5243 23.0703 42.5243H28.1689C28.6718 42.5243 29.0795 42.1167 29.0795 41.6138C29.0795 41.1111 28.6717 40.7034 28.1689 40.7034Z" fill="white"/>
<path d="M31.6906 51.3558C31.4393 50.9204 30.8824 50.7711 30.447 51.0225L26.0314 53.5719C25.6353 53.8005 25.4685 54.3056 25.6523 54.725C25.8671 55.215 26.4774 55.4173 26.9419 55.1489L31.3574 52.5996C31.7929 52.3482 31.9421 51.7913 31.6906 51.3558Z" fill="white"/>
<path d="M71.1014 53.5718L66.6859 51.0226C66.2503 50.771 65.6935 50.9204 65.4421 51.3558C65.1908 51.7912 65.34 52.3482 65.7754 52.5995L70.1909 55.1488C70.6553 55.417 71.2659 55.2148 71.4805 54.7249C71.6644 54.3057 71.4976 53.8005 71.1014 53.5718Z" fill="white"/>
<path d="M74.0605 40.7034H68.9619C68.459 40.7034 68.0514 41.111 68.0514 41.6138C68.0514 42.1167 68.459 42.5243 68.9619 42.5243H74.0605C74.5633 42.5243 74.9709 42.1167 74.9709 41.6138C74.9709 41.1111 74.5633 40.7034 74.0605 40.7034Z" fill="white"/>
<path d="M71.4346 28.4121C71.1833 27.9767 70.6264 27.8275 70.1909 28.0789L65.7754 30.6283C65.34 30.8796 65.1908 31.4365 65.4421 31.872C65.6108 32.164 65.9169 32.3274 66.2315 32.3274C66.3859 32.3274 66.5426 32.288 66.6859 32.2052L71.1014 29.6559C71.537 29.4044 71.6862 28.8476 71.4346 28.4121Z" fill="white"/>
<path d="M61.7653 18.7479C61.3299 18.4964 60.773 18.6457 60.5217 19.0811L57.9723 23.4967C57.721 23.9321 57.8702 24.489 58.3055 24.7404C58.7357 24.9887 59.3013 24.8365 59.5493 24.4071L62.0986 19.9916C62.35 19.5561 62.2008 18.9992 61.7653 18.7479Z" fill="white"/>
</g>
</g>
</g>
</g>
<defs>
<filter id="filter0_i_529_330" x="0" y="0.330078" width="98" height="97" filterUnits="userSpaceOnUse" color-interpolation-filters="sRGB">
<feFlood flood-opacity="0" result="BackgroundImageFix"/>
<feBlend mode="normal" in="SourceGraphic" in2="BackgroundImageFix" result="shape"/>
<feColorMatrix in="SourceAlpha" type="matrix" values="0 0 0 0 0 0 0 0 0 0 0 0 0 0 0 0 0 0 127 0" result="hardAlpha"/>
<feOffset dy="4"/>
<feGaussianBlur stdDeviation="2"/>
<feComposite in2="hardAlpha" operator="arithmetic" k2="-1" k3="1"/>
<feColorMatrix type="matrix" values="0 0 0 0 1 0 0 0 0 1 0 0 0 0 1 0 0 0 0.25 0"/>
<feBlend mode="normal" in2="shape" result="effect1_innerShadow_529_330"/>
</filter>
<clipPath id="clip0_529_330">
<rect width="98" height="93" fill="white"/>
</clipPath>
<clipPath id="clip1_529_330">
<rect width="98" height="93" fill="white"/>
</clipPath>
<clipPath id="clip2_529_330">
<rect width="98" height="93" fill="white"/>
</clipPath>
</defs>
</svg>
