<svg width="69" height="60" viewBox="0 0 69 60" fill="none" xmlns="http://www.w3.org/2000/svg">
<path d="M64.8252 33.824L64.8252 33.824C64.2345 33.2988 63.5543 32.7643 62.7844 32.2366L62.7811 32.2344C61.2115 31.1351 59.2975 30.0316 57.1017 28.9654L56.8817 28.8586V28.614V11.7708C56.8817 10.9913 56.2539 10.3649 55.4945 10.3649H55.4927C50.1612 10.3402 45.3707 8.9136 41.2567 6.11909C38.0662 3.95472 36.3462 1.66377 35.8798 0.995923L35.8796 0.995644C35.6165 0.618238 35.1884 0.390625 34.7321 0.390625C34.2793 0.390625 33.8451 0.613966 33.5847 0.987516L33.5845 0.987795C33.1176 1.65624 31.3894 3.94698 28.1992 6.1111L28.1991 6.11116C24.0773 8.90535 19.279 10.3319 13.9559 10.3567C13.1925 10.3635 12.5663 10.9933 12.5663 11.7626V19.2901V19.6564L12.2007 19.6799C11.1965 19.7445 10.2518 19.8331 9.3659 19.9535L9.36485 19.9537C7.37161 20.2191 5.69093 20.6196 4.33305 21.1419C2.02235 22.0395 0.78923 23.2502 0.47144 24.6829C0.16867 26.0482 0.711596 27.5785 2.24831 29.2709L2.24961 29.2722L2.24964 29.2722C2.27535 29.2978 2.29702 29.3225 2.31045 29.3378L2.31229 29.3399C2.32759 29.3574 2.33364 29.364 2.33935 29.3697L2.34894 29.3793L2.34876 29.3795C3.78502 30.914 5.97931 32.4998 8.8957 34.0908C8.95996 34.1255 9.02345 34.1601 9.08659 34.1946C9.22234 34.2687 9.35647 34.3419 9.49305 34.4127L9.49572 34.4141C10.5801 34.9869 11.7463 35.552 12.9697 36.0931L13.1411 36.1689L13.1892 36.35C13.5304 37.6328 14.0075 38.9718 14.5999 40.3306C15.7011 40.8025 16.8495 41.2607 18.0418 41.705C17.3998 40.5114 16.8615 39.3408 16.4273 38.226L16.1082 37.4065L16.9302 37.7192C21.4204 39.427 26.5069 40.9337 31.8643 42.1169L31.7801 42.4983L31.8643 42.1169C37.8802 43.4459 43.7623 44.2554 49.0137 44.5062L49.7207 44.5399L49.3153 45.1201C48.6247 46.1083 47.8658 47.0914 47.029 48.055C48.0761 48.1318 49.1018 48.1888 50.0991 48.2226C50.6309 47.5453 51.1076 46.8895 51.5358 46.268L51.536 46.2676C51.8741 45.7781 52.1968 45.2796 52.5123 44.7716L52.626 44.5886L52.8414 44.587C53.9695 44.5789 55.0456 44.5466 56.0872 44.4742L56.0888 44.474C58.8008 44.2965 61.0838 43.9181 62.896 43.3532C63.2999 43.2243 63.6714 43.098 64.0157 42.9576L64.0178 42.9568C64.5626 42.7383 65.0495 42.4964 65.4753 42.2399C65.3186 42.0093 65.1427 41.7818 64.9532 41.5587C64.4368 41.8639 63.8282 42.1339 63.142 42.3713M64.8252 33.824L64.2674 34.4591C63.9497 34.1758 63.6164 33.9018 63.2517 33.6209C61.7184 32.4394 59.7551 31.2401 57.4567 30.0782L56.8898 29.7916V30.4268V32.1095C56.8898 35.1897 55.6322 39.2122 53.4643 43.1471L53.1373 43.7407L53.8148 43.7261C54.5788 43.7097 55.3188 43.677 56.0346 43.6278C58.9093 43.4394 61.328 43.0046 63.142 42.3713M64.8252 33.824C67.1989 35.9335 68.0726 37.8309 67.7127 39.4865L64.8252 33.824ZM63.142 42.3713C63.142 42.3713 63.1421 42.3713 63.1421 42.3712L63.0134 42.0024L63.141 42.3716C63.1413 42.3715 63.1417 42.3714 63.142 42.3713ZM51.8574 46.4896C51.3926 47.1643 50.8707 47.8797 50.2835 48.6194C49.1251 48.5836 47.9286 48.5161 46.7053 48.4225L51.8574 46.4896ZM51.8574 46.4896C52.1999 45.9938 52.5261 45.4898 52.8442 44.9776L51.8574 46.4896ZM50.2514 43.7094L50.0254 43.7016C44.5831 43.5137 38.394 42.6889 32.0545 41.2864C26.2225 39.9982 20.7135 38.334 15.9611 36.4309L15.7849 36.3604L15.7315 36.1783C15.2762 34.627 15.047 33.2309 15.047 32.1176V13.1852V12.8137L15.418 12.7951C20.6919 12.5302 25.4498 10.9744 29.6035 8.15531L29.604 8.15499C31.8291 6.64958 33.4276 5.05613 34.4468 3.89607L34.7415 3.56078L35.0347 3.89723C36.0446 5.05562 37.6429 6.64129 39.861 8.15551L50.2514 43.7094ZM50.2514 43.7094L50.3708 43.5173M50.2514 43.7094L50.3708 43.5173M50.3708 43.5173C53.1093 39.1068 54.4091 34.7918 54.4091 32.1176V13.1852V12.8137M50.3708 43.5173L54.4091 12.8137M54.4091 12.8137L54.0381 12.7951M54.4091 12.8137L54.0381 12.7951M54.0381 12.7951C48.7644 12.5302 44.0069 10.9745 39.8616 8.1559L54.0381 12.7951ZM34.5774 56.9851L34.7319 57.0518L34.8866 56.9853C38.8748 55.2688 42.1986 52.9071 44.9051 50.2936C45.991 50.3969 47.063 50.4811 48.114 50.5428C45.1022 53.7993 40.9034 57.1919 35.2614 59.5083C35.0912 59.5773 34.9134 59.6094 34.7321 59.6094C34.5598 59.6094 34.3812 59.5726 34.2023 59.4999C25.9679 56.1311 20.8033 50.4459 17.9202 46.2678L17.9196 46.2669C17.3152 45.3961 16.7548 44.4979 16.2384 43.5921C17.4624 44.0658 18.7289 44.5272 20.034 44.9653C23.2161 49.5635 27.9934 54.1444 34.5774 56.9851ZM9.29935 33.3349L9.29932 33.335L9.30502 33.3381C10.2185 33.8385 11.1959 34.3297 12.2121 34.8117L12.8816 35.1292L12.7653 34.3974C12.6372 33.5914 12.5663 32.824 12.5663 32.1176V20.9159V20.4995L12.1508 20.526C11.1221 20.5917 10.1586 20.6901 9.2602 20.8134L9.25891 20.8136C7.01123 21.1295 5.15646 21.6272 3.80291 22.2859C2.46298 22.9381 1.53377 23.7894 1.29903 24.8547C1.12272 25.6374 1.34869 26.4631 1.82995 27.295C1.96016 27.5284 2.31407 28.1303 2.86208 28.6853L2.97678 28.8014H2.99256C4.33588 30.2366 6.4258 31.7558 9.12243 33.2388C9.15605 33.2579 9.19081 33.2763 9.21964 33.2917C9.25126 33.3085 9.27665 33.322 9.29935 33.3349ZM2.87243 28.13C2.87181 28.1307 2.87371 28.1287 2.87601 28.1265L2.87389 28.1286L2.87243 28.13Z" fill="white" stroke="white" stroke-width="0.78125"/>
</svg>
