<svg width="64" height="60" viewBox="0 0 64 60" fill="none" xmlns="http://www.w3.org/2000/svg">
<mask id="mask0_155_1711" style="mask-type:alpha" maskUnits="userSpaceOnUse" x="1" y="18" width="61" height="34">
<path d="M61.8233 46.5247C59.0309 46.7245 57.519 47.775 55.7954 48.9725C53.8475 50.3258 51.6397 51.8596 47.358 51.8596C43.0762 51.8596 40.8684 50.3258 38.9202 48.9723C37.0035 47.6406 35.3479 46.4906 31.9017 46.4906C28.4556 46.4906 26.8001 47.6407 24.8834 48.9724C22.9356 50.3258 20.7279 51.8596 16.4462 51.8596C12.1644 51.8596 9.95668 50.3258 8.00876 48.9722C6.28553 47.775 4.77316 46.7246 1.98132 46.5248V45.177C5.62443 45.3932 7.63615 46.7908 9.42805 48.0357C11.3448 49.3673 13.0003 50.5174 16.4462 50.5174C19.8923 50.5174 21.5479 49.3672 23.4645 48.0356C25.4123 46.6822 27.6201 45.1484 31.9017 45.1484C36.1835 45.1484 38.3914 46.6822 40.3392 48.0355C42.2561 49.3673 43.9116 50.5174 47.3578 50.5174C50.804 50.5174 52.4596 49.3672 54.3764 48.0356C56.168 46.7909 58.1801 45.3933 61.8233 45.1771V46.5247Z" fill="black"/>
<path d="M61.8233 34.8518C59.0309 35.0516 57.519 36.1021 55.7954 37.2996C53.8475 38.6529 51.6397 40.1867 47.358 40.1867C43.0762 40.1867 40.8684 38.6529 38.9202 37.2994C37.0035 35.9677 35.3479 34.8177 31.9017 34.8177C28.4556 34.8177 26.8001 35.9678 24.8834 37.2995C22.9356 38.6529 20.7279 40.1867 16.4462 40.1867C12.1644 40.1867 9.95668 38.6529 8.00876 37.2993C6.28553 36.1021 4.77316 35.0517 1.98132 34.8518V33.5041C5.62443 33.7203 7.63615 35.1178 9.42805 36.3628C11.3448 37.6944 13.0003 38.8445 16.4462 38.8445C19.8923 38.8445 21.5479 37.6943 23.4645 36.3626C25.4123 35.0093 27.6201 33.4754 31.9017 33.4754C36.1835 33.4754 38.3914 35.0093 40.3392 36.3626C42.2561 37.6944 43.9116 38.8445 47.3578 38.8445C50.804 38.8445 52.4596 37.6943 54.3764 36.3627C56.168 35.118 58.1801 33.7204 61.8233 33.5042V34.8518Z" fill="black"/>
<path d="M61.8233 19.4002C59.0309 19.6 57.519 20.6506 55.7954 21.848C53.8475 23.2013 51.6397 24.7352 47.358 24.7352C43.0762 24.7352 40.8684 23.2013 38.9202 21.8479C37.0035 20.5161 35.3479 19.3661 31.9017 19.3661C28.4556 19.3661 26.8001 20.5163 24.8834 21.848C22.9356 23.2013 20.7279 24.7352 16.4462 24.7352C12.1644 24.7352 9.95668 23.2013 8.00876 21.8478C6.28553 20.6506 4.77316 19.6001 1.98132 19.4003V18.0526C5.62443 18.2688 7.63615 19.6663 9.42805 20.9113C11.3448 22.2429 13.0003 23.393 16.4462 23.393C19.8923 23.393 21.5479 22.2428 23.4645 20.9111C25.4123 19.5577 27.6201 18.0239 31.9017 18.0239C36.1835 18.0239 38.3914 19.5577 40.3392 20.911C42.2561 22.2429 43.9116 23.393 47.3578 23.393C50.804 23.393 52.4596 22.2428 54.3764 20.9112C56.168 19.6665 58.1801 18.2689 61.8233 18.0527V19.4002Z" fill="black"/>
</mask>
<g mask="url(#mask0_155_1711)">
<rect x="-8.12109" y="14.9189" width="80.046" height="44.0833" fill="white"/>
</g>
<mask id="mask1_155_1711" style="mask-type:alpha" maskUnits="userSpaceOnUse" x="1" y="24" width="61" height="35">
<path d="M61.8233 53.3229C59.0309 53.5227 57.519 54.5733 55.7954 55.7707C53.8475 57.124 51.6397 58.6579 47.358 58.6579C43.0762 58.6579 40.8684 57.124 38.9202 55.7706C37.0035 54.4388 35.3479 53.2888 31.9017 53.2888C28.4556 53.2888 26.8001 54.439 24.8834 55.7707C22.9356 57.124 20.7279 58.6579 16.4462 58.6579C12.1644 58.6579 9.95668 57.124 8.00876 55.7705C6.28553 54.5733 4.77316 53.5228 1.98132 53.323V51.9753C5.62443 52.1915 7.63615 53.589 9.42805 54.834C11.3448 56.1656 13.0003 57.3156 16.4462 57.3156C19.8923 57.3156 21.5479 56.1655 23.4645 54.8338C25.4123 53.4804 27.6201 51.9466 31.9017 51.9466C36.1835 51.9466 38.3914 53.4804 40.3392 54.8337C42.2561 56.1656 43.9116 57.3156 47.3578 57.3156C50.804 57.3156 52.4596 56.1655 54.3764 54.8339C56.168 53.5892 58.1801 52.1916 61.8233 51.9754V53.3229Z" fill="black"/>
<path d="M61.8233 41.65C59.0309 41.8498 57.519 42.9004 55.7954 44.0978C53.8475 45.4511 51.6397 46.985 47.358 46.985C43.0762 46.985 40.8684 45.4511 38.9202 44.0977C37.0035 42.7659 35.3479 41.6159 31.9017 41.6159C28.4556 41.6159 26.8001 42.7661 24.8834 44.0978C22.9356 45.4511 20.7279 46.985 16.4462 46.985C12.1644 46.985 9.95668 45.4511 8.00876 44.0976C6.28553 42.9004 4.77316 41.8499 1.98132 41.6501V40.3024C5.62443 40.5186 7.63615 41.9161 9.42805 43.1611C11.3448 44.4927 13.0003 45.6427 16.4462 45.6427C19.8923 45.6427 21.5479 44.4926 23.4645 43.1609C25.4123 41.8075 27.6201 40.2737 31.9017 40.2737C36.1835 40.2737 38.3914 41.8075 40.3392 43.1608C42.2561 44.4927 43.9116 45.6427 47.3578 45.6427C50.804 45.6427 52.4596 44.4926 54.3764 43.161C56.168 41.9163 58.1801 40.5187 61.8233 40.3025V41.65Z" fill="black"/>
<path d="M61.8233 26.1985C59.0309 26.3983 57.519 27.4488 55.7954 28.6463C53.8475 29.9996 51.6397 31.5334 47.358 31.5334C43.0762 31.5334 40.8684 29.9996 38.9202 28.6461C37.0035 27.3144 35.3479 26.1644 31.9017 26.1644C28.4556 26.1644 26.8001 27.3145 24.8834 28.6462C22.9356 29.9996 20.7279 31.5334 16.4462 31.5334C12.1644 31.5334 9.95668 29.9996 8.00876 28.646C6.28553 27.4489 4.77316 26.3984 1.98132 26.1986V24.8509C5.62443 25.067 7.63615 26.4646 9.42805 27.7095C11.3448 29.0411 13.0003 30.1912 16.4462 30.1912C19.8923 30.1912 21.5479 29.041 23.4645 27.7094C25.4123 26.356 27.6201 24.8222 31.9017 24.8222C36.1835 24.8222 38.3914 26.356 40.3392 27.7093C42.2561 29.0411 43.9116 30.1912 47.3578 30.1912C50.804 30.1912 52.4596 29.041 54.3764 27.7094C56.168 26.4647 58.1801 25.0671 61.8233 24.8509V26.1985Z" fill="black"/>
</mask>
<g mask="url(#mask1_155_1711)">
<rect x="-8.12109" y="21.7171" width="80.046" height="44.0833" fill="white"/>
</g>
</svg>
