<svg width="91" height="93" viewBox="0 0 91 93" fill="none" xmlns="http://www.w3.org/2000/svg">
<g filter="url(#filter0_i_412_598)">
<rect width="90.9999" height="93" rx="14" fill="url(#paint0_linear_412_598)"/>
<path d="M55.8139 36.1864C55.4805 35.8529 54.94 35.8529 54.6066 36.1864L48.3283 42.4646C48.0175 42.7754 47.9968 43.2889 48.2829 43.623C48.6022 43.9957 49.1884 44.0193 49.5357 43.672L55.8139 37.3937C56.1473 37.0602 56.1473 36.5197 55.8139 36.1864Z" fill="white"/>
<path d="M58.5504 33.4496C58.217 33.1161 57.6764 33.1161 57.3431 33.4496L56.5382 34.2545C56.2048 34.5879 56.2048 35.1285 56.5382 35.4618C56.7048 35.6284 56.9234 35.7119 57.1418 35.7119C57.3603 35.7119 57.5788 35.6285 57.7454 35.4618L58.5503 34.6569C58.8839 34.3235 58.8839 33.7829 58.5504 33.4496Z" fill="white"/>
<path d="M27.7315 64.3223C27.0543 63.6451 26.1538 63.2722 25.196 63.2722C24.2382 63.2722 23.3378 63.6451 22.6606 64.3223C21.2625 65.7204 21.2625 67.9952 22.6606 69.3933C23.3378 70.0706 24.2383 70.4435 25.196 70.4435C26.1538 70.4435 27.0543 70.0706 27.7315 69.3933C28.4088 68.716 28.7817 67.8156 28.7817 66.8578C28.7817 65.9001 28.4088 64.9996 27.7315 64.3223ZM26.5242 68.1859C25.7919 68.9182 24.6005 68.9183 23.8681 68.1859C23.1358 67.4535 23.1358 66.2621 23.8681 65.5297C24.2343 65.1635 24.7152 64.9804 25.1961 64.9804C25.6772 64.9804 26.1581 65.1635 26.5242 65.5297C27.2565 66.262 27.2565 67.4536 26.5242 68.1859Z" fill="white"/>
<path d="M57.8142 48.5768C57.6701 48.4327 57.4791 48.3448 57.276 48.3292L53.0904 48.0072C52.8421 47.9883 52.5974 48.0785 52.4213 48.2548L51.5761 49.1L50.9173 48.4413L60.951 37.1308C64.2289 38.1559 67.8313 37.2885 70.2825 34.8373C72.5223 32.5976 73.4584 29.4084 72.7866 26.3063C72.6465 25.6594 71.8179 25.4135 71.3485 25.8833L66.0972 31.1347C65.7682 31.4636 65.2188 31.4636 64.8897 31.1347L60.8653 27.1103C60.5364 26.7813 60.5364 26.2319 60.8653 25.9028L66.1167 20.6515C66.5863 20.1821 66.3407 19.3536 65.6937 19.2134C62.5914 18.5415 59.4024 19.4776 57.1627 21.7174C54.7115 24.1686 53.8437 27.7709 54.8692 31.049L43.5587 41.0826L38.1205 35.6444C37.787 35.311 37.2465 35.311 36.9132 35.6444C36.5797 35.9778 36.5797 36.5184 36.9132 36.8517L50.369 50.3074L49.3226 51.3538L28.4494 30.4807L29.4958 29.4343L34.4315 34.3701C34.7787 34.7172 35.3649 34.6939 35.6842 34.3211C35.9704 33.987 35.9497 33.4735 35.6388 33.1627L30.2181 27.7421L28.1904 22.9065C28.1125 22.7209 27.9714 22.5687 27.7922 22.4768L21.192 19.0961C20.8621 18.9271 20.4611 18.9903 20.1992 19.2523L18.2674 21.1842C18.0054 21.4462 17.9423 21.8473 18.1112 22.177L21.4917 28.7771C21.5836 28.9564 21.7358 29.0973 21.9214 29.1753L26.7569 31.2031L39.8905 44.3367L20.048 61.9389C18.8048 63.0231 18.0596 64.5905 18.0034 66.2391C17.9472 67.8877 18.5839 69.5021 19.7503 70.6685L21.3316 72.2498C22.4504 73.3687 23.9815 74 25.5596 74C25.6265 74 25.6939 73.9988 25.7611 73.9966C27.4097 73.9404 28.9771 73.1951 30.0565 71.9573L38.6126 62.3124C38.9255 61.9596 38.8932 61.42 38.5405 61.1072C38.1879 60.7943 37.6482 60.8266 37.3353 61.1793L28.7744 70.8297C27.9886 71.7307 26.8978 72.2493 25.7029 72.2901C24.5064 72.3308 23.3843 71.8877 22.5391 71.0424L20.9579 69.4611C20.1124 68.6157 19.6694 67.4922 19.7101 66.2973C19.7509 65.1024 20.2696 64.0116 21.1759 63.2211L41.1003 45.5461L41.9855 46.4314L25.488 60.8195C24.9515 61.2873 25.2161 62.1965 25.9169 62.3064C26.8846 62.4581 27.7625 62.9047 28.4558 63.5979C29.128 64.27 29.57 65.1198 29.7338 66.0551C29.8551 66.747 30.7551 66.9997 31.2182 66.469L45.5688 50.0147L46.4541 50.9L39.7589 58.4473C39.4748 58.7675 39.4754 59.2652 39.7619 59.5839C40.098 59.9578 40.7024 59.9566 41.0362 59.5804L47.6637 52.1094L48.1155 52.5611L47.2703 53.4063C47.0941 53.5825 47.0035 53.8269 47.0226 54.0755L47.3447 58.2611C47.3603 58.4642 47.4481 58.6552 47.5923 58.7992L61.4686 72.6755C62.2749 73.4818 63.3467 73.9257 64.4869 73.9257C65.6271 73.9257 66.6992 73.4817 67.5054 72.6755L71.691 68.4899C72.4973 67.6836 72.9411 66.6117 72.9411 65.4714C72.9411 64.3312 72.4972 63.2593 71.691 62.4531L57.8142 48.5768ZM22.8694 27.7213L19.9144 21.9518L20.967 20.8992L26.7364 23.8543L28.4869 28.0286L27.0437 29.4718L22.8694 27.7213ZM30.9294 64.2022C30.295 62.8291 29.1577 61.7055 27.776 61.0896L43.1955 47.6416L44.3585 48.8047L30.9294 64.2022ZM49.708 47.2318L44.7682 42.292L56.2584 32.099C56.646 31.9032 56.8273 31.4318 56.6698 31.0271C55.5803 28.2274 56.2477 25.0471 58.37 22.9248C59.7918 21.5029 61.683 20.7251 63.6451 20.7082L59.6579 24.6955C58.6593 25.694 58.6593 27.319 59.6579 28.3176L63.6823 32.342C64.6808 33.3405 66.3058 33.3405 67.3044 32.342L71.2917 28.3547C71.2748 30.3168 70.4971 32.2082 69.0751 33.6299C66.9529 35.7523 63.7728 36.4196 60.9728 35.3301C60.568 35.1725 60.0966 35.3538 59.9008 35.7415L49.708 47.2318ZM48.7549 54.3361L53.351 49.74L55.2942 49.8894L48.9044 56.2793L48.7549 54.3361ZM70.4831 67.2826L66.2975 71.4682C65.8137 71.952 65.1705 72.2183 64.4865 72.2183C63.8023 72.2183 63.1592 71.9519 62.6754 71.4682L49.4029 58.1954L57.2105 50.3878L70.4832 63.6605C70.967 64.1443 71.2333 64.7875 71.2333 65.4715C71.2332 66.1557 70.9668 66.7989 70.4831 67.2826Z" fill="white"/>
<path d="M68.1974 64.7556L57.7337 54.2918C57.2498 53.808 56.6067 53.5417 55.9226 53.5417C55.2386 53.5417 54.5952 53.8081 54.1116 54.2918L53.3067 55.0967C52.8228 55.5806 52.5565 56.2237 52.5565 56.9078C52.5565 57.5918 52.823 58.2351 53.3067 58.7188L63.7704 69.1826C64.2543 69.6664 64.8974 69.9327 65.5815 69.9327C66.2656 69.9327 66.9089 69.6663 67.3925 69.1826L68.1974 68.3776C68.6812 67.8938 68.9476 67.2507 68.9476 66.5666C68.9477 65.8824 68.6812 65.2393 68.1974 64.7556ZM66.9901 67.1702L66.1852 67.9751C66.0238 68.1365 65.8095 68.2252 65.5815 68.2252C65.3535 68.2252 65.139 68.1364 64.9779 67.9751L54.5141 57.5114C54.3528 57.35 54.264 57.1357 54.264 56.9078C54.264 56.6798 54.3528 56.4653 54.5141 56.304L55.319 55.4991C55.4804 55.3378 55.6947 55.2491 55.9227 55.2491C56.1507 55.2491 56.3652 55.3379 56.5263 55.4991L66.9901 65.9629C67.1515 66.1242 67.2402 66.3386 67.2402 66.5665C67.2402 66.7946 67.1513 67.0091 66.9901 67.1702Z" fill="white"/>
<path d="M57.6532 57.4309L57.3311 57.1089C56.9977 56.7754 56.4571 56.7754 56.1238 57.1089C55.7904 57.4423 55.7904 57.9828 56.1238 58.3162L56.4459 58.6382C56.6125 58.8048 56.8311 58.8883 57.0495 58.8883C57.2679 58.8883 57.4865 58.8049 57.6531 58.6382C57.9866 58.3048 57.9866 57.7641 57.6532 57.4309Z" fill="white"/>
<path d="M60.2292 60.0067L59.9071 59.6846C59.5737 59.3512 59.0331 59.3512 58.6998 59.6846C58.3664 60.0181 58.3664 60.5586 58.6998 60.8919L59.0218 61.214C59.1885 61.3806 59.4071 61.4641 59.6255 61.4641C59.8438 61.4641 60.0624 61.3807 60.229 61.214C60.5626 60.8805 60.5626 60.3399 60.2292 60.0067Z" fill="white"/>
<path d="M62.8046 62.5823L62.4825 62.2603C62.1491 61.9268 61.6086 61.9268 61.2752 62.2603C60.9418 62.5937 60.9418 63.1343 61.2752 63.4676L61.5973 63.7896C61.7639 63.9563 61.9825 64.0397 62.2009 64.0397C62.4193 64.0397 62.6379 63.9564 62.8045 63.7896C63.138 63.4562 63.138 62.9156 62.8046 62.5823Z" fill="white"/>
<path d="M65.3806 65.1581L65.0585 64.836C64.7251 64.5026 64.1845 64.5026 63.8512 64.836C63.5178 65.1695 63.5178 65.71 63.8512 66.0434L64.1733 66.3654C64.3399 66.532 64.5585 66.6155 64.7769 66.6155C64.9953 66.6155 65.2139 66.5321 65.3805 66.3654C65.714 66.032 65.714 65.4913 65.3806 65.1581Z" fill="white"/>
</g>
<defs>
<filter id="filter0_i_412_598" x="0" y="0" width="91" height="97" filterUnits="userSpaceOnUse" color-interpolation-filters="sRGB">
<feFlood flood-opacity="0" result="BackgroundImageFix"/>
<feBlend mode="normal" in="SourceGraphic" in2="BackgroundImageFix" result="shape"/>
<feColorMatrix in="SourceAlpha" type="matrix" values="0 0 0 0 0 0 0 0 0 0 0 0 0 0 0 0 0 0 127 0" result="hardAlpha"/>
<feOffset dy="4"/>
<feGaussianBlur stdDeviation="2"/>
<feComposite in2="hardAlpha" operator="arithmetic" k2="-1" k3="1"/>
<feColorMatrix type="matrix" values="0 0 0 0 1 0 0 0 0 1 0 0 0 0 1 0 0 0 0.25 0"/>
<feBlend mode="normal" in2="shape" result="effect1_innerShadow_412_598"/>
</filter>
<linearGradient id="paint0_linear_412_598" x1="0" y1="46.5" x2="90.9999" y2="46.5" gradientUnits="userSpaceOnUse">
<stop stop-color="#5D1E79"/>
<stop offset="0.6" stop-color="#770D62"/>
<stop offset="1" stop-color="#8B0051"/>
</linearGradient>
</defs>
</svg>
