<svg width="63" height="60" viewBox="0 0 63 60" fill="none" xmlns="http://www.w3.org/2000/svg">
<path d="M40.318 30.1073C39.8471 30.6712 39.3729 31.2321 38.9 31.7949C42.5669 34.7397 45.4522 37.0954 46.4525 38.005C47.5143 38.9702 48.9821 37.3212 47.9285 36.3631C46.9282 35.4536 44.0149 33.0762 40.318 30.1073Z" fill="white"/>
<path d="M49.9946 43.5032C48.0627 41.9183 43.2115 37.9373 37.5901 33.3422C37.1137 33.9018 36.6307 34.4565 36.1489 35.011C41.7538 39.5933 46.5873 43.5602 48.5193 45.1451C49.6314 46.0572 51.1048 44.4135 49.9946 43.5032Z" fill="white"/>
<path d="M33.2283 38.2879C37.308 41.5083 40.5934 44.1129 41.816 45.1074C42.9314 46.0164 44.4054 44.3726 43.2919 43.4656C42.0707 42.4722 38.7855 39.8671 34.7063 36.6466C34.2164 37.1959 33.7277 37.7453 33.2283 38.2879Z" fill="white"/>
<path d="M3.94597 19.4583C3.87471 19.5373 3.82264 19.6191 3.78077 19.701C3.42985 20.1126 3.35147 20.7327 3.8986 21.1776C6.11057 22.9741 10.6603 26.5396 16.0229 30.7211C16.5709 30.2133 17.1184 29.7051 17.6615 29.1937C12.5714 25.2246 8.29048 21.8739 6.24585 20.2323C6.8029 19.6135 7.36304 18.9984 7.92358 18.3827C9.45169 19.5798 14.0893 23.2202 19.484 27.4625C20.0193 26.9488 20.5461 26.4295 21.0765 25.9119C15.6389 21.6365 10.9519 17.9577 9.41586 16.7542C9.99962 16.121 10.5822 15.4868 11.1724 14.8594C13.0766 16.294 17.5811 19.9079 22.8537 24.1819C23.3771 23.6605 23.8857 23.1271 24.4033 22.6013C19.1177 18.3164 14.5999 14.6904 12.6977 13.2555C13.1004 12.8369 13.5007 12.4174 13.9083 12.0026C15.3479 13.1318 20.1671 16.9197 25.6881 21.2857C26.2017 20.7558 26.7251 20.2329 27.233 19.6978C21.7183 15.3366 16.9042 11.552 15.4749 10.432C15.9329 9.98132 16.3932 9.53454 16.8586 9.09066C19.0371 10.6769 23.4557 14.0913 28.6579 18.1541C29.1598 17.6142 29.662 17.0741 30.1581 16.5291C24.8959 12.4193 20.4154 8.95953 18.1376 7.30518C17.9605 6.5959 16.8438 6.07518 16.0953 6.77149C15.9702 6.88724 15.8489 7.00653 15.7245 7.12266C15.7099 7.11208 15.6997 7.10024 15.6844 7.08966C14.1671 6.09785 12.7456 4.99709 11.3333 3.87907C11.2439 3.80841 11.1526 3.75853 11.0607 3.7186C10.6215 3.38279 9.93641 3.29046 9.42901 3.77679C6.12775 6.94367 3.08952 10.3058 0.329616 13.9021C0.260102 13.9933 0.213133 14.0862 0.175691 14.1799C-0.0713661 14.5858 -0.0939113 15.1308 0.343573 15.5525C1.61107 16.7761 2.89493 17.9824 4.26187 19.1079C4.15679 19.2249 4.05118 19.341 3.94597 19.4583ZM2.59017 14.6474C4.98989 11.582 7.58796 8.68318 10.3873 5.93486C11.5972 6.88472 12.8215 7.81405 14.1138 8.66567C11.2074 11.5022 8.45715 14.4705 5.7422 17.4697C4.64957 16.5698 3.60887 15.6186 2.59017 14.6474Z" fill="white"/>
<path d="M60.9565 40.7395C60.9021 40.6737 60.8372 40.609 60.7589 40.5482C57.7585 38.2405 50.7347 32.6955 43.1487 26.7225C42.6759 27.2857 42.2029 27.8482 41.732 28.413C48.9982 34.1335 55.658 39.3904 58.4492 41.5447C55.3024 45.6364 51.6784 49.3302 47.5644 52.5806C44.9354 50.4566 38.5897 45.498 31.577 40.032C31.0662 40.566 30.5524 41.0969 30.029 41.6208C37.2023 47.2047 43.704 52.28 46.4946 54.5469C46.5839 54.6198 46.6753 54.6702 46.7672 54.7119C46.949 54.9269 47.2018 55.0739 47.4812 55.0995C47.6169 55.2 47.7859 55.2773 47.9978 55.3112C52.5322 56.0391 57.0796 56.6513 61.676 56.8892C62.4086 56.9276 62.876 56.4089 62.9707 55.8747C62.9898 55.7929 63.0006 55.7065 63 55.6138C62.9605 50.7686 62.3486 45.9843 61.2582 41.2504C61.2039 41.0222 61.0948 40.8571 60.9565 40.7395ZM49.9988 53.4423C53.5137 50.5474 56.6899 47.3455 59.4969 43.832C59.8757 45.7361 60.1551 47.655 60.3528 49.5809C60.2661 49.6256 60.1818 49.6788 60.102 49.7478C58.4986 51.1422 57.0204 52.6415 55.6031 54.2021C53.7311 53.9853 51.8632 53.7283 49.9988 53.4423ZM58.3711 54.4874C59.0845 53.7358 59.8171 53.0022 60.5749 52.2904C60.6232 53.0849 60.6635 53.8798 60.6839 54.6756C59.9111 54.6231 59.1411 54.5578 58.3711 54.4874Z" fill="white"/>
<path d="M31.1801 36.6708C31.6404 36.097 32.1025 35.5259 32.5632 34.9553C33.0294 34.3784 33.5028 33.8074 33.9812 33.2407C34.4548 32.6796 34.9406 32.1283 35.4369 31.5834C35.7163 31.2776 35.988 30.9673 36.2778 30.6681C36.4542 30.4852 36.6329 30.3034 36.8093 30.1198C37.3225 29.5898 37.8362 29.0599 38.3507 28.5306C38.8597 28.0055 39.3661 27.4775 39.8732 26.9511C40.3855 26.4193 40.8946 25.8846 41.4017 25.3483C42.5636 24.1189 43.7024 22.87 44.8123 21.5947C45.0304 21.3439 45.2568 21.1003 45.4727 20.8466C49.7508 22.1869 55.0532 22.2432 58.1293 18.6179C61.2134 14.9829 60.934 10.3258 59.1794 6.20895C59.167 6.17343 59.1541 6.13791 59.1371 6.10591C59.1194 6.06598 59.1045 6.0253 59.0866 5.986C58.6139 4.91396 56.9148 5.48644 57.1261 6.50949C56.3399 9.06257 54.6846 11.5218 51.811 12.2699C49.6895 12.8212 47.188 12.4263 45.3358 11.3115C43.8809 10.4358 42.1323 8.91066 42.3844 7.09885C42.7524 4.46529 45.9593 3.17798 48.2831 2.38229C48.5952 2.27548 48.7784 2.08301 48.8603 1.86107C49.7278 1.50675 49.7979 0.104312 48.6694 0.042844C43.9865 -0.214618 39.0017 0.644679 35.5249 3.81093C32.5504 6.51969 32.4645 10.2375 33.833 13.6019C33.9481 13.8849 34.0695 14.1661 34.2044 14.4431C34.3605 14.7648 32.3169 17.1317 32.0436 17.5068C31.9676 17.6117 31.8851 17.7127 31.8091 17.8166C31.3743 18.4089 30.9242 18.9903 30.4775 19.574C30.1839 19.9572 29.902 20.3483 29.6032 20.7282C29.4672 20.9009 29.3214 21.0675 29.1844 21.2396C28.7267 21.8133 28.2593 22.3807 27.788 22.9446C27.3904 23.422 26.989 23.8963 26.5815 24.3664C26.1006 24.9219 25.6115 25.4713 25.1167 26.0164C24.913 26.2412 24.7197 26.4737 24.5132 26.6962C24.1705 27.0662 23.8202 27.4299 23.472 27.7952C22.9626 28.3292 22.4478 28.8588 21.9278 29.3836C21.6855 29.628 21.4469 29.8749 21.2027 30.1166C20.8566 30.4602 20.4982 30.7921 20.1479 31.1312C19.6167 31.6454 19.0907 32.1641 18.5492 32.6688C18.5461 32.6714 18.5408 32.6771 18.5373 32.6796C18.1897 33.0098 16.2183 35.1774 15.8653 35.0937C15.8431 35.0885 15.8206 35.0847 15.7975 35.0795C11.7588 34.1413 7.44289 34.7431 4.96077 38.2297C2.27078 42.0106 2.26864 46.7673 3.38153 51.0444C3.65033 52.0755 5.10651 51.7576 5.32163 50.8929C5.5393 50.7784 5.70798 50.5743 5.76327 50.266C6.17995 47.9795 6.95038 44.7864 9.64386 43.9714C11.4967 43.4111 13.4105 44.75 14.5905 45.9358C16.0931 47.4446 16.9583 49.6833 16.7624 51.7404C16.4969 54.5297 14.2183 56.501 11.6842 57.6875C10.5748 57.6773 10.2805 59.3487 11.4896 59.5917C11.5343 59.6006 11.5795 59.6077 11.6242 59.616C11.6614 59.6262 11.6995 59.632 11.7394 59.637C16.3708 60.5146 21.3015 59.9326 24.5548 56.4293C27.3593 53.4096 26.978 49.35 25.4185 45.9094C25.1735 45.3702 24.9031 44.8444 24.6082 44.3417C24.4995 44.1568 27.3425 41.2882 27.6283 40.9562C27.8349 40.7171 28.0317 40.4682 28.2369 40.2278C28.7136 39.6661 29.1825 39.1001 29.6499 38.5321C29.9563 38.1611 30.2731 37.7971 30.5753 37.4229C30.7788 37.1729 30.9791 36.9216 31.1801 36.6708ZM26.6639 39.0034C25.8529 39.9591 25.0266 40.9018 24.1871 41.8356C23.7063 42.3697 23.2347 42.9122 22.7434 43.438C22.4582 43.7431 22.4337 44.0847 22.557 44.3744C22.5168 44.5811 22.5461 44.8074 22.6876 45.0351C22.7175 45.0838 22.7448 45.1323 22.7741 45.1809C22.9919 45.5397 23.197 45.905 23.3834 46.2772C24.8287 49.1683 25.2236 52.4144 23.0232 55.1564C21.1059 57.5455 17.9041 58.2132 14.8386 58.075C16.8874 56.6256 18.4228 54.6844 18.7669 52.1368C19.1465 49.3205 17.9061 46.5759 15.9477 44.4965C14.2212 42.6627 11.5758 41.5146 8.98052 42.1529C6.82236 42.6845 5.52386 44.4589 4.72754 46.411C4.66755 44.2401 5.06799 42.0826 6.13312 40.0877C8.07013 36.4591 12.2025 36.0868 15.9491 37.0975C16.2768 37.1857 16.5438 37.1212 16.7424 36.9779C16.8228 36.9197 16.894 36.8532 16.9505 36.7726C17.616 35.8241 18.9601 34.9938 19.8276 34.1872C19.9257 34.0958 20.0195 33.9999 20.1178 33.9084C20.662 33.3986 21.1938 32.8787 21.7274 32.3598C22.061 32.0356 22.4038 31.721 22.7329 31.3935C22.9911 31.1376 23.2375 30.8714 23.4932 30.6131C24.0121 30.0876 24.5307 29.5606 25.0387 29.0255C25.588 28.447 26.1226 27.8563 26.6576 27.2663C27.0848 26.7952 27.5216 26.3315 27.939 25.852C28.0044 25.7768 28.0664 25.6995 28.1316 25.624C28.5445 25.1477 28.9466 24.6633 29.3506 24.1806C29.8222 23.6165 30.2883 23.0495 30.7483 22.4764C31.1906 21.9247 31.6332 21.3734 32.0642 20.814C32.5137 20.2309 32.9491 19.6397 33.3853 19.0489C33.8527 18.4161 34.3149 17.7809 34.768 17.1396C35.2381 16.4754 35.7084 15.8124 36.1615 15.1399C36.4199 14.908 36.5344 14.5588 36.3216 14.1568C34.5866 10.8805 34.2317 6.99847 37.6859 4.55535C39.5839 3.21275 41.7726 2.45422 44.0588 2.11778C42.1568 3.20481 40.5317 4.72388 40.3641 6.81192C40.1624 9.32318 41.8428 11.558 44.0758 12.8212C46.6088 14.2542 49.7074 14.9047 52.5899 14.046C55.1979 13.2692 56.9558 11.5019 58.1042 9.34925C58.802 12.1544 58.68 15.2308 56.5219 17.4315C53.6837 20.3258 49.535 20.1938 45.8552 18.947C45.5915 18.8574 45.3482 18.8709 45.139 18.9457C44.8139 18.8844 44.4609 18.9682 44.1923 19.2863C43.8081 19.7407 43.4039 20.1751 43.0107 20.6205C41.9668 21.8 40.8997 22.9573 39.8093 24.0923C39.2976 24.6248 38.7878 25.1586 38.2713 25.6872C37.7629 26.2067 37.2559 26.7267 36.7463 27.246C36.2303 27.7727 35.7192 28.3059 35.2055 28.8358C34.7455 29.3107 34.2814 29.7822 33.8249 30.2628C33.8221 30.2666 33.8187 30.2699 33.8154 30.273C33.3084 30.8059 32.8281 31.3561 32.3619 31.9143C31.8774 32.4938 31.4085 33.0836 30.9465 33.6784C30.4957 34.258 30.0507 34.8412 29.6006 35.4227C29.1479 36.0074 28.6905 36.5901 28.2191 37.1644C28.1772 37.2156 28.1332 37.2648 28.0913 37.316C27.6212 37.8849 27.1399 38.4419 26.6639 39.0034Z" fill="white"/>
</svg>
