<svg width="62" height="62" viewBox="0 0 62 62" fill="none" xmlns="http://www.w3.org/2000/svg">
<path d="M22.0889 3.47114L5.8967 16.0884C3.193 18.1913 1 22.6674 1 26.0622V48.3227C1 55.2922 6.67777 61 13.6473 61H48.4349C55.4045 61 61.0822 55.2922 61.0822 48.3527V26.4828C61.0822 22.8477 58.6489 18.1913 55.6748 16.1184L37.1094 3.11064C32.9037 0.166613 26.1444 0.316818 22.0889 3.47114Z" stroke="white" stroke-width="1.14" stroke-linecap="round" stroke-linejoin="round"/>
<path d="M36.0977 36.4173V21.58C36.0871 20.2473 35.5589 18.9708 34.6246 18.0202C34.114 17.5142 33.5005 17.1239 32.8258 16.8758C32.1511 16.6277 31.4309 16.5276 30.7141 16.5823C29.4165 16.7093 28.2148 17.322 27.3498 18.2976C26.4847 19.2732 26.0203 20.5396 26.0495 21.8431L26.0671 36.3629C24.7831 37.3273 23.8049 38.6418 23.25 40.1487C22.6951 41.6555 22.5871 43.2906 22.939 44.8573C23.2909 46.4241 24.0876 47.8559 25.2336 48.9808C26.3795 50.1056 27.8259 50.8757 29.3989 51.1984C29.948 51.303 30.5058 51.3559 31.0648 51.3562C33.2757 51.3567 35.3965 50.4798 36.9615 48.9181C38.5265 47.3564 39.4078 45.2375 39.412 43.0266C39.4146 41.7425 39.1161 40.4758 38.5405 39.3279C37.9649 38.1801 37.1283 37.1832 36.0977 36.4173ZM35.2559 48.0963C34.4943 48.7198 33.6035 49.166 32.6481 49.4026C31.6927 49.6391 30.6966 49.6602 29.7321 49.4641C28.452 49.2091 27.2785 48.574 26.365 47.6418C25.4515 46.7095 24.8404 45.5234 24.6116 44.2383C24.3836 43.0332 24.4977 41.7883 24.9409 40.6447C25.3841 39.501 26.1387 38.5044 27.1192 37.7676C27.3305 37.6113 27.5024 37.4079 27.6211 37.1734C27.7398 36.939 27.8022 36.6801 27.8031 36.4173V21.8431C27.7829 20.9861 28.0824 20.1523 28.6431 19.504C29.2039 18.8557 29.9859 18.4393 30.8369 18.3359C30.9178 18.3213 31.0001 18.3154 31.0824 18.3183C31.9449 18.3266 32.7697 18.6729 33.3796 19.2828C33.9895 19.8927 34.3358 20.7175 34.3441 21.58V36.4173C34.345 36.6801 34.4073 36.939 34.5261 37.1734C34.6448 37.4079 34.8167 37.6113 35.028 37.7676C35.8249 38.364 36.4757 39.1339 36.9311 40.019C37.3865 40.9041 37.6346 41.8812 37.6566 42.8764C37.6786 43.8716 37.4738 44.8587 37.0579 45.763C36.642 46.6674 36.0258 47.4653 35.2559 48.0963Z" fill="white"/>
<path d="M34.3963 43.0266C34.3963 43.9056 34.0471 44.7486 33.4255 45.3702C32.804 45.9917 31.961 46.3409 31.082 46.3409C30.2029 46.3409 29.3599 45.9917 28.7384 45.3702C28.1168 44.7486 27.7676 43.9056 27.7676 43.0266C27.763 42.3018 28.0002 41.5961 28.4417 41.0212C28.8831 40.4464 29.5037 40.0351 30.2052 39.8526V28.1563C30.2052 27.9238 30.2975 27.7008 30.462 27.5364C30.6264 27.3719 30.8494 27.2795 31.082 27.2795C31.3145 27.2795 31.5375 27.3719 31.7019 27.5364C31.8664 27.7008 31.9588 27.9238 31.9588 28.1563V39.8543C32.6583 40.0398 33.2767 40.4516 33.7177 41.0254C34.1586 41.5993 34.3972 42.3029 34.3963 43.0266Z" fill="white"/>
</svg>
