<svg width="148" height="54" viewBox="0 0 148 54" fill="none" xmlns="http://www.w3.org/2000/svg">
<g clip-path="url(#clip0_412_312)">
<path d="M17.6533 25.9672H25.2045V16.212L32.9364 1.12398H26.675L22.2671 11.562L18.571 1.13482H10.3549L17.6533 16.2228V25.9672ZM121.235 1.00114V5.69808H127.33V25.9672H134.885V5.68724H140.988V0.990296L121.235 1.00114ZM36.5567 13.8924C38.5258 15.6231 40.9573 17.0827 40.9573 19.0807C40.9573 20.9523 39.317 21.7038 37.814 21.7038C36.0075 21.7038 34.5912 20.7753 33.5109 19.9479L31.2166 24.0992C33.2399 25.7107 36.1664 26.3755 39.093 26.3755C46.6189 26.3755 48.4363 21.216 48.4363 19.0013C48.4363 16.3927 47.6523 14.4922 44.4295 11.4898C42.0015 9.23524 39.8879 8.08629 39.8879 6.69166C39.8879 5.86789 40.6394 5.1489 42.1063 5.1489C43.3963 5.12158 44.6697 5.44367 45.7916 6.08106L47.7209 2.16814C45.7182 1.05061 43.4603 0.470572 41.1669 0.484472C36.4483 0.473633 32.4053 3.19786 32.4053 7.22639C32.4053 10.3047 33.9372 11.6307 36.5567 13.9105M84.1836 28.4746C58.4516 30.0318 33.5109 33.7063 7.79331 29.8151V1.1023H0V35.3647C0 35.3647 4.0213 36.3221 7.79331 36.8352C32.6618 41.001 58.4516 34.5373 84.1836 32.9765C102.892 31.4229 122.081 35.5381 140.785 39.4366C124.845 32.7489 102.877 26.9138 84.1836 28.4746ZM104.709 14.4525H112.062V25.9672H119.624V0.993909H112.062V9.75551H104.709V0.98307H97.1219V25.9672H104.709V14.4525ZM53.5198 25.9672L57.1618 16.1325L52.8261 13.0072H58.2168L59.7921 7.89119L61.3204 13.0072H66.8411L62.2959 16.1325L64.0193 21.3172L65.5693 25.9708H73.5975L64.0663 1.00114H57.7362L47.533 25.9672H53.5198ZM87.0741 26.3755C89.7481 26.3285 92.4012 25.8941 94.9505 25.0856V14.5066H87.3956V20.9884C87.0353 21.0951 86.6622 21.1522 86.2864 21.1582C83.7103 21.1582 79.7432 18.8025 79.7432 13.4661C79.7432 8.02487 83.4177 5.69808 87.0018 5.69808C88.4003 5.70711 89.7941 5.8621 91.1604 6.16055L93.0175 1.72736C91.211 0.939714 88.2519 0.473633 86.6116 0.473633C78.1282 0.473633 71.856 5.60052 71.856 13.1915C71.856 21.3822 78.728 26.3755 87.0741 26.3755Z" fill="#1068B1"/>
<path d="M145.472 3.05406e-06C146.16 -0.00074795 146.827 0.237162 147.36 0.67318C147.892 1.1092 148.257 1.71633 148.391 2.3911C148.526 3.06586 148.423 3.76648 148.099 4.37353C147.775 4.98059 147.25 5.45649 146.615 5.72013C145.979 5.98377 145.272 6.01883 144.613 5.81932C143.955 5.61981 143.386 5.19809 143.003 4.62604C142.621 4.05399 142.449 3.36703 142.516 2.68225C142.584 1.99747 142.886 1.35726 143.373 0.870744C143.648 0.594267 143.975 0.374985 144.336 0.225539C144.696 0.0760942 145.082 -0.000557654 145.472 3.05406e-06ZM147.196 1.2465C146.794 0.848601 146.268 0.602149 145.705 0.549139C145.142 0.496129 144.579 0.639842 144.11 0.955788C143.642 1.27173 143.297 1.74036 143.136 2.28182C142.974 2.82328 143.005 3.40406 143.223 3.92519C143.442 4.44633 143.834 4.87557 144.334 5.13978C144.833 5.40399 145.409 5.48682 145.963 5.37415C146.517 5.26147 147.014 4.96027 147.371 4.52187C147.727 4.08347 147.921 3.535 147.918 2.96992C147.917 2.64922 147.853 2.33189 147.729 2.03613C147.605 1.74038 147.424 1.47203 147.196 1.2465ZM144.219 4.55604V1.30431H145.606C145.862 1.29318 146.118 1.32369 146.365 1.39463C146.523 1.45213 146.657 1.56171 146.744 1.70535C146.839 1.85946 146.888 2.03746 146.885 2.2184C146.893 2.44036 146.817 2.65714 146.672 2.82539C146.498 2.99844 146.269 3.10572 146.025 3.12889C146.158 3.20135 146.28 3.29262 146.386 3.39987C146.521 3.56695 146.642 3.74456 146.748 3.93098L147.149 4.56688H146.361L145.884 3.84427C145.774 3.67778 145.653 3.51848 145.523 3.36735C145.47 3.30517 145.401 3.25786 145.324 3.23005C145.217 3.2005 145.106 3.1883 144.995 3.19392H144.883V4.55604H144.219ZM144.883 2.67365H145.367C145.568 2.68355 145.769 2.67022 145.967 2.6339C146.043 2.61094 146.108 2.56239 146.151 2.49661C146.2 2.42404 146.224 2.33802 146.22 2.25092C146.223 2.20317 146.217 2.15526 146.201 2.10998C146.186 2.06471 146.162 2.02296 146.13 1.98717C146.066 1.91565 145.979 1.86947 145.884 1.8571C145.83 1.8571 145.671 1.8571 145.404 1.8571H144.883V2.67365Z" fill="#1068B1"/>
<path d="M6.65987 53.1465C5.84192 53.4439 4.97939 53.6003 4.10907 53.6089C3.09083 53.6652 2.09178 53.3157 1.33065 52.637C1.01133 52.3 0.762242 51.9028 0.597868 51.4686C0.433494 51.0344 0.35712 50.5719 0.373192 50.1079C0.365007 49.3879 0.510651 48.6744 0.800384 48.0152C1.09012 47.3559 1.51726 46.7662 2.05325 46.2853C3.06487 45.4615 4.3367 45.0248 5.64099 45.0533C6.36431 45.0232 7.08582 45.1463 7.75823 45.4146L7.3066 46.6322C6.74505 46.3872 6.13798 46.2641 5.52538 46.2709C4.6712 46.2592 3.84138 46.5555 3.18774 47.1055C2.79077 47.4736 2.47586 47.9213 2.26357 48.4193C2.05128 48.9174 1.94638 49.4546 1.9557 49.9959C1.9557 51.5025 2.77586 52.3733 4.34391 52.3733C4.71404 52.3824 5.08235 52.3185 5.42782 52.1854L5.82526 50.0826H4.33669L4.5607 48.912H7.45112L6.65987 53.1465Z" fill="#231F20"/>
<path d="M8.11914 53.5227L9.7992 44.6816H11.2553L9.56435 53.5227H8.11914Z" fill="#231F20"/>
<path d="M12.863 51.1196C12.863 51.9542 13.3002 52.5395 14.0444 52.5395C15.1284 52.5395 15.851 51.0437 15.851 49.8369C15.851 49.2155 15.5655 48.4423 14.6948 48.4423C13.535 48.4423 12.863 49.9851 12.863 51.1196ZM17.3431 49.8261C17.3431 51.8928 15.8979 53.6595 13.8421 53.6595C12.3138 53.6595 11.3672 52.6009 11.3672 51.1557C11.3672 49.1035 12.8124 47.3223 14.8646 47.3223C16.4941 47.3223 17.3431 48.4929 17.3431 49.8261Z" fill="#231F20"/>
<path d="M19.8122 51.0586C19.7535 51.2948 19.7291 51.5382 19.7399 51.7813C19.7322 51.8878 19.7481 51.9947 19.7867 52.0943C19.8252 52.1939 19.8853 52.2837 19.9627 52.3573C20.0401 52.4309 20.1328 52.4864 20.2343 52.5199C20.3357 52.5534 20.4433 52.5639 20.5493 52.5508C21.8174 52.5508 22.652 50.9213 22.652 49.7254C22.652 49.0643 22.3666 48.5042 21.6946 48.5042C20.9467 48.5042 20.1735 49.2774 19.9242 50.4986L19.8122 51.0586ZM21.084 44.6816L20.3361 48.3633H20.3614C20.5846 48.0452 20.8809 47.7853 21.2255 47.6055C21.57 47.4257 21.9527 47.3312 22.3413 47.33C23.6348 47.33 24.1695 48.3886 24.1695 49.4689C24.1695 51.3874 22.8508 53.6672 20.2747 53.6672C19.0029 53.6672 18.2441 53.1325 18.2441 52.0342C18.2488 51.6826 18.2912 51.3325 18.3706 50.99L19.6243 44.6889L21.084 44.6816Z" fill="#231F20"/>
<path d="M29.349 48.5037C29.1535 48.4593 28.9533 48.4387 28.7529 48.4423C27.4196 48.4423 26.3755 49.9489 26.3755 51.3327C26.3755 51.9686 26.6103 52.4925 27.2462 52.4925C27.8821 52.4925 28.7529 51.6435 29.0527 50.1007L29.349 48.5037ZM28.7637 53.5222C28.7637 53.1609 28.8143 52.6768 28.8649 52.1637H28.8396C28.2434 53.2729 27.4341 53.6595 26.6718 53.6595C25.5878 53.6595 24.8652 52.8105 24.8652 51.5929C24.8652 49.5262 26.3104 47.3223 29.1358 47.3223C29.76 47.3253 30.3805 47.4178 30.9785 47.5969L30.3498 50.7583C30.176 51.6691 30.0925 52.5949 30.1005 53.5222H28.7637Z" fill="#231F20"/>
<path d="M31.4961 53.5227L33.1762 44.6816H34.6322L32.9377 53.5227H31.4961Z" fill="#231F20"/>
<path d="M42.103 49.7871H39.0897L38.6164 52.2909H42.0018L41.7669 53.523H36.9219L38.5152 45.1299H43.1724L42.9376 46.3655H39.7364L39.3137 48.5659H42.3378L42.103 49.7871Z" fill="#231F20"/>
<path d="M45.0808 47.4601L45.5396 48.544C45.7275 48.992 45.8395 49.2919 45.9371 49.5412H45.9768C46.2008 49.216 46.3381 48.9667 46.6235 48.5945L47.4943 47.4492H49.1635L46.6091 50.4119L48.0254 53.5227H46.432L45.9479 52.3774C45.76 51.9294 45.6625 51.6548 45.536 51.2935H45.5252C45.3517 51.5681 45.1639 51.868 44.9037 52.2654L43.9571 53.5227H42.2734L44.9146 50.3975L43.491 47.4601H45.0808Z" fill="#231F20"/>
<path d="M53.0507 53.2984C52.5019 53.5434 51.9065 53.6667 51.3056 53.6597C49.7881 53.6597 48.8523 52.6878 48.8523 51.2462C48.8422 50.7357 48.9344 50.2284 49.1235 49.7542C49.3127 49.2799 49.5949 48.8484 49.9536 48.485C50.3122 48.1216 50.7401 47.8337 51.2118 47.6384C51.6835 47.4431 52.1896 47.3443 52.7002 47.3477C53.1258 47.3468 53.5481 47.4227 53.9467 47.5718L53.5854 48.7062C53.2959 48.5763 52.9813 48.5121 52.6641 48.5184C51.2694 48.5184 50.3879 49.801 50.3879 51.0692C50.3879 51.9797 50.9081 52.4891 51.7174 52.4891C52.1608 52.4901 52.5989 52.3926 53.0001 52.2037L53.0507 53.2984Z" fill="#231F20"/>
<path d="M57.322 48.4033C56.4116 48.4033 55.8154 49.2163 55.6384 49.9497C57.1342 49.9497 58.0916 49.7618 58.0916 49.0284C58.0916 48.6418 57.7809 48.4033 57.322 48.4033ZM58.7022 53.1725C58.0356 53.4957 57.3041 53.6625 56.5633 53.6603C54.8796 53.6603 54.0703 52.627 54.0703 51.1312C54.0703 49.2994 55.418 47.3086 57.5063 47.3086C58.7022 47.3086 59.461 47.9915 59.461 49.0139C59.461 50.5712 57.8315 51.0698 55.4866 51.0192C55.4635 51.314 55.5196 51.6096 55.6492 51.8755C55.7796 52.084 55.9649 52.2526 56.1848 52.3628C56.4046 52.4731 56.6506 52.5207 56.8957 52.5005C57.4747 52.5034 58.046 52.3671 58.5613 52.1031L58.7022 53.1725Z" fill="#231F20"/>
<path d="M59.9121 53.5227L61.5922 44.6816H63.0482L61.3573 53.5227H59.9121Z" fill="#231F20"/>
<path d="M63.0117 53.5227L64.6954 44.6816H66.1478L64.4569 53.5227H63.0117Z" fill="#231F20"/>
<path d="M69.4864 48.4033C68.5795 48.4033 67.9798 49.2163 67.8063 49.9497C69.2985 49.9497 70.2596 49.7618 70.2596 49.0284C70.2596 48.6418 69.9453 48.4033 69.4864 48.4033ZM70.8702 53.1725C70.2022 53.4953 69.4696 53.662 68.7277 53.6603C67.0476 53.6603 66.2383 52.627 66.2383 51.1312C66.2383 49.2994 67.5823 47.3086 69.6743 47.3086C70.8702 47.3086 71.6289 47.9915 71.6289 49.0139C71.6289 50.5712 69.9958 51.0698 67.6546 51.0192C67.6302 51.3137 67.6851 51.6094 67.8136 51.8755C67.9446 52.0834 68.13 52.2516 68.3497 52.3617C68.5694 52.4719 68.815 52.5199 69.0601 52.5005C69.6402 52.5027 70.2124 52.3665 70.7293 52.1031L70.8702 53.1725Z" fill="#231F20"/>
<path d="M72.0781 53.5222L72.8658 49.3383C73.0139 48.6157 73.1006 47.9798 73.1765 47.4596H74.47L74.3327 48.5435H74.3579C74.5892 48.1757 74.9086 47.8714 75.2871 47.6582C75.6656 47.445 76.0914 47.3295 76.5258 47.3223C77.3965 47.3223 78.0685 47.8425 78.0685 48.9915C78.0619 49.3254 78.0244 49.658 77.9565 49.9851L77.3206 53.5222H75.8754L76.5221 50.0971C76.5648 49.8584 76.589 49.6168 76.5944 49.3745C76.5944 48.865 76.4065 48.5037 75.8357 48.5037C75.1781 48.5037 74.329 49.3022 74.0689 50.7221L73.545 53.5222H72.0781Z" fill="#231F20"/>
<path d="M83.2599 53.2984C82.7123 53.5431 82.1182 53.6664 81.5185 53.6597C79.9974 53.6597 79.0652 52.6878 79.0652 51.2462C79.0551 50.7357 79.1473 50.2284 79.3364 49.7542C79.5256 49.2799 79.8078 48.8484 80.1665 48.485C80.5251 48.1216 80.953 47.8337 81.4247 47.6384C81.8964 47.4431 82.4025 47.3443 82.9131 47.3477C83.3375 47.3464 83.7587 47.4223 84.156 47.5718L83.7947 48.7062C83.5052 48.5763 83.1906 48.5121 82.8733 48.5184C81.4787 48.5184 80.5935 49.801 80.5935 51.0692C80.5935 51.9797 81.1174 52.4891 81.9267 52.4891C82.3701 52.4896 82.8081 52.3921 83.2094 52.2037L83.2599 53.2984Z" fill="#231F20"/>
<path d="M87.533 48.4033C86.6225 48.4033 86.0263 49.2163 85.8493 49.9497C87.3451 49.9497 88.3026 49.7618 88.3026 49.0284C88.3026 48.6418 87.9918 48.4033 87.533 48.4033ZM88.9132 53.1725C88.2454 53.4961 87.5126 53.6629 86.7706 53.6603C85.0906 53.6603 84.2812 52.627 84.2812 51.1312C84.2812 49.2994 85.6289 47.3086 87.7172 47.3086C88.9132 47.3086 89.6719 47.9915 89.6719 49.0139C89.6719 50.5712 88.0424 51.0698 85.6976 51.0192C85.6744 51.314 85.7306 51.6096 85.8601 51.8755C85.9906 52.084 86.1759 52.2526 86.3957 52.3628C86.6156 52.4731 86.8615 52.5207 87.1066 52.5005C87.6857 52.5034 88.2569 52.3671 88.7722 52.1031L88.9132 53.1725Z" fill="#231F20"/>
<path d="M92.5521 52.1783C92.9972 52.4193 93.4916 52.5553 93.9973 52.5757C94.5826 52.5757 94.9295 52.2397 94.9295 51.8278C94.9295 51.416 94.7308 51.2064 94.1346 50.8957C93.4373 50.5344 92.9387 50.0105 92.9387 49.3132C92.9387 48.1425 93.9612 47.3224 95.392 47.3224C95.8906 47.3036 96.3857 47.413 96.83 47.6403L96.4686 48.6881C96.1181 48.5066 95.7289 48.4124 95.3342 48.4135C94.7886 48.4135 94.4128 48.699 94.4128 49.1072C94.4128 49.4685 94.6766 49.6925 95.1969 49.9563C95.8725 50.3176 96.4578 50.8162 96.4578 51.5858C96.4578 52.9334 95.3342 53.6777 93.8781 53.6669C93.2829 53.6754 92.6968 53.5205 92.1836 53.2189L92.5521 52.1783Z" fill="#231F20"/>
<path d="M98.7301 45.8336C98.7281 45.719 98.7492 45.6052 98.792 45.4989C98.8349 45.3926 98.8986 45.296 98.9795 45.2148C99.0604 45.1336 99.1567 45.0695 99.2628 45.0262C99.3689 44.9829 99.4826 44.9614 99.5972 44.9628C99.7003 44.9554 99.8039 44.9701 99.9009 45.0061C99.9978 45.0421 100.086 45.0984 100.159 45.1714C100.233 45.2443 100.289 45.3322 100.326 45.429C100.362 45.5258 100.377 45.6292 100.37 45.7324C100.372 45.8506 100.348 45.9678 100.303 46.0768C100.257 46.1858 100.189 46.2843 100.104 46.3662C100.019 46.448 99.9175 46.5116 99.8068 46.553C99.696 46.5944 99.578 46.6127 99.4599 46.6068C99.3606 46.607 99.2623 46.5868 99.1712 46.5473C99.08 46.5079 98.998 46.4501 98.9302 46.3776C98.8624 46.305 98.8103 46.2193 98.7771 46.1257C98.7439 46.0321 98.7304 45.9326 98.7373 45.8336M97.3535 53.5402L98.5097 47.4775H99.9549L98.7987 53.5402H97.3535Z" fill="#231F20"/>
<path d="M100.443 53.5222L101.227 49.3383C101.376 48.6157 101.466 47.9798 101.542 47.4596H102.835L102.698 48.5435H102.723C102.954 48.1755 103.274 47.871 103.652 47.6578C104.031 47.4445 104.457 47.3292 104.891 47.3223C105.762 47.3223 106.434 47.8425 106.434 48.9915C106.425 49.3253 106.388 49.6578 106.322 49.9851L105.661 53.5222H104.215L104.862 50.0971C104.908 49.8588 104.933 49.617 104.938 49.3745C104.938 48.865 104.75 48.5037 104.179 48.5037C103.518 48.5037 102.673 49.3022 102.409 50.7221L101.889 53.5222H100.443Z" fill="#231F20"/>
<path d="M111.643 53.2991C111.094 53.5441 110.499 53.6674 109.898 53.6604C108.38 53.6604 107.448 52.6885 107.448 51.2469C107.436 50.7365 107.527 50.2288 107.714 49.7538C107.901 49.2788 108.182 48.8462 108.539 48.4815C108.897 48.1167 109.323 47.8273 109.794 47.6302C110.265 47.4331 110.771 47.3324 111.282 47.334C111.706 47.3334 112.127 47.4092 112.525 47.558L112.163 48.6925C111.875 48.5625 111.562 48.4983 111.246 48.5046C109.851 48.5046 108.966 49.7873 108.966 51.0554C108.966 51.9659 109.49 52.4754 110.295 52.4754C110.74 52.4763 111.179 52.3788 111.582 52.1899L111.643 53.2991Z" fill="#231F20"/>
<path d="M115.9 48.4033C114.99 48.4033 114.394 49.2163 114.22 49.9497C115.713 49.9497 116.674 49.7618 116.674 49.0284C116.674 48.6418 116.363 48.4033 115.9 48.4033ZM117.284 53.1725C116.616 53.4953 115.884 53.662 115.142 53.6603C113.462 53.6603 112.652 52.627 112.652 51.1312C112.652 49.2994 113.996 47.3086 116.088 47.3086C117.284 47.3086 118.043 47.9915 118.043 49.0139C118.043 50.5712 116.41 51.0698 114.069 51.0192C114.044 51.3137 114.099 51.6094 114.228 51.8755C114.359 52.0834 114.544 52.2516 114.764 52.3617C114.983 52.4719 115.229 52.5199 115.474 52.5005C116.054 52.5027 116.626 52.3665 117.143 52.1031L117.284 53.1725Z" fill="#231F20"/>
<path d="M124.057 46.8243H124.032L122.54 47.5216L122.453 46.3871L124.516 45.4297H125.712L124.18 53.5229H122.789L124.057 46.8243Z" fill="#231F20"/>
<path d="M129.612 47.5718C129.612 48.1427 130.013 48.5293 130.67 48.7533C131.306 48.5437 131.866 48.0307 131.866 47.3586C131.875 47.2233 131.854 47.0879 131.805 46.9614C131.756 46.8349 131.68 46.7205 131.583 46.6258C131.486 46.5312 131.37 46.4586 131.242 46.413C131.115 46.3673 130.979 46.3498 130.844 46.3615C130.522 46.3642 130.213 46.4919 129.983 46.7177C129.753 46.9435 129.62 47.2497 129.612 47.5718ZM131.382 51.2174C131.382 50.4948 130.92 50.0756 130.161 49.8011C129.777 49.8752 129.43 50.0762 129.174 50.3718C128.919 50.6673 128.77 51.0402 128.752 51.4305C128.746 51.5895 128.774 51.748 128.834 51.8952C128.895 52.0425 128.986 52.1753 129.101 52.2847C129.217 52.394 129.354 52.4776 129.505 52.5297C129.655 52.5817 129.815 52.6012 129.973 52.5867C130.157 52.5936 130.34 52.5631 130.511 52.4972C130.682 52.4313 130.839 52.3314 130.97 52.2034C131.102 52.0754 131.207 51.922 131.277 51.7526C131.348 51.5831 131.384 51.401 131.382 51.2174ZM133.272 47.1961C133.272 48.1065 132.665 48.793 131.754 49.2013V49.241C132.097 49.4146 132.386 49.6795 132.588 50.0066C132.79 50.3336 132.898 50.7101 132.9 51.0945C132.9 52.7746 131.321 53.6598 129.825 53.6598C128.192 53.6598 127.234 52.789 127.234 51.604C127.234 50.4189 128.08 49.6385 129.041 49.2519V49.2157C128.786 49.0458 128.577 48.8159 128.431 48.5464C128.286 48.2768 128.209 47.9757 128.206 47.6694C128.206 46.2531 129.514 45.292 131.021 45.292C132.278 45.292 133.261 45.9893 133.261 47.1961" fill="#231F20"/>
<path d="M139.573 46.6754H136.762L136.263 48.294C136.383 48.2738 136.504 48.2653 136.625 48.2688C137.175 48.2691 137.715 48.4244 138.182 48.7168C138.479 48.9123 138.72 49.1816 138.881 49.4983C139.043 49.815 139.119 50.1682 139.103 50.5233C139.103 52.5141 137.459 53.6738 135.555 53.6738C134.877 53.7028 134.204 53.5427 133.611 53.2114L134.009 52.066C134.5 52.3251 135.047 52.4579 135.602 52.4526C136.614 52.4526 137.597 51.7806 137.597 50.7834C137.597 49.9994 137.148 49.4032 135.617 49.4032C135.255 49.4032 134.981 49.4285 134.659 49.4538L135.804 45.4434H139.826L139.573 46.6754Z" fill="#231F20"/>
<path d="M146.69 45.4297L146.506 46.4124C145 48.7802 143.48 51.1503 141.946 53.5229H140.342C141.859 51.2418 143.361 48.9668 144.847 46.6979V46.6762H141.252L141.487 45.4297H146.69Z" fill="#231F20"/>
</g>
<defs>
<clipPath id="clip0_412_312">
<rect width="148" height="54" fill="white"/>
</clipPath>
</defs>
</svg>
