<svg width="436" height="54" viewBox="0 0 436 54" fill="none" xmlns="http://www.w3.org/2000/svg">
<g clip-path="url(#clip0_412_397)">
<path d="M0 40.2101V33.2901H6.71L9 24.1001H2.68V17.1801H10.68L13.49 5.37012H21.14L18.26 17.1801H26.18L29.06 5.37012H36.65L33.83 17.1801H38.83V24.1001H32.15L29.87 33.2901H36.11V40.2101H28.19L25.19 52.3601H17.65L20.65 40.2101H12.69L9.69 52.3601H2.08L5 40.2101H0ZM14 33.5601H22.53L24.88 23.8301H16.38L14 33.5601Z" fill="white"/>
<path d="M50.3398 36.5798C51.6303 38.9948 53.3757 41.1375 55.4798 42.8898C57.3596 44.4365 59.7256 45.2688 62.1598 45.2398C63.8501 45.314 65.513 44.7939 66.8598 43.7698C67.4459 43.2847 67.9136 42.6723 68.2273 41.9791C68.541 41.2859 68.6923 40.5303 68.6698 39.7698C68.7219 38.4998 68.3294 37.2514 67.5598 36.2398C66.654 35.2039 65.5306 34.381 64.2698 33.8298C62.8231 33.1631 61.0431 32.4131 58.9298 31.5798C57.5865 31.101 56.274 30.5399 54.9998 29.8998C53.5586 29.1791 52.2145 28.2786 50.9998 27.2198C49.6714 26.09 48.5774 24.7106 47.7798 23.1598C46.8861 21.3921 46.4462 19.4299 46.4998 17.4498C46.4199 14.9837 47.1198 12.5552 48.4998 10.5098C49.9038 8.52049 51.8319 6.95934 54.0698 5.99981C56.5712 4.91787 59.2748 4.3826 61.9998 4.42981C64.6489 4.36776 67.2798 4.88301 69.7098 5.93981C71.7676 6.84891 73.6288 8.14975 75.1898 9.76981C76.5554 11.1897 77.6983 12.808 78.5798 14.5698L70.9998 18.7298C70.0523 17.0766 68.8121 15.6094 67.3398 14.3998C65.8227 13.2003 63.9331 12.5705 61.9998 12.6198C60.4743 12.5012 58.9612 12.9698 57.7698 13.9298C57.3177 14.3039 56.9535 14.7728 56.7029 15.3033C56.4523 15.8339 56.3215 16.4131 56.3198 16.9998C56.338 17.8921 56.5882 18.7643 57.0458 19.5306C57.5035 20.2968 58.1528 20.9307 58.9298 21.3698C61.4183 22.8724 64.0814 24.0646 66.8598 24.9198C68.8836 25.6459 70.8112 26.6164 72.5998 27.8098C74.3796 29.0013 75.8805 30.5637 76.9998 32.3898C78.1934 34.456 78.7857 36.8148 78.7098 39.1998C78.7968 41.9818 77.9831 44.7176 76.3898 46.9998C74.8183 49.1482 72.7118 50.8479 70.2798 51.9298C67.768 53.0712 65.0387 53.6546 62.2798 53.6398C59.5237 53.6581 56.7957 53.0852 54.2798 51.9598C51.8661 50.8935 49.6695 49.3918 47.7998 47.5298C46.0193 45.767 44.5666 43.7015 43.5098 41.4298L50.3398 36.5798Z" fill="white"/>
<path d="M105.719 33.56C105.824 31.9101 105.415 30.2681 104.549 28.86C104.073 28.2936 103.467 27.8512 102.782 27.5707C102.098 27.2903 101.356 27.1802 100.619 27.25C99.7997 27.219 98.9829 27.3586 98.2203 27.6598C97.4577 27.9611 96.766 28.4174 96.1891 29C95.6166 29.6161 95.1731 30.3404 94.8846 31.1304C94.5961 31.9203 94.4684 32.76 94.5091 33.6V52.4H85.7891V0H94.5091V25.91C95.3715 24.2793 96.6431 22.9009 98.1991 21.91C99.9003 20.891 101.857 20.3777 103.839 20.43C107.466 20.43 110.132 21.43 111.839 23.43C113.559 25.43 114.429 28.43 114.429 32.23V52.36H105.699L105.719 33.56Z" fill="white"/>
<path d="M137.6 52.9999C134.54 53.0723 131.51 52.3852 128.78 50.9999C126.352 49.7498 124.343 47.8172 123 45.4398C121.601 42.8231 120.912 39.8857 121 36.9198C120.91 33.9506 121.6 31.0096 123 28.3899C124.342 25.9948 126.359 24.0474 128.8 22.7899C131.545 21.4079 134.587 20.7211 137.66 20.7899C142.76 20.7899 146.71 22.1665 149.51 24.9199C152.31 27.6732 153.71 31.5332 153.71 36.4999C153.724 37.2856 153.677 38.0713 153.57 38.8498H129.82C129.941 40.9405 130.811 42.9176 132.27 44.4198C132.998 45.0827 133.85 45.5953 134.777 45.9282C135.703 46.2611 136.687 46.4078 137.67 46.3599C141.483 46.3599 144.26 44.8832 146 41.9299L153.58 44.2799C150.313 50.0932 144.987 52.9999 137.6 52.9999ZM137.54 26.8899C133.333 26.8899 130.803 29.0832 129.95 33.4699H144.38C144.299 31.6689 143.559 29.9606 142.3 28.6699C141.665 28.0731 140.916 27.6105 140.098 27.3098C139.28 27.0092 138.41 26.8765 137.54 26.9199V26.8899Z" fill="white"/>
<path d="M160.29 0H169V52.36H160.27L160.29 0Z" fill="white"/>
<path d="M173.65 21.4802H179V10.7402H187.39V21.4802H192.76V28.8002H187.39V52.3602H179V28.8002H173.7L173.65 21.4802Z" fill="white"/>
<path d="M211.911 53.0002C208.847 53.0714 205.814 52.3844 203.081 51.0002C200.653 49.73 198.649 47.7807 197.311 45.3902C195.897 42.7771 195.19 39.8403 195.261 36.8702C195.191 33.8971 195.898 30.9572 197.311 28.3402C198.659 25.9463 200.679 23.9996 203.121 22.7402C205.865 21.3571 208.908 20.6702 211.981 20.7402C217.081 20.7402 221.027 22.1169 223.821 24.8702C226.614 27.6235 228.007 31.5069 228.001 36.5202C228.017 37.3057 227.974 38.0913 227.871 38.8702H204.121C204.246 40.9598 205.115 42.9354 206.571 44.4402C207.304 45.1049 208.161 45.6184 209.092 45.9513C210.024 46.2842 211.012 46.43 212.001 46.3802C215.801 46.3802 218.574 44.9035 220.321 41.9502L227.911 44.3002C224.637 50.1002 219.304 53.0002 211.911 53.0002ZM211.841 26.8902C207.641 26.8902 205.114 29.0835 204.261 33.4702H218.691C218.609 31.6693 217.869 29.961 216.611 28.6702C215.973 28.0736 215.223 27.6113 214.403 27.3106C213.584 27.01 212.712 26.8772 211.841 26.9202V26.8902Z" fill="white"/>
<path d="M252.19 30.5401C251.657 30.0455 251.058 29.6281 250.41 29.3001C249.701 28.9885 248.933 28.8382 248.16 28.8601C247.419 28.8218 246.682 28.9791 246.022 29.3161C245.362 29.6532 244.803 30.1581 244.4 30.7801C243.47 32.3496 243.025 34.1586 243.12 35.9801V52.3601H234.6V21.4801H243.12V25.2401C243.999 23.9358 245.144 22.8317 246.48 22.0001C247.672 21.2265 249.059 20.8069 250.48 20.7901C251.575 20.785 252.661 21.0027 253.67 21.4301C254.617 21.8189 255.457 22.4293 256.12 23.2101L252.19 30.5401Z" fill="white"/>
<path d="M261.58 5.37012H288.77V13.7601H270.85V24.3001H288.1V32.3001H270.85V52.3601H261.58V5.37012Z" fill="white"/>
<path d="M294.681 36.92C294.612 33.9448 295.389 31.0111 296.921 28.46C298.399 26.0636 300.501 24.1141 303.001 22.82C305.732 21.4969 308.727 20.8096 311.761 20.8096C314.795 20.8096 317.79 21.4969 320.521 22.82C323.032 24.1097 325.145 26.0596 326.631 28.46C328.166 31.0103 328.947 33.9439 328.881 36.92C328.947 39.8961 328.166 42.8297 326.631 45.38C325.151 47.77 323.05 49.7126 320.551 51C317.818 52.3343 314.817 53.0278 311.776 53.0278C308.735 53.0278 305.734 52.3343 303.001 51C300.49 49.7143 298.377 47.7677 296.891 45.37C295.371 42.8186 294.605 39.8889 294.681 36.92ZM303.541 36.92C303.495 38.0949 303.69 39.2667 304.113 40.3637C304.536 41.4608 305.178 42.4599 306.001 43.3C307.553 44.8438 309.652 45.7104 311.841 45.7104C314.03 45.7104 316.129 44.8438 317.681 43.3C318.496 42.4562 319.131 41.4555 319.547 40.3587C319.963 39.2619 320.151 38.092 320.101 36.92C320.152 35.7479 319.964 34.5776 319.548 33.4807C319.132 32.3837 318.497 31.3831 317.681 30.54C316.129 28.9963 314.03 28.1297 311.841 28.1297C309.652 28.1297 307.553 28.9963 306.001 30.54C305.178 31.3798 304.535 32.3789 304.112 33.476C303.689 34.5731 303.495 35.7451 303.541 36.92Z" fill="white"/>
<path d="M353 30.5402C352.468 30.0456 351.869 29.6282 351.22 29.3002C350.512 28.9886 349.743 28.8383 348.97 28.8602C348.23 28.8219 347.493 28.9792 346.833 29.3162C346.173 29.6533 345.613 30.1582 345.21 30.7802C344.281 32.3497 343.835 34.1587 343.93 35.9802V52.3602H335.41V21.4802H343.93V25.2402C344.813 23.9348 345.961 22.8307 347.3 22.0002C348.492 21.2266 349.879 20.807 351.3 20.7902C352.396 20.7828 353.482 21.0006 354.49 21.4302C355.454 21.7963 356.315 22.3898 357 23.1602L353 30.5402Z" fill="white"/>
<path d="M394.149 52.3601L389.249 41.6801H373.079L368.179 52.3601H357.369L381.199 2.62012L404.999 52.3601H394.149ZM381.199 20.6101L375.359 34.1001H386.999L381.199 20.6101Z" fill="white"/>
<path d="M409.32 0H418.05V52.36H409.32V0Z" fill="white"/>
<path d="M426.641 0H435.371V52.36H426.641V0Z" fill="white"/>
</g>
<defs>
<clipPath id="clip0_412_397">
<rect width="435.37" height="53.63" fill="white"/>
</clipPath>
</defs>
</svg>
